<svg width="104" height="75" viewBox="0 0 104 75" fill="none" xmlns="http://www.w3.org/2000/svg">
<g filter="url(#filter0_d_44_27)">
<path d="M4 14.4444C4 6.467 10.4765 0 18.4658 0H85.5342C93.5235 0 100 6.467 100 14.4444V39.3939C100 47.3714 93.5235 53.8384 85.5342 53.8384H18.4658C10.4765 53.8384 4 47.3714 4 39.3939V14.4444Z" fill="#D9D9D9"/>
<path d="M78.5253 65.0253C77.5129 66.7761 74.9821 66.7761 73.9697 65.0253L66.405 53.8384C70 53.8384 68.9753 53.8384 71 53.8384H81C83.0247 53.8384 84.4014 53.8384 85.1813 53.8384L78.5253 65.0253Z" fill="#D9D9D9"/>
<path d="M40 27C40 29.2091 38.2091 31 36 31C33.7909 31 32 29.2091 32 27C32 24.7909 33.7909 23 36 23C38.2091 23 40 24.7909 40 27Z" fill="#E25813"/>
<path d="M56 27C56 29.2091 54.2091 31 52 31C49.7909 31 48 29.2091 48 27C48 24.7909 49.7909 23 52 23C54.2091 23 56 24.7909 56 27Z" fill="#E25813"/>
<path d="M72 27C72 29.2091 70.2091 31 68 31C65.7909 31 64 29.2091 64 27C64 24.7909 65.7909 23 68 23C70.2091 23 72 24.7909 72 27Z" fill="#E25813"/>
</g>
<defs>
<filter id="filter0_d_44_27" x="0" y="0" width="104" height="74.3384" filterUnits="userSpaceOnUse" color-interpolation-filters="sRGB">
<feFlood flood-opacity="0" result="BackgroundImageFix"/>
<feColorMatrix in="SourceAlpha" type="matrix" values="0 0 0 0 0 0 0 0 0 0 0 0 0 0 0 0 0 0 127 0" result="hardAlpha"/>
<feOffset dy="4"/>
<feGaussianBlur stdDeviation="2"/>
<feComposite in2="hardAlpha" operator="out"/>
<feColorMatrix type="matrix" values="0 0 0 0 0 0 0 0 0 0 0 0 0 0 0 0 0 0 0.25 0"/>
<feBlend mode="normal" in2="BackgroundImageFix" result="effect1_dropShadow_44_27"/>
<feBlend mode="normal" in="SourceGraphic" in2="effect1_dropShadow_44_27" result="shape"/>
</filter>
</defs>
</svg>
