<svg xmlns="http://www.w3.org/2000/svg" xmlns:xlink="http://www.w3.org/1999/xlink" width="1920" zoomAndPan="magnify" viewBox="0 0 1440 809.999993" height="1080" preserveAspectRatio="xMidYMid meet" version="1.0"><defs><clipPath id="63874de2d7"><path d="M 456.058594 118.234375 L 983.308594 118.234375 L 983.308594 691.234375 L 456.058594 691.234375 Z M 456.058594 118.234375 " clip-rule="nonzero"/></clipPath></defs><path fill="#ffe177" d="M 809.140625 182.289062 L 809.140625 515.808594 C 809.140625 546.019531 732.175781 570.511719 637.238281 570.511719 C 542.300781 570.511719 465.335938 546.019531 465.335938 515.808594 L 465.335938 182.289062 C 465.335938 152.078125 542.300781 127.585938 637.238281 127.585938 C 732.175781 127.585938 809.140625 152.078125 809.140625 182.289062 Z M 809.140625 182.289062 " fill-opacity="1" fill-rule="evenodd"/><path fill="#ffd064" d="M 637.238281 348.167969 C 732.175781 348.167969 809.140625 323.675781 809.140625 293.460938 L 809.140625 182.289062 C 809.140625 212.5 732.175781 236.992188 637.238281 236.992188 C 571.5 236.992188 514.378906 225.25 485.460938 207.996094 C 479.011719 204.148438 473.960938 200.023438 470.535156 195.691406 C 467.140625 191.402344 465.335938 186.914062 465.335938 182.289062 L 465.335938 293.460938 C 465.335938 294.460938 465.421875 295.453125 465.585938 296.441406 C 470.449219 325.269531 545.441406 348.167969 637.238281 348.167969 Z M 637.238281 348.167969 " fill-opacity="1" fill-rule="evenodd"/><path fill="#ffd064" d="M 637.238281 459.339844 C 542.300781 459.339844 465.335938 434.847656 465.335938 404.632812 L 465.335938 515.808594 C 465.335938 546.019531 542.300781 570.511719 637.238281 570.511719 C 732.175781 570.511719 809.140625 546.019531 809.140625 515.808594 L 809.140625 404.632812 C 809.140625 434.847656 732.175781 459.339844 637.238281 459.339844 Z M 637.238281 459.339844 " fill-opacity="1" fill-rule="evenodd"/><path fill="#f5b829" d="M 548.605469 280.160156 C 548.605469 280.851562 548.570312 281.542969 548.503906 282.234375 C 548.4375 282.921875 548.335938 283.609375 548.199219 284.289062 C 548.0625 284.96875 547.894531 285.640625 547.695312 286.304688 C 547.492188 286.96875 547.257812 287.621094 546.992188 288.261719 C 546.726562 288.902344 546.433594 289.527344 546.105469 290.136719 C 545.777344 290.75 545.421875 291.34375 545.035156 291.921875 C 544.652344 292.496094 544.238281 293.054688 543.800781 293.589844 C 543.359375 294.125 542.894531 294.636719 542.402344 295.128906 C 541.914062 295.617188 541.398438 296.082031 540.863281 296.523438 C 540.328125 296.964844 539.773438 297.375 539.195312 297.761719 C 538.617188 298.144531 538.023438 298.503906 537.414062 298.828125 C 536.800781 299.15625 536.175781 299.453125 535.535156 299.71875 C 534.894531 299.984375 534.242188 300.214844 533.578125 300.417969 C 532.914062 300.617188 532.242188 300.789062 531.5625 300.921875 C 530.882812 301.058594 530.195312 301.160156 529.507812 301.226562 C 528.816406 301.296875 528.125 301.328125 527.429688 301.328125 C 526.738281 301.328125 526.046875 301.296875 525.355469 301.226562 C 524.664062 301.160156 523.980469 301.058594 523.300781 300.921875 C 522.621094 300.789062 521.949219 300.617188 521.285156 300.417969 C 520.621094 300.214844 519.96875 299.984375 519.328125 299.71875 C 518.6875 299.453125 518.0625 299.15625 517.449219 298.828125 C 516.839844 298.503906 516.242188 298.144531 515.667969 297.761719 C 515.089844 297.375 514.535156 296.964844 514 296.523438 C 513.460938 296.082031 512.949219 295.617188 512.457031 295.128906 C 511.96875 294.636719 511.503906 294.125 511.0625 293.589844 C 510.625 293.054688 510.210938 292.496094 509.824219 291.921875 C 509.441406 291.34375 509.085938 290.75 508.757812 290.136719 C 508.429688 289.527344 508.132812 288.902344 507.867188 288.261719 C 507.601562 287.621094 507.371094 286.96875 507.167969 286.304688 C 506.96875 285.640625 506.800781 284.96875 506.664062 284.289062 C 506.527344 283.609375 506.425781 282.921875 506.359375 282.234375 C 506.289062 281.542969 506.257812 280.851562 506.257812 280.160156 C 506.257812 279.464844 506.289062 278.773438 506.359375 278.082031 C 506.425781 277.394531 506.527344 276.707031 506.664062 276.027344 C 506.800781 275.347656 506.96875 274.675781 507.167969 274.011719 C 507.371094 273.347656 507.601562 272.699219 507.867188 272.058594 C 508.132812 271.417969 508.429688 270.789062 508.757812 270.179688 C 509.085938 269.566406 509.441406 268.972656 509.824219 268.398438 C 510.210938 267.820312 510.625 267.265625 511.0625 266.726562 C 511.503906 266.191406 511.96875 265.679688 512.457031 265.1875 C 512.949219 264.699219 513.460938 264.234375 514 263.792969 C 514.535156 263.351562 515.089844 262.941406 515.667969 262.554688 C 516.242188 262.171875 516.839844 261.8125 517.449219 261.488281 C 518.0625 261.160156 518.6875 260.863281 519.328125 260.597656 C 519.96875 260.332031 520.621094 260.101562 521.285156 259.898438 C 521.949219 259.699219 522.621094 259.53125 523.300781 259.394531 C 523.980469 259.257812 524.664062 259.15625 525.355469 259.089844 C 526.046875 259.023438 526.738281 258.988281 527.429688 258.988281 C 528.125 258.988281 528.816406 259.023438 529.507812 259.089844 C 530.195312 259.15625 530.882812 259.257812 531.5625 259.394531 C 532.242188 259.53125 532.914062 259.699219 533.578125 259.898438 C 534.242188 260.101562 534.894531 260.332031 535.535156 260.597656 C 536.175781 260.863281 536.800781 261.160156 537.414062 261.488281 C 538.023438 261.8125 538.617188 262.171875 539.195312 262.554688 C 539.773438 262.941406 540.328125 263.351562 540.863281 263.792969 C 541.398438 264.234375 541.914062 264.699219 542.402344 265.1875 C 542.894531 265.679688 543.359375 266.191406 543.800781 266.726562 C 544.238281 267.265625 544.652344 267.820312 545.035156 268.398438 C 545.421875 268.972656 545.777344 269.566406 546.105469 270.179688 C 546.433594 270.789062 546.726562 271.417969 546.992188 272.058594 C 547.257812 272.699219 547.492188 273.347656 547.695312 274.011719 C 547.894531 274.675781 548.0625 275.347656 548.199219 276.027344 C 548.335938 276.707031 548.4375 277.394531 548.503906 278.082031 C 548.570312 278.773438 548.605469 279.464844 548.605469 280.160156 Z M 548.605469 280.160156 " fill-opacity="1" fill-rule="nonzero"/><path fill="#f5b829" d="M 537.84375 371.019531 C 538.445312 371.363281 539.03125 371.730469 539.597656 372.128906 C 540.167969 372.527344 540.714844 372.953125 541.238281 373.40625 C 541.765625 373.859375 542.265625 374.335938 542.746094 374.835938 C 543.226562 375.339844 543.679688 375.863281 544.105469 376.410156 C 544.53125 376.953125 544.933594 377.519531 545.304688 378.105469 C 545.675781 378.691406 546.019531 379.292969 546.332031 379.910156 C 546.644531 380.53125 546.925781 381.164062 547.175781 381.808594 C 547.425781 382.457031 547.644531 383.113281 547.828125 383.78125 C 548.015625 384.449219 548.167969 385.125 548.285156 385.808594 C 548.40625 386.492188 548.492188 387.179688 548.542969 387.871094 C 548.597656 388.5625 548.613281 389.253906 548.597656 389.949219 C 548.582031 390.640625 548.53125 391.332031 548.449219 392.019531 C 548.363281 392.707031 548.246094 393.390625 548.09375 394.066406 C 547.945312 394.742188 547.757812 395.410156 547.542969 396.070312 C 547.328125 396.730469 547.078125 397.375 546.796875 398.007812 C 546.515625 398.644531 546.207031 399.261719 545.867188 399.867188 C 545.523438 400.46875 545.15625 401.054688 544.757812 401.621094 C 544.359375 402.191406 543.933594 402.738281 543.480469 403.261719 C 543.027344 403.789062 542.550781 404.289062 542.050781 404.769531 C 541.546875 405.246094 541.023438 405.699219 540.476562 406.128906 C 539.929688 406.554688 539.367188 406.953125 538.78125 407.328125 C 538.195312 407.699219 537.59375 408.039062 536.972656 408.351562 C 536.355469 408.664062 535.722656 408.945312 535.074219 409.195312 C 534.429688 409.449219 533.769531 409.664062 533.101562 409.851562 C 532.433594 410.035156 531.757812 410.191406 531.074219 410.308594 C 530.390625 410.429688 529.703125 410.515625 529.011719 410.566406 C 528.320312 410.617188 527.628906 410.636719 526.9375 410.621094 C 526.242188 410.601562 525.550781 410.554688 524.863281 410.46875 C 524.175781 410.386719 523.492188 410.269531 522.816406 410.117188 C 522.140625 409.964844 521.472656 409.78125 520.8125 409.566406 C 520.152344 409.347656 519.507812 409.101562 518.871094 408.820312 C 518.238281 408.539062 517.621094 408.230469 517.015625 407.886719 C 516.410156 407.546875 515.824219 407.175781 515.257812 406.777344 C 514.691406 406.378906 514.144531 405.953125 513.617188 405.503906 C 513.09375 405.050781 512.589844 404.574219 512.113281 404.070312 C 511.632812 403.570312 511.179688 403.046875 510.753906 402.5 C 510.324219 401.953125 509.925781 401.386719 509.554688 400.804688 C 509.183594 400.21875 508.839844 399.617188 508.527344 398.996094 C 508.214844 398.378906 507.933594 397.746094 507.683594 397.097656 C 507.433594 396.453125 507.214844 395.792969 507.027344 395.125 C 506.84375 394.457031 506.691406 393.78125 506.570312 393.101562 C 506.453125 392.417969 506.367188 391.730469 506.3125 391.039062 C 506.261719 390.347656 506.246094 389.65625 506.261719 388.960938 C 506.277344 388.269531 506.328125 387.578125 506.410156 386.890625 C 506.496094 386.199219 506.613281 385.519531 506.761719 384.84375 C 506.914062 384.164062 507.097656 383.496094 507.316406 382.839844 C 507.53125 382.179688 507.78125 381.535156 508.058594 380.898438 C 508.339844 380.265625 508.652344 379.644531 508.992188 379.042969 C 509.332031 378.4375 509.703125 377.851562 510.101562 377.285156 C 510.5 376.71875 510.925781 376.171875 511.378906 375.648438 C 511.832031 375.121094 512.308594 374.617188 512.808594 374.140625 C 513.3125 373.660156 513.835938 373.207031 514.382812 372.78125 C 514.925781 372.355469 515.492188 371.953125 516.078125 371.582031 C 516.664062 371.210938 517.265625 370.867188 517.886719 370.554688 C 518.503906 370.242188 519.136719 369.960938 519.785156 369.710938 C 520.429688 369.460938 521.085938 369.242188 521.757812 369.058594 C 522.425781 368.871094 523.101562 368.71875 523.78125 368.601562 C 524.464844 368.480469 525.152344 368.394531 525.84375 368.34375 C 526.535156 368.292969 527.230469 368.273438 527.921875 368.289062 C 528.617188 368.304688 529.304688 368.355469 529.996094 368.441406 C 530.683594 368.523438 531.367188 368.640625 532.042969 368.792969 C 532.71875 368.941406 533.386719 369.128906 534.046875 369.34375 C 534.703125 369.558594 535.351562 369.808594 535.984375 370.089844 C 536.621094 370.371094 537.238281 370.679688 537.84375 371.019531 Z M 537.84375 371.019531 " fill-opacity="1" fill-rule="nonzero"/><path fill="#f5b829" d="M 548.605469 501.847656 C 548.605469 502.542969 548.570312 503.234375 548.503906 503.925781 C 548.4375 504.613281 548.335938 505.300781 548.199219 505.980469 C 548.0625 506.660156 547.894531 507.332031 547.695312 507.996094 C 547.492188 508.660156 547.257812 509.308594 546.992188 509.949219 C 546.726562 510.589844 546.433594 511.21875 546.105469 511.828125 C 545.777344 512.441406 545.421875 513.035156 545.035156 513.609375 C 544.652344 514.1875 544.238281 514.742188 543.800781 515.28125 C 543.359375 515.816406 542.894531 516.328125 542.402344 516.820312 C 541.914062 517.308594 541.398438 517.773438 540.863281 518.214844 C 540.328125 518.65625 539.773438 519.066406 539.195312 519.453125 C 538.617188 519.835938 538.023438 520.195312 537.414062 520.519531 C 536.800781 520.847656 536.175781 521.144531 535.535156 521.410156 C 534.894531 521.675781 534.242188 521.90625 533.578125 522.109375 C 532.914062 522.308594 532.242188 522.476562 531.5625 522.613281 C 530.882812 522.75 530.195312 522.851562 529.507812 522.917969 C 528.816406 522.984375 528.125 523.019531 527.429688 523.019531 C 526.738281 523.019531 526.046875 522.984375 525.355469 522.917969 C 524.664062 522.851562 523.980469 522.75 523.300781 522.613281 C 522.621094 522.476562 521.949219 522.308594 521.285156 522.109375 C 520.621094 521.90625 519.96875 521.675781 519.328125 521.410156 C 518.6875 521.144531 518.0625 520.847656 517.449219 520.519531 C 516.839844 520.195312 516.242188 519.835938 515.667969 519.453125 C 515.089844 519.066406 514.535156 518.65625 514 518.214844 C 513.460938 517.773438 512.949219 517.308594 512.457031 516.820312 C 511.96875 516.328125 511.503906 515.816406 511.0625 515.28125 C 510.625 514.742188 510.210938 514.1875 509.824219 513.609375 C 509.441406 513.035156 509.085938 512.441406 508.757812 511.828125 C 508.429688 511.21875 508.132812 510.589844 507.867188 509.949219 C 507.601562 509.308594 507.371094 508.660156 507.167969 507.996094 C 506.96875 507.332031 506.800781 506.660156 506.664062 505.980469 C 506.527344 505.300781 506.425781 504.613281 506.359375 503.925781 C 506.289062 503.234375 506.257812 502.542969 506.257812 501.847656 C 506.257812 501.15625 506.289062 500.464844 506.359375 499.773438 C 506.425781 499.085938 506.527344 498.398438 506.664062 497.71875 C 506.800781 497.039062 506.96875 496.367188 507.167969 495.703125 C 507.371094 495.039062 507.601562 494.386719 507.867188 493.746094 C 508.132812 493.105469 508.429688 492.480469 508.757812 491.871094 C 509.085938 491.257812 509.441406 490.664062 509.824219 490.085938 C 510.210938 489.511719 510.625 488.953125 511.0625 488.417969 C 511.503906 487.882812 511.96875 487.371094 512.457031 486.878906 C 512.949219 486.390625 513.460938 485.925781 514 485.484375 C 514.535156 485.042969 515.089844 484.632812 515.667969 484.246094 C 516.242188 483.859375 516.839844 483.503906 517.449219 483.179688 C 518.0625 482.851562 518.6875 482.554688 519.328125 482.289062 C 519.96875 482.023438 520.621094 481.792969 521.285156 481.589844 C 521.949219 481.390625 522.621094 481.21875 523.300781 481.085938 C 523.980469 480.949219 524.664062 480.847656 525.355469 480.78125 C 526.046875 480.710938 526.738281 480.679688 527.429688 480.679688 C 528.125 480.679688 528.816406 480.710938 529.507812 480.78125 C 530.195312 480.847656 530.882812 480.949219 531.5625 481.085938 C 532.242188 481.21875 532.914062 481.390625 533.578125 481.589844 C 534.242188 481.792969 534.894531 482.023438 535.535156 482.289062 C 536.175781 482.554688 536.800781 482.851562 537.414062 483.179688 C 538.023438 483.503906 538.617188 483.859375 539.195312 484.246094 C 539.773438 484.632812 540.328125 485.042969 540.863281 485.484375 C 541.398438 485.925781 541.914062 486.390625 542.402344 486.878906 C 542.894531 487.371094 543.359375 487.882812 543.800781 488.417969 C 544.238281 488.953125 544.652344 489.511719 545.035156 490.085938 C 545.421875 490.664062 545.777344 491.257812 546.105469 491.871094 C 546.433594 492.480469 546.726562 493.105469 546.992188 493.746094 C 547.257812 494.386719 547.492188 495.039062 547.695312 495.703125 C 547.894531 496.367188 548.0625 497.039062 548.199219 497.71875 C 548.335938 498.398438 548.4375 499.085938 548.503906 499.773438 C 548.570312 500.464844 548.605469 501.15625 548.605469 501.847656 Z M 548.605469 501.847656 " fill-opacity="1" fill-rule="nonzero"/><path fill="#a79ba7" d="M 841.996094 379.277344 C 856.5625 382.742188 870.480469 388.515625 883.230469 396.367188 L 910.023438 384.46875 L 941.605469 416.042969 L 929.707031 442.824219 C 937.5625 455.574219 943.335938 469.492188 946.804688 484.0625 L 974.140625 494.582031 L 974.140625 539.238281 L 946.800781 549.757812 C 943.332031 564.324219 937.554688 578.238281 929.703125 590.988281 L 941.605469 617.777344 L 910.023438 649.351562 L 883.238281 637.457031 C 870.484375 645.308594 856.566406 651.082031 841.992188 654.550781 L 831.472656 681.882812 L 786.8125 681.882812 L 776.285156 654.546875 C 761.714844 651.078125 747.800781 645.304688 735.050781 637.453125 L 708.257812 649.351562 L 676.675781 617.777344 L 688.574219 590.996094 C 680.71875 578.246094 674.945312 564.328125 671.476562 549.757812 L 644.140625 539.238281 L 644.140625 494.585938 L 671.480469 484.0625 C 674.945312 469.496094 680.722656 455.582031 688.574219 442.832031 L 676.675781 416.046875 L 708.253906 384.46875 L 735.050781 396.367188 C 747.800781 388.519531 761.714844 382.742188 776.285156 379.277344 L 786.808594 351.9375 L 831.46875 351.9375 Z M 841.996094 379.277344 " fill-opacity="1" fill-rule="evenodd"/><path fill="#837683" d="M 735.050781 637.453125 L 708.257812 649.351562 L 704.132812 645.226562 L 729.253906 634.074219 C 731.160156 635.246094 733.09375 636.375 735.050781 637.453125 Z M 841.996094 379.277344 C 856.5625 382.742188 870.480469 388.515625 883.230469 396.367188 L 875.613281 399.75 C 862.863281 391.898438 843.148438 382.742188 828.578125 379.273438 L 818.054688 351.9375 L 831.46875 351.9375 Z M 883.238281 637.457031 C 870.484375 645.3125 856.566406 651.085938 841.992188 654.550781 L 831.472656 681.882812 L 818.054688 681.882812 L 828.578125 654.554688 C 843.152344 651.085938 862.867188 641.929688 875.621094 634.078125 Z M 704.132812 388.59375 L 708.257812 384.46875 L 735.050781 396.367188 C 733.09375 397.449219 731.160156 398.578125 729.253906 399.75 Z M 900.734375 388.59375 L 910.023438 384.46875 L 941.605469 416.042969 L 929.707031 442.824219 C 937.5625 455.578125 943.335938 469.496094 946.804688 484.0625 L 974.140625 494.585938 L 974.140625 539.238281 L 946.800781 549.761719 C 943.332031 564.328125 937.554688 578.238281 929.703125 590.988281 L 941.605469 617.777344 L 910.023438 649.351562 L 900.734375 645.226562 L 928.191406 617.777344 L 916.289062 590.988281 C 924.140625 578.238281 929.917969 564.328125 933.382812 549.761719 L 960.726562 539.238281 L 960.726562 494.585938 L 933.390625 484.0625 C 929.921875 469.496094 924.148438 455.578125 916.292969 442.824219 L 928.191406 416.042969 Z M 900.734375 388.59375 " fill-opacity="1" fill-rule="evenodd"/><path fill="#eceff1" d="M 873.980469 452.074219 C 875.039062 453.136719 876.074219 454.222656 877.082031 455.335938 C 878.089844 456.449219 879.070312 457.582031 880.023438 458.742188 C 880.976562 459.902344 881.898438 461.085938 882.792969 462.289062 C 883.6875 463.496094 884.550781 464.722656 885.382812 465.96875 C 886.21875 467.21875 887.019531 468.484375 887.792969 469.773438 C 888.5625 471.058594 889.304688 472.363281 890.011719 473.6875 C 890.71875 475.011719 891.394531 476.351562 892.035156 477.707031 C 892.675781 479.0625 893.285156 480.433594 893.859375 481.820312 C 894.433594 483.207031 894.972656 484.609375 895.476562 486.019531 C 895.984375 487.433594 896.453125 488.859375 896.890625 490.292969 C 897.324219 491.730469 897.726562 493.175781 898.089844 494.632812 C 898.457031 496.085938 898.785156 497.550781 899.078125 499.023438 C 899.371094 500.492188 899.625 501.972656 899.847656 503.457031 C 900.066406 504.941406 900.25 506.429688 900.398438 507.921875 C 900.546875 509.414062 900.65625 510.910156 900.730469 512.410156 C 900.804688 513.910156 900.839844 515.410156 900.839844 516.910156 C 900.839844 518.410156 900.804688 519.910156 900.730469 521.410156 C 900.65625 522.90625 900.546875 524.402344 900.398438 525.898438 C 900.25 527.390625 900.066406 528.878906 899.847656 530.363281 C 899.628906 531.847656 899.371094 533.324219 899.078125 534.796875 C 898.785156 536.269531 898.457031 537.734375 898.09375 539.1875 C 897.726562 540.644531 897.328125 542.089844 896.890625 543.523438 C 896.457031 544.960938 895.984375 546.386719 895.480469 547.796875 C 894.972656 549.210938 894.433594 550.609375 893.859375 551.996094 C 893.285156 553.382812 892.679688 554.753906 892.035156 556.113281 C 891.394531 557.46875 890.71875 558.808594 890.011719 560.132812 C 889.304688 561.453125 888.566406 562.761719 887.792969 564.046875 C 887.023438 565.335938 886.21875 566.601562 885.386719 567.847656 C 884.550781 569.097656 883.6875 570.324219 882.792969 571.527344 C 881.902344 572.734375 880.976562 573.917969 880.027344 575.078125 C 879.074219 576.238281 878.09375 577.371094 877.085938 578.484375 C 876.078125 579.597656 875.042969 580.683594 873.980469 581.742188 C 872.921875 582.804688 871.835938 583.839844 870.722656 584.847656 C 869.609375 585.855469 868.472656 586.835938 867.3125 587.785156 C 866.152344 588.738281 864.972656 589.660156 863.765625 590.554688 C 862.558594 591.449219 861.332031 592.3125 860.085938 593.144531 C 858.835938 593.980469 857.570312 594.78125 856.28125 595.554688 C 854.996094 596.324219 853.691406 597.066406 852.367188 597.773438 C 851.042969 598.480469 849.703125 599.152344 848.347656 599.796875 C 846.988281 600.4375 845.617188 601.046875 844.230469 601.621094 C 842.84375 602.195312 841.445312 602.734375 840.03125 603.238281 C 838.617188 603.746094 837.195312 604.214844 835.757812 604.652344 C 834.320312 605.085938 832.875 605.488281 831.421875 605.851562 C 829.964844 606.214844 828.5 606.542969 827.027344 606.835938 C 825.554688 607.128906 824.078125 607.386719 822.59375 607.605469 C 821.109375 607.828125 819.621094 608.011719 818.125 608.15625 C 816.632812 608.304688 815.136719 608.414062 813.636719 608.488281 C 812.140625 608.5625 810.640625 608.597656 809.136719 608.597656 C 807.636719 608.597656 806.136719 608.5625 804.636719 608.488281 C 803.140625 608.414062 801.644531 608.304688 800.148438 608.15625 C 798.65625 608.011719 797.167969 607.828125 795.683594 607.605469 C 794.199219 607.386719 792.71875 607.128906 791.246094 606.835938 C 789.777344 606.542969 788.3125 606.214844 786.855469 605.851562 C 785.398438 605.488281 783.953125 605.085938 782.519531 604.652344 C 781.082031 604.214844 779.65625 603.746094 778.242188 603.238281 C 776.832031 602.734375 775.429688 602.195312 774.042969 601.621094 C 772.65625 601.046875 771.285156 600.4375 769.929688 599.796875 C 768.574219 599.15625 767.234375 598.480469 765.910156 597.773438 C 764.585938 597.066406 763.28125 596.328125 761.992188 595.554688 C 760.707031 594.785156 759.4375 593.980469 758.191406 593.148438 C 756.941406 592.3125 755.714844 591.449219 754.507812 590.554688 C 753.304688 589.664062 752.121094 588.738281 750.960938 587.789062 C 749.800781 586.835938 748.664062 585.855469 747.554688 584.847656 C 746.441406 583.839844 745.355469 582.804688 744.292969 581.746094 C 743.230469 580.683594 742.195312 579.597656 741.1875 578.484375 C 740.179688 577.375 739.203125 576.238281 738.25 575.078125 C 737.296875 573.917969 736.375 572.734375 735.480469 571.53125 C 734.585938 570.324219 733.722656 569.097656 732.886719 567.851562 C 732.054688 566.601562 731.25 565.335938 730.480469 564.046875 C 729.707031 562.761719 728.96875 561.457031 728.261719 560.132812 C 727.554688 558.808594 726.878906 557.46875 726.238281 556.113281 C 725.597656 554.757812 724.988281 553.386719 724.414062 552 C 723.839844 550.613281 723.300781 549.214844 722.792969 547.800781 C 722.289062 546.386719 721.816406 544.964844 721.382812 543.527344 C 720.945312 542.089844 720.546875 540.644531 720.179688 539.191406 C 719.816406 537.734375 719.488281 536.269531 719.195312 534.800781 C 718.902344 533.328125 718.644531 531.847656 718.425781 530.363281 C 718.203125 528.878906 718.019531 527.390625 717.875 525.898438 C 717.726562 524.40625 717.617188 522.910156 717.542969 521.410156 C 717.46875 519.910156 717.433594 518.414062 717.433594 516.910156 C 717.433594 515.410156 717.46875 513.910156 717.542969 512.414062 C 717.617188 510.914062 717.726562 509.417969 717.875 507.925781 C 718.019531 506.429688 718.203125 504.941406 718.425781 503.457031 C 718.644531 501.972656 718.902344 500.496094 719.195312 499.023438 C 719.484375 497.550781 719.816406 496.089844 720.179688 494.632812 C 720.542969 493.175781 720.945312 491.730469 721.378906 490.296875 C 721.816406 488.859375 722.285156 487.433594 722.792969 486.023438 C 723.296875 484.609375 723.835938 483.210938 724.410156 481.824219 C 724.984375 480.4375 725.59375 479.066406 726.234375 477.710938 C 726.878906 476.351562 727.550781 475.011719 728.257812 473.691406 C 728.964844 472.367188 729.707031 471.0625 730.476562 469.773438 C 731.25 468.488281 732.050781 467.21875 732.886719 465.972656 C 733.71875 464.722656 734.582031 463.496094 735.476562 462.292969 C 736.371094 461.085938 737.292969 459.90625 738.246094 458.746094 C 739.199219 457.585938 740.179688 456.449219 741.1875 455.335938 C 742.195312 454.226562 743.230469 453.140625 744.289062 452.078125 C 745.351562 451.015625 746.4375 449.980469 747.550781 448.972656 C 748.660156 447.964844 749.796875 446.988281 750.957031 446.035156 C 752.117188 445.082031 753.300781 444.160156 754.507812 443.265625 C 755.710938 442.371094 756.9375 441.507812 758.1875 440.675781 C 759.433594 439.839844 760.703125 439.039062 761.988281 438.265625 C 763.277344 437.496094 764.582031 436.757812 765.90625 436.050781 C 767.230469 435.339844 768.570312 434.667969 769.925781 434.027344 C 771.28125 433.382812 772.652344 432.777344 774.039062 432.203125 C 775.425781 431.628906 776.828125 431.085938 778.238281 430.582031 C 779.652344 430.078125 781.078125 429.605469 782.511719 429.171875 C 783.949219 428.734375 785.394531 428.335938 786.851562 427.96875 C 788.308594 427.605469 789.769531 427.277344 791.242188 426.984375 C 792.714844 426.691406 794.195312 426.433594 795.679688 426.214844 C 797.164062 425.996094 798.652344 425.8125 800.144531 425.664062 C 801.640625 425.515625 803.136719 425.40625 804.632812 425.332031 C 806.132812 425.257812 807.632812 425.222656 809.132812 425.222656 C 810.632812 425.222656 812.132812 425.257812 813.632812 425.332031 C 815.132812 425.40625 816.628906 425.515625 818.121094 425.664062 C 819.617188 425.808594 821.105469 425.992188 822.589844 426.214844 C 824.074219 426.433594 825.550781 426.691406 827.023438 426.984375 C 828.496094 427.277344 829.960938 427.605469 831.414062 427.96875 C 832.871094 428.335938 834.316406 428.734375 835.753906 429.167969 C 837.191406 429.605469 838.613281 430.074219 840.027344 430.582031 C 841.441406 431.085938 842.839844 431.625 844.226562 432.199219 C 845.613281 432.773438 846.984375 433.382812 848.34375 434.023438 C 849.699219 434.667969 851.039062 435.339844 852.363281 436.046875 C 853.6875 436.753906 854.992188 437.496094 856.277344 438.265625 C 857.566406 439.039062 858.835938 439.839844 860.082031 440.671875 C 861.328125 441.507812 862.558594 442.371094 863.761719 443.265625 C 864.96875 444.160156 866.152344 445.082031 867.3125 446.035156 C 868.472656 446.984375 869.605469 447.964844 870.71875 448.972656 C 871.832031 449.980469 872.917969 451.015625 873.980469 452.074219 Z M 873.980469 452.074219 " fill-opacity="1" fill-rule="nonzero"/><path fill="#d1d1d6" d="M 809.140625 425.222656 C 758.488281 425.222656 717.4375 466.269531 717.4375 516.910156 C 717.4375 567.554688 758.488281 608.597656 809.140625 608.597656 C 811.59375 608.597656 814.027344 608.5 816.433594 608.3125 C 769.195312 604.59375 732.023438 565.097656 732.023438 516.910156 C 732.023438 468.722656 769.195312 429.226562 816.433594 425.511719 C 814.027344 425.320312 811.59375 425.222656 809.140625 425.222656 Z M 809.140625 425.222656 " fill-opacity="1" fill-rule="evenodd"/><g clip-path="url(#63874de2d7)"><path fill="#242222" d="M 783.410156 494.566406 L 756.886719 516.910156 L 783.410156 539.253906 C 787.316406 542.546875 787.8125 548.367188 784.519531 552.269531 C 782.695312 554.441406 780.085938 555.5625 777.453125 555.5625 C 775.351562 555.5625 773.234375 554.847656 771.503906 553.390625 L 736.59375 523.980469 C 734.511719 522.222656 733.308594 519.636719 733.308594 516.914062 C 733.308594 514.1875 734.511719 511.601562 736.59375 509.84375 L 771.503906 480.429688 C 775.40625 477.152344 781.230469 477.648438 784.519531 481.550781 C 787.8125 485.441406 787.3125 491.273438 783.410156 494.566406 Z M 846.773438 480.429688 L 881.6875 509.84375 C 883.769531 511.597656 884.96875 514.183594 884.96875 516.910156 C 884.96875 519.636719 883.769531 522.222656 881.6875 523.980469 L 846.773438 553.390625 C 845.042969 554.847656 842.929688 555.5625 840.824219 555.5625 C 838.191406 555.5625 835.582031 554.441406 833.757812 552.269531 C 830.464844 548.367188 830.960938 542.546875 834.867188 539.257812 L 861.394531 516.910156 L 834.867188 494.566406 C 830.960938 491.273438 830.464844 485.441406 833.757812 481.550781 C 837.050781 477.648438 842.867188 477.152344 846.773438 480.429688 Z M 828.777344 554.488281 C 830.097656 559.417969 827.171875 564.488281 822.242188 565.804688 C 821.445312 566.023438 820.636719 566.117188 819.851562 566.117188 C 815.761719 566.117188 812.03125 563.402344 810.921875 559.269531 L 789.5 479.335938 C 788.179688 474.402344 791.105469 469.332031 796.035156 468.015625 C 800.96875 466.699219 806.039062 469.621094 807.355469 474.554688 Z M 809.132812 601.039062 C 855.539062 601.039062 893.285156 563.300781 893.285156 516.910156 C 893.285156 470.523438 855.539062 432.785156 809.132812 432.785156 C 762.742188 432.785156 724.996094 470.523438 724.996094 516.910156 C 724.996094 563.300781 762.742188 601.039062 809.132812 601.039062 Z M 809.132812 414.308594 C 752.550781 414.308594 706.515625 460.339844 706.515625 516.910156 C 706.515625 573.484375 752.550781 619.515625 809.132812 619.515625 C 865.726562 619.515625 911.761719 573.484375 911.761719 516.910156 C 911.765625 460.335938 865.726562 414.308594 809.132812 414.308594 Z M 964.90625 532.890625 L 964.90625 500.929688 L 943.480469 492.683594 C 940.640625 491.585938 938.527344 489.160156 937.808594 486.207031 C 934.574219 472.578125 929.195312 459.621094 921.835938 447.671875 C 920.242188 445.070312 920.023438 441.859375 921.261719 439.078125 L 930.582031 418.09375 L 907.976562 395.484375 L 886.980469 404.816406 C 884.195312 406.050781 880.972656 405.832031 878.386719 404.238281 C 866.433594 396.871094 853.472656 391.5 839.855469 388.265625 C 836.886719 387.5625 834.464844 385.4375 833.378906 382.59375 L 825.128906 361.175781 L 793.148438 361.175781 L 784.902344 382.597656 C 783.816406 385.4375 781.390625 387.5625 778.421875 388.265625 C 764.808594 391.5 751.847656 396.867188 739.894531 404.238281 C 737.296875 405.832031 734.082031 406.050781 731.296875 404.816406 L 710.300781 395.484375 L 687.695312 418.09375 L 697.015625 439.078125 C 698.253906 441.859375 698.039062 445.082031 696.441406 447.679688 C 689.082031 459.621094 683.707031 472.589844 680.464844 486.203125 C 679.761719 489.160156 677.640625 491.585938 674.796875 492.679688 L 653.375 500.929688 L 653.375 532.890625 L 674.792969 541.140625 C 677.636719 542.234375 679.757812 544.660156 680.460938 547.617188 C 683.707031 561.242188 689.082031 574.210938 696.4375 586.152344 C 698.035156 588.75 698.253906 591.960938 697.015625 594.742188 L 687.695312 615.726562 L 710.300781 638.335938 L 731.300781 629.007812 C 734.082031 627.769531 737.300781 627.988281 739.894531 629.585938 C 751.847656 636.953125 764.8125 642.320312 778.421875 645.554688 C 781.390625 646.257812 783.816406 648.382812 784.914062 651.226562 L 793.148438 672.644531 L 825.128906 672.644531 L 833.363281 651.238281 C 834.460938 648.394531 836.886719 646.269531 839.855469 645.566406 C 853.472656 642.320312 866.445312 636.949219 878.398438 629.59375 C 880.984375 627.992188 884.207031 627.769531 886.992188 629.015625 L 907.976562 638.335938 L 930.578125 615.726562 L 921.257812 594.734375 C 920.023438 591.949219 920.242188 588.738281 921.835938 586.140625 C 929.195312 574.1875 934.566406 561.230469 937.808594 547.617188 C 938.515625 544.660156 940.640625 542.234375 943.480469 541.140625 Z M 637.238281 561.277344 C 592.246094 561.277344 550.074219 555.734375 518.484375 545.6875 C 486.109375 535.386719 474.574219 523.492188 474.574219 515.800781 L 474.574219 434.261719 C 483.925781 440.984375 496.75 446.988281 512.882812 452.117188 C 546.230469 462.726562 590.394531 468.582031 637.238281 468.582031 C 647.117188 468.582031 656.9375 468.292969 666.609375 467.761719 C 665.542969 470.859375 664.570312 473.988281 663.707031 477.152344 L 640.816406 485.964844 C 637.25 487.335938 634.898438 490.765625 634.898438 494.589844 L 634.898438 539.230469 C 634.898438 543.054688 637.25 546.484375 640.816406 547.859375 L 663.703125 556.667969 C 664.058594 557.964844 664.4375 559.257812 664.828125 560.539062 C 655.738281 561.011719 646.507812 561.277344 637.238281 561.277344 Z M 474.574219 323.089844 C 483.925781 329.8125 496.75 335.816406 512.882812 340.941406 C 546.230469 351.554688 590.394531 357.398438 637.238281 357.398438 C 684.078125 357.398438 728.242188 351.554688 761.59375 340.941406 C 777.71875 335.816406 790.550781 329.8125 799.90625 323.089844 L 799.90625 342.695312 L 786.808594 342.695312 C 782.984375 342.695312 779.566406 345.054688 778.191406 348.609375 L 769.378906 371.507812 C 757.164062 374.835938 745.449219 379.683594 734.4375 385.992188 L 712.003906 376.023438 C 708.511719 374.476562 704.421875 375.226562 701.722656 377.929688 L 670.140625 409.511719 C 667.441406 412.214844 666.679688 416.304688 668.230469 419.792969 L 678.195312 442.21875 C 676.96875 444.363281 675.8125 446.546875 674.691406 448.742188 C 662.460938 449.628906 649.902344 450.105469 637.238281 450.105469 C 592.246094 450.105469 550.074219 444.5625 518.488281 434.515625 C 486.113281 424.214844 474.574219 412.320312 474.574219 404.628906 Z M 474.574219 211.917969 L 474.574219 293.460938 C 474.574219 301.148438 486.109375 313.03125 518.484375 323.34375 C 550.074219 333.390625 592.246094 338.921875 637.238281 338.921875 C 682.226562 338.921875 724.402344 333.390625 755.988281 323.34375 C 788.367188 313.03125 799.90625 301.148438 799.90625 293.457031 L 799.90625 211.917969 C 790.550781 218.640625 777.71875 224.644531 761.59375 229.769531 C 728.242188 240.382812 684.078125 246.226562 637.238281 246.226562 C 590.394531 246.226562 546.230469 240.382812 512.882812 229.769531 C 496.75 224.644531 483.925781 218.640625 474.574219 211.917969 Z M 518.484375 152.410156 C 550.074219 142.355469 592.242188 136.824219 637.238281 136.824219 C 682.226562 136.824219 724.402344 142.355469 755.988281 152.414062 C 788.367188 162.710938 799.90625 174.597656 799.90625 182.289062 C 799.90625 189.976562 788.367188 201.859375 755.988281 212.160156 C 724.402344 222.21875 682.230469 227.75 637.238281 227.75 C 592.246094 227.75 550.074219 222.21875 518.484375 212.160156 C 486.109375 201.859375 474.574219 189.976562 474.574219 182.289062 C 474.574219 174.597656 486.109375 162.714844 518.484375 152.410156 Z M 977.460938 485.960938 L 954.578125 477.152344 C 951.242188 464.933594 946.378906 453.222656 940.082031 442.21875 L 950.050781 419.792969 C 951.597656 416.304688 950.835938 412.21875 948.132812 409.515625 L 916.558594 377.929688 C 913.855469 375.230469 909.765625 374.480469 906.277344 376.027344 L 883.835938 385.992188 C 872.832031 379.6875 861.117188 374.835938 848.898438 371.511719 L 840.085938 348.621094 C 838.722656 345.054688 835.292969 342.699219 831.46875 342.699219 L 818.382812 342.699219 L 818.382812 182.289062 C 818.382812 163.046875 798.738281 146.628906 761.589844 134.800781 C 728.242188 124.191406 684.078125 118.347656 637.238281 118.347656 C 590.394531 118.347656 546.230469 124.191406 512.882812 134.800781 C 475.730469 146.628906 456.09375 163.046875 456.09375 182.289062 L 456.09375 515.800781 C 456.09375 535.050781 475.730469 551.472656 512.878906 563.289062 C 546.230469 573.898438 590.394531 579.753906 637.234375 579.753906 C 648.8125 579.753906 660.328125 579.363281 671.597656 578.65625 C 673.582031 583.066406 675.777344 587.386719 678.191406 591.601562 L 668.230469 614.027344 C 666.675781 617.515625 667.4375 621.605469 670.140625 624.308594 L 701.71875 655.890625 C 704.421875 658.59375 708.511719 659.34375 712.003906 657.796875 L 734.4375 647.828125 C 745.453125 654.125 757.164062 658.984375 769.378906 662.3125 L 778.191406 685.199219 C 779.550781 688.765625 782.984375 691.121094 786.804688 691.121094 L 831.46875 691.121094 C 835.292969 691.121094 838.722656 688.765625 840.097656 685.199219 L 848.898438 662.324219 C 861.117188 658.984375 872.839844 654.136719 883.847656 647.839844 L 906.265625 657.792969 C 909.765625 659.351562 913.855469 658.59375 916.558594 655.890625 L 948.136719 624.308594 C 950.839844 621.605469 951.601562 617.515625 950.050781 614.027344 L 940.085938 591.601562 C 946.378906 580.585938 951.230469 568.875 954.566406 556.671875 L 977.460938 547.859375 C 981.027344 546.484375 983.382812 543.054688 983.382812 539.234375 L 983.382812 494.589844 C 983.382812 490.765625 981.027344 487.335938 977.460938 485.960938 Z M 518.921875 513.871094 C 526.078125 513.875 531.898438 508.054688 531.898438 500.894531 C 531.898438 493.746094 526.078125 487.914062 518.921875 487.914062 C 511.765625 487.914062 505.941406 493.746094 505.941406 500.894531 C 505.941406 508.054688 511.765625 513.871094 518.921875 513.871094 Z M 518.921875 469.4375 C 501.574219 469.4375 487.464844 483.550781 487.464844 500.894531 C 487.464844 518.238281 501.574219 532.351562 518.921875 532.351562 C 536.265625 532.351562 550.378906 518.238281 550.378906 500.894531 C 550.378906 483.546875 536.265625 469.4375 518.921875 469.4375 Z M 518.921875 375.609375 C 511.765625 375.609375 505.941406 381.429688 505.941406 388.578125 C 505.941406 395.738281 511.765625 401.558594 518.921875 401.558594 C 526.078125 401.558594 531.898438 395.738281 531.898438 388.578125 C 531.894531 381.429688 526.078125 375.609375 518.921875 375.609375 Z M 518.921875 420.035156 C 536.265625 420.035156 550.378906 405.925781 550.378906 388.578125 C 550.378906 371.234375 536.265625 357.132812 518.921875 357.132812 C 501.574219 357.132812 487.464844 371.234375 487.464844 388.578125 C 487.464844 405.925781 501.574219 420.035156 518.921875 420.035156 Z M 518.921875 263.296875 C 526.078125 263.296875 531.898438 269.117188 531.898438 276.265625 C 531.898438 283.425781 526.078125 289.246094 518.921875 289.246094 C 511.765625 289.246094 505.941406 283.425781 505.941406 276.265625 C 505.941406 269.113281 511.765625 263.296875 518.921875 263.296875 Z M 518.921875 307.722656 C 501.574219 307.722656 487.464844 293.609375 487.464844 276.265625 C 487.464844 258.917969 501.574219 244.820312 518.921875 244.820312 C 536.265625 244.820312 550.378906 258.917969 550.378906 276.265625 C 550.375 293.609375 536.265625 307.722656 518.921875 307.722656 Z M 518.921875 307.722656 " fill-opacity="1" fill-rule="evenodd"/></g></svg>