<svg xmlns="http://www.w3.org/2000/svg" xmlns:xlink="http://www.w3.org/1999/xlink" width="1920" zoomAndPan="magnify" viewBox="0 0 1440 809.999993" height="1080" preserveAspectRatio="xMidYMid meet" version="1.0"><defs><clipPath id="ebe0085008"><path d="M 439 88.695312 L 990 88.695312 L 990 378 L 439 378 Z M 439 88.695312 " clip-rule="nonzero"/></clipPath><clipPath id="2b4c9d696d"><path d="M 452 580 L 976 580 L 976 720.945312 L 452 720.945312 Z M 452 580 " clip-rule="nonzero"/></clipPath></defs><path fill="#3b4346" d="M 686.371094 325.449219 L 741.761719 325.449219 L 741.761719 493.53125 L 686.371094 493.53125 Z M 686.371094 325.449219 " fill-opacity="1" fill-rule="nonzero"/><path fill="#000000" d="M 741.761719 498.492188 L 686.371094 498.492188 C 683.652344 498.492188 681.511719 496.351562 681.511719 493.628906 L 681.511719 325.449219 C 681.511719 322.726562 683.652344 320.585938 686.371094 320.585938 L 741.761719 320.585938 C 744.480469 320.585938 746.617188 322.726562 746.617188 325.449219 L 746.617188 493.53125 C 746.617188 496.253906 744.382812 498.492188 741.761719 498.492188 Z M 691.230469 488.765625 L 736.902344 488.765625 L 736.902344 330.3125 L 691.230469 330.3125 Z M 691.230469 488.765625 " fill-opacity="1" fill-rule="nonzero"/><path fill="#dbd7d9" d="M 443.925781 313.484375 C 443.925781 346.265625 470.453125 372.625 503.007812 372.625 L 906.46875 372.625 C 949.320312 372.625 984.011719 337.996094 984.011719 295.003906 C 984.011719 252.109375 949.320312 217.1875 906.46875 217.1875 C 905.300781 217.1875 904.136719 217.1875 903.066406 217.285156 C 899.664062 177.503906 866.335938 146.28125 825.71875 146.28125 C 813.765625 146.28125 802.394531 148.90625 792.289062 153.964844 C 776.351562 118.363281 740.691406 93.558594 699.003906 93.558594 C 642.546875 93.558594 596.679688 139.375 596.582031 195.886719 C 589.003906 193.359375 580.746094 191.898438 572.289062 191.898438 C 534.394531 191.898438 502.8125 218.941406 496.105469 254.832031 C 466.761719 258.140625 443.925781 283.136719 443.925781 313.484375 Z M 443.925781 313.484375 " fill-opacity="1" fill-rule="nonzero"/><g clip-path="url(#ebe0085008)"><path fill="#000000" d="M 906.566406 377.585938 L 503.101562 377.585938 C 467.828125 377.585938 439.164062 348.890625 439.164062 313.582031 C 439.164062 282.261719 461.707031 255.707031 492.121094 250.550781 C 500.675781 213.589844 533.90625 187.132812 572.386719 187.132812 C 579.09375 187.132812 585.601562 187.910156 592.015625 189.5625 C 595.417969 133.34375 642.15625 88.695312 699.003906 88.695312 C 739.523438 88.695312 776.546875 111.652344 794.71875 147.640625 C 804.4375 143.554688 814.832031 141.511719 825.8125 141.511719 C 866.820312 141.511719 901.804688 172.347656 907.535156 212.421875 C 952.527344 212.910156 989.066406 249.773438 989.066406 295.101562 C 989.066406 340.527344 952.042969 377.585938 906.566406 377.585938 Z M 572.289062 196.761719 C 537.308594 196.761719 507.28125 221.566406 500.867188 255.707031 C 500.480469 257.75 498.730469 259.402344 496.691406 259.597656 C 469.382812 262.710938 448.878906 285.859375 448.878906 313.484375 C 448.878906 343.445312 473.175781 367.761719 503.101562 367.761719 L 906.566406 367.761719 C 946.699219 367.761719 979.25 335.078125 979.25 295.003906 C 979.25 254.636719 946.503906 221.46875 905.980469 222.050781 C 905.203125 222.050781 904.425781 222.050781 903.648438 222.148438 C 902.386719 222.246094 901.027344 221.859375 900.054688 221.078125 C 899.082031 220.300781 898.402344 219.035156 898.304688 217.773438 C 895.097656 180.421875 863.324219 151.238281 825.8125 151.238281 C 814.640625 151.238281 804.144531 153.671875 794.523438 158.4375 C 793.359375 159.023438 792 159.117188 790.734375 158.632812 C 789.472656 158.144531 788.5 157.269531 787.917969 156.007812 C 772.175781 120.988281 737.289062 98.421875 699.003906 98.421875 C 645.265625 98.421875 601.539062 142.195312 601.441406 195.886719 C 601.441406 197.441406 600.664062 198.902344 599.402344 199.875 C 598.136719 200.75 596.488281 201.042969 595.027344 200.554688 C 587.742188 198.027344 580.160156 196.761719 572.289062 196.761719 Z M 572.289062 196.761719 " fill-opacity="1" fill-rule="nonzero"/></g><path fill="#000000" d="M 556.839844 252.59375 L 573.941406 252.59375 C 578.414062 252.59375 582.203125 252.984375 585.410156 253.859375 C 588.617188 254.734375 591.433594 256.195312 594.058594 258.527344 C 600.761719 264.265625 604.164062 273.117188 604.164062 284.886719 C 604.164062 288.777344 603.871094 292.378906 603.191406 295.585938 C 602.511719 298.796875 601.441406 301.714844 600.082031 304.246094 C 598.625 306.871094 596.875 309.109375 594.640625 311.152344 C 592.890625 312.707031 591.042969 313.972656 588.90625 314.945312 C 586.867188 315.917969 584.632812 316.597656 582.300781 316.890625 C 579.96875 317.277344 577.246094 317.472656 574.234375 317.472656 L 557.132812 317.472656 C 554.703125 317.472656 552.953125 317.085938 551.691406 316.402344 C 550.523438 315.722656 549.648438 314.652344 549.359375 313.386719 C 549.066406 312.125 548.773438 310.371094 548.773438 308.234375 L 548.773438 260.667969 C 548.773438 257.847656 549.359375 255.804688 550.71875 254.539062 C 551.980469 253.277344 554.023438 252.59375 556.839844 252.59375 Z M 561.894531 263.003906 L 561.894531 306.96875 L 571.804688 306.96875 C 573.941406 306.96875 575.691406 306.871094 576.953125 306.773438 C 578.21875 306.675781 579.480469 306.382812 580.839844 305.898438 C 582.203125 305.410156 583.269531 304.730469 584.242188 303.953125 C 588.617188 300.257812 590.851562 293.835938 590.851562 284.789062 C 590.851562 278.371094 589.878906 273.605469 587.933594 270.394531 C 585.992188 267.183594 583.660156 265.140625 580.839844 264.265625 C 578.023438 263.390625 574.621094 263.003906 570.542969 263.003906 Z M 561.894531 263.003906 " fill-opacity="1" fill-rule="nonzero"/><path fill="#000000" d="M 648.570312 296.949219 L 624.957031 296.949219 C 624.957031 299.671875 625.542969 302.105469 626.609375 304.246094 C 627.679688 306.289062 629.136719 307.941406 630.886719 309.011719 C 632.632812 310.082031 634.675781 310.566406 636.8125 310.566406 C 638.269531 310.566406 639.535156 310.371094 640.796875 310.082031 C 642.058594 309.789062 643.128906 309.207031 644.296875 308.523438 C 645.460938 307.84375 646.433594 307.066406 647.40625 306.191406 C 648.375 305.316406 649.542969 304.246094 651.097656 302.785156 C 651.679688 302.300781 652.554688 302.007812 653.722656 302.007812 C 654.984375 302.007812 655.957031 302.398438 656.734375 302.980469 C 657.511719 303.660156 657.898438 304.632812 657.898438 305.898438 C 657.898438 306.96875 657.511719 308.234375 656.636719 309.691406 C 655.761719 311.152344 654.5 312.511719 652.75 313.875 C 651 315.234375 648.863281 316.304688 646.238281 317.179688 C 643.613281 318.058594 640.601562 318.542969 637.203125 318.542969 C 629.429688 318.542969 623.402344 316.304688 619.128906 311.929688 C 614.851562 307.453125 612.714844 301.519531 612.714844 293.933594 C 612.714844 290.335938 613.199219 287.027344 614.269531 284.011719 C 615.339844 280.996094 616.894531 278.371094 618.933594 276.132812 C 620.972656 273.992188 623.5 272.242188 626.414062 271.074219 C 629.429688 269.910156 632.730469 269.324219 636.328125 269.324219 C 640.992188 269.324219 645.074219 270.296875 648.472656 272.339844 C 651.875 274.285156 654.402344 276.910156 656.054688 280.023438 C 657.707031 283.136719 658.578125 286.445312 658.578125 289.652344 C 658.578125 292.667969 657.707031 294.613281 655.957031 295.585938 C 654.109375 296.558594 651.679688 296.949219 648.570312 296.949219 Z M 624.957031 290.140625 L 646.820312 290.140625 C 646.53125 286.054688 645.363281 282.941406 643.519531 280.898438 C 641.574219 278.855469 639.046875 277.789062 635.9375 277.789062 C 632.925781 277.789062 630.496094 278.855469 628.554688 280.898438 C 626.609375 282.941406 625.347656 286.054688 624.957031 290.140625 Z M 624.957031 290.140625 " fill-opacity="1" fill-rule="nonzero"/><path fill="#000000" d="M 674.90625 277.007812 L 684.621094 304.4375 L 695.117188 275.84375 C 695.894531 273.507812 696.769531 271.953125 697.546875 270.980469 C 698.324219 270.007812 699.585938 269.519531 701.140625 269.519531 C 702.695312 269.519531 703.960938 270.007812 705.027344 271.074219 C 706.097656 272.144531 706.679688 273.3125 706.679688 274.675781 C 706.679688 275.160156 706.582031 275.84375 706.390625 276.523438 C 706.195312 277.203125 706 277.882812 705.707031 278.566406 C 705.417969 279.246094 705.125 279.925781 704.835938 280.707031 L 693.269531 309.496094 C 692.980469 310.273438 692.492188 311.34375 692.007812 312.609375 C 691.519531 313.875 690.9375 314.945312 690.257812 315.820312 C 689.578125 316.695312 688.800781 317.472656 687.925781 317.960938 C 686.953125 318.445312 685.886719 318.738281 684.523438 318.738281 C 682.777344 318.738281 681.414062 318.347656 680.445312 317.570312 C 679.472656 316.792969 678.695312 315.917969 678.207031 315.042969 C 677.722656 314.070312 676.945312 312.316406 675.78125 309.496094 L 664.3125 281.09375 C 664.023438 280.414062 663.730469 279.636719 663.535156 278.953125 C 663.246094 278.273438 663.050781 277.496094 662.855469 276.816406 C 662.660156 276.035156 662.5625 275.453125 662.5625 274.871094 C 662.5625 274.089844 662.855469 273.214844 663.339844 272.4375 C 663.828125 271.660156 664.507812 270.980469 665.382812 270.394531 C 666.257812 269.910156 667.226562 269.617188 668.296875 269.617188 C 670.335938 269.617188 671.699219 270.199219 672.378906 271.367188 C 673.15625 272.339844 674.03125 274.285156 674.90625 277.007812 Z M 674.90625 277.007812 " fill-opacity="1" fill-rule="nonzero"/><path fill="#000000" d="M 744.773438 251.523438 C 751.476562 251.523438 757.210938 252.886719 762.070312 255.609375 C 766.925781 258.332031 770.523438 262.222656 773.050781 267.28125 C 775.480469 272.339844 776.742188 278.175781 776.742188 284.984375 C 776.742188 290.042969 776.0625 294.519531 774.703125 298.699219 C 773.339844 302.785156 771.300781 306.382812 768.578125 309.398438 C 765.859375 312.414062 762.554688 314.652344 758.570312 316.304688 C 754.585938 317.960938 750.117188 318.738281 744.964844 318.738281 C 739.914062 318.738281 735.347656 317.960938 731.363281 316.304688 C 727.378906 314.652344 723.976562 312.316406 721.351562 309.398438 C 718.632812 306.382812 716.6875 302.882812 715.230469 298.699219 C 713.773438 294.519531 713.191406 289.945312 713.191406 285.082031 C 713.191406 280.121094 713.871094 275.550781 715.328125 271.367188 C 716.785156 267.183594 718.828125 263.683594 721.546875 260.765625 C 724.269531 257.847656 727.574219 255.609375 731.460938 254.054688 C 735.445312 252.304688 739.816406 251.523438 744.773438 251.523438 Z M 763.429688 284.886719 C 763.429688 280.121094 762.652344 276.035156 761.097656 272.535156 C 759.542969 269.035156 757.40625 266.40625 754.488281 264.65625 C 751.574219 262.90625 748.367188 261.933594 744.675781 261.933594 C 742.050781 261.933594 739.621094 262.417969 737.386719 263.390625 C 735.152344 264.363281 733.207031 265.824219 731.652344 267.671875 C 730 269.519531 728.738281 271.953125 727.863281 274.871094 C 726.890625 277.789062 726.503906 281.09375 726.503906 284.789062 C 726.503906 288.488281 726.988281 291.792969 727.863281 294.808594 C 728.835938 297.824219 730.097656 300.257812 731.75 302.203125 C 733.402344 304.148438 735.347656 305.605469 737.582031 306.578125 C 739.816406 307.550781 742.148438 308.039062 744.773438 308.039062 C 748.171875 308.039062 751.1875 307.164062 754.003906 305.507812 C 756.820312 303.855469 759.054688 301.230469 760.707031 297.726562 C 762.554688 294.324219 763.429688 289.945312 763.429688 284.886719 Z M 763.429688 284.886719 " fill-opacity="1" fill-rule="nonzero"/><path fill="#000000" d="M 798.21875 276.230469 L 798.21875 277.691406 C 800.453125 274.871094 802.882812 272.828125 805.3125 271.5625 C 807.738281 270.296875 810.558594 269.617188 813.570312 269.617188 C 817.261719 269.617188 820.664062 270.589844 823.871094 272.535156 C 826.980469 274.480469 829.507812 277.203125 831.257812 280.898438 C 833.003906 284.597656 833.976562 288.972656 833.976562 294.03125 C 833.976562 297.726562 833.492188 301.132812 832.421875 304.246094 C 831.351562 307.355469 829.894531 309.984375 828.144531 312.027344 C 826.398438 314.070312 824.164062 315.722656 821.636719 316.890625 C 819.109375 318.058594 816.484375 318.542969 813.570312 318.542969 C 810.167969 318.542969 807.253906 317.863281 804.921875 316.5 C 802.589844 315.140625 800.355469 313.097656 798.21875 310.371094 L 798.21875 328.464844 C 798.21875 333.816406 796.273438 336.441406 792.386719 336.441406 C 790.152344 336.441406 788.597656 335.761719 787.917969 334.398438 C 787.140625 333.035156 786.847656 330.992188 786.847656 328.367188 L 786.847656 276.230469 C 786.847656 273.898438 787.332031 272.242188 788.304688 271.074219 C 789.277344 269.910156 790.636719 269.421875 792.386719 269.421875 C 794.136719 269.421875 795.496094 270.007812 796.566406 271.171875 C 797.730469 272.339844 798.21875 273.992188 798.21875 276.230469 Z M 821.925781 293.738281 C 821.925781 290.53125 821.441406 287.804688 820.46875 285.570312 C 819.5 283.332031 818.136719 281.484375 816.386719 280.316406 C 814.640625 279.148438 812.792969 278.46875 810.65625 278.46875 C 807.351562 278.46875 804.535156 279.734375 802.203125 282.359375 C 799.871094 284.984375 798.800781 288.875 798.800781 293.933594 C 798.800781 298.699219 799.964844 302.492188 802.203125 305.121094 C 804.4375 307.746094 807.253906 309.109375 810.65625 309.109375 C 812.695312 309.109375 814.542969 308.523438 816.195312 307.355469 C 817.941406 306.191406 819.304688 304.4375 820.277344 302.105469 C 821.34375 299.867188 821.925781 297.046875 821.925781 293.738281 Z M 821.925781 293.738281 " fill-opacity="1" fill-rule="nonzero"/><path fill="#000000" d="M 882.464844 302.785156 C 882.464844 306.09375 881.6875 309.011719 880.035156 311.34375 C 878.386719 313.679688 876.050781 315.527344 872.847656 316.695312 C 869.640625 317.960938 865.847656 318.542969 861.28125 318.542969 C 856.910156 318.542969 853.21875 317.863281 850.109375 316.597656 C 846.996094 315.234375 844.761719 313.582031 843.207031 311.636719 C 841.75 309.59375 840.972656 307.648438 840.972656 305.605469 C 840.972656 304.246094 841.460938 303.175781 842.429688 302.203125 C 843.402344 301.230469 844.570312 300.742188 846.027344 300.742188 C 847.289062 300.742188 848.261719 301.035156 848.941406 301.714844 C 849.621094 302.398438 850.300781 303.175781 850.886719 304.34375 C 852.148438 306.480469 853.605469 308.136719 855.355469 309.207031 C 857.105469 310.273438 859.4375 310.761719 862.449219 310.761719 C 864.878906 310.761719 866.820312 310.273438 868.375 309.109375 C 869.929688 308.039062 870.707031 306.773438 870.707031 305.410156 C 870.707031 303.273438 869.929688 301.714844 868.277344 300.742188 C 866.628906 299.769531 864.003906 298.796875 860.3125 297.921875 C 856.132812 296.851562 852.730469 295.78125 850.203125 294.710938 C 847.582031 293.546875 845.539062 292.085938 843.984375 290.238281 C 842.429688 288.390625 841.652344 286.054688 841.652344 283.332031 C 841.652344 280.898438 842.332031 278.664062 843.792969 276.523438 C 845.25 274.382812 847.386719 272.632812 850.203125 271.367188 C 853.023438 270.101562 856.421875 269.421875 860.40625 269.421875 C 863.515625 269.421875 866.335938 269.714844 868.863281 270.394531 C 871.386719 271.074219 873.429688 271.953125 875.082031 273.019531 C 876.734375 274.089844 877.996094 275.355469 878.871094 276.621094 C 879.746094 277.980469 880.132812 279.246094 880.132812 280.511719 C 880.132812 281.871094 879.648438 283.039062 878.773438 283.914062 C 877.800781 284.789062 876.539062 285.277344 874.789062 285.277344 C 873.527344 285.277344 872.457031 284.886719 871.582031 284.207031 C 870.707031 283.527344 869.738281 282.457031 868.570312 280.996094 C 867.695312 279.832031 866.625 278.855469 865.363281 278.175781 C 864.101562 277.496094 862.449219 277.105469 860.3125 277.105469 C 858.171875 277.105469 856.328125 277.59375 854.867188 278.46875 C 853.410156 279.34375 852.730469 280.511719 852.730469 281.96875 C 852.730469 283.234375 853.21875 284.304688 854.285156 285.082031 C 855.355469 285.859375 856.8125 286.542969 858.5625 287.125 C 860.3125 287.613281 862.835938 288.292969 865.945312 289.070312 C 869.738281 289.945312 872.75 291.113281 875.082031 292.378906 C 877.414062 293.640625 879.257812 295.101562 880.425781 296.851562 C 881.882812 298.601562 882.464844 300.546875 882.464844 302.785156 Z M 882.464844 302.785156 " fill-opacity="1" fill-rule="nonzero"/><path fill="#ffffff" d="M 848.554688 149.78125 C 841.363281 147.542969 833.78125 146.375 825.910156 146.375 C 813.960938 146.375 802.589844 149.003906 792.484375 154.0625 C 776.351562 118.363281 740.691406 93.558594 699.003906 93.558594 C 642.546875 93.558594 596.679688 139.375 596.582031 195.886719 C 589.003906 193.359375 580.746094 191.898438 572.289062 191.898438 C 534.394531 191.898438 502.8125 218.941406 496.105469 254.832031 C 465.691406 258.332031 442.273438 285.082031 444.023438 316.890625 C 444.121094 316.988281 444.214844 317.085938 444.3125 317.179688 L 696.964844 317.179688 C 780.628906 317.179688 848.457031 249.289062 848.457031 165.539062 L 848.457031 149.78125 Z M 848.554688 149.78125 " fill-opacity="0.15" fill-rule="nonzero"/><path fill="#ffffff" d="M 773.4375 125.949219 C 754.78125 106.105469 728.542969 93.558594 699.003906 93.558594 C 642.546875 93.558594 596.679688 139.375 596.582031 195.886719 C 589.003906 193.359375 580.746094 191.898438 572.289062 191.898438 C 534.394531 191.898438 502.8125 218.941406 496.105469 254.832031 C 493.582031 255.125 491.152344 255.804688 488.820312 256.386719 L 657.511719 256.386719 C 721.546875 256.386719 773.535156 204.347656 773.535156 140.25 L 773.535156 125.949219 Z M 773.4375 125.949219 " fill-opacity="0.15" fill-rule="nonzero"/><path fill="#3b4346" d="M 507.085938 533.800781 L 921.042969 533.800781 L 921.042969 599.066406 L 507.085938 599.066406 Z M 507.085938 533.800781 " fill-opacity="1" fill-rule="nonzero"/><path fill="#000000" d="M 921.042969 603.929688 L 507.085938 603.929688 C 504.367188 603.929688 502.230469 601.792969 502.230469 599.066406 L 502.230469 533.800781 C 502.230469 531.078125 504.367188 528.9375 507.085938 528.9375 L 921.042969 528.9375 C 923.765625 528.9375 925.902344 531.078125 925.902344 533.800781 L 925.902344 599.066406 C 925.902344 601.695312 923.765625 603.929688 921.042969 603.929688 Z M 511.945312 594.203125 L 916.183594 594.203125 L 916.183594 538.664062 L 511.945312 538.664062 Z M 511.945312 594.203125 " fill-opacity="1" fill-rule="nonzero"/><path fill="#ffffff" d="M 507.085938 533.800781 L 752.644531 533.800781 L 752.644531 599.066406 L 507.085938 599.066406 Z M 507.085938 533.800781 " fill-opacity="0.1" fill-rule="nonzero"/><path fill="#ffffff" d="M 507.085938 533.800781 L 629.816406 533.800781 L 629.816406 599.066406 L 507.085938 599.066406 Z M 507.085938 533.800781 " fill-opacity="0.1" fill-rule="nonzero"/><path fill="#54b8ea" d="M 970.992188 606.167969 L 970.992188 694.78125 C 970.992188 706.550781 961.46875 716.082031 949.710938 716.082031 L 478.421875 716.082031 C 466.664062 716.082031 457.140625 706.550781 457.140625 694.78125 L 457.140625 606.167969 C 457.140625 594.398438 466.664062 584.867188 478.421875 584.867188 L 949.710938 584.867188 C 961.46875 584.867188 970.992188 594.398438 970.992188 606.167969 Z M 970.992188 606.167969 " fill-opacity="1" fill-rule="nonzero"/><g clip-path="url(#2b4c9d696d)"><path fill="#000000" d="M 949.710938 720.945312 L 478.421875 720.945312 C 463.941406 720.945312 452.28125 709.175781 452.28125 694.78125 L 452.28125 606.167969 C 452.28125 591.675781 464.039062 580.003906 478.421875 580.003906 L 949.710938 580.003906 C 964.1875 580.003906 975.847656 591.773438 975.847656 606.167969 L 975.847656 694.78125 C 975.847656 709.175781 964.089844 720.945312 949.710938 720.945312 Z M 478.421875 589.730469 C 469.382812 589.730469 462 597.121094 462 606.167969 L 462 694.78125 C 462 703.828125 469.382812 711.21875 478.421875 711.21875 L 949.710938 711.21875 C 958.746094 711.21875 966.132812 703.828125 966.132812 694.78125 L 966.132812 606.167969 C 966.132812 597.121094 958.746094 589.730469 949.710938 589.730469 Z M 478.421875 589.730469 " fill-opacity="1" fill-rule="nonzero"/></g><path fill="#115876" d="M 535.851562 650.425781 C 535.851562 662.390625 526.230469 672.019531 514.472656 672.019531 C 502.519531 672.019531 493.09375 662.390625 493.09375 650.425781 C 493.09375 638.65625 502.519531 629.027344 514.472656 629.027344 C 526.230469 629.027344 535.851562 638.65625 535.851562 650.425781 Z M 535.851562 650.425781 " fill-opacity="1" fill-rule="nonzero"/><path fill="#fdd9b7" d="M 612.519531 650.425781 C 612.519531 662.390625 622.140625 672.019531 633.898438 672.019531 C 645.851562 672.019531 655.277344 662.390625 655.277344 650.425781 C 655.277344 638.65625 645.851562 629.027344 633.898438 629.027344 C 622.140625 629.027344 612.519531 638.65625 612.519531 650.425781 Z M 612.519531 650.425781 " fill-opacity="1" fill-rule="nonzero"/><path fill="#f15853" d="M 552.855469 650.425781 C 552.855469 662.390625 562.476562 672.019531 574.234375 672.019531 C 586.1875 672.019531 595.613281 662.390625 595.613281 650.425781 C 595.613281 638.65625 586.1875 629.027344 574.234375 629.027344 C 562.476562 629.027344 552.855469 638.65625 552.855469 650.425781 Z M 552.855469 650.425781 " fill-opacity="1" fill-rule="nonzero"/><path fill="#000000" d="M 933.480469 692.25 C 930.761719 692.25 928.625 690.113281 928.625 687.386719 L 928.625 613.464844 C 928.625 610.738281 930.761719 608.601562 933.480469 608.601562 C 936.203125 608.601562 938.339844 610.738281 938.339844 613.464844 L 938.339844 687.386719 C 938.339844 690.113281 936.203125 692.25 933.480469 692.25 Z M 933.480469 692.25 " fill-opacity="1" fill-rule="nonzero"/><path fill="#000000" d="M 901.316406 692.25 C 898.597656 692.25 896.460938 690.113281 896.460938 687.386719 L 896.460938 613.464844 C 896.460938 610.738281 898.597656 608.601562 901.316406 608.601562 C 904.039062 608.601562 906.175781 610.738281 906.175781 613.464844 L 906.175781 687.386719 C 906.175781 690.113281 903.941406 692.25 901.316406 692.25 Z M 901.316406 692.25 " fill-opacity="1" fill-rule="nonzero"/><path fill="#000000" d="M 869.054688 692.25 C 866.335938 692.25 864.199219 690.113281 864.199219 687.386719 L 864.199219 613.464844 C 864.199219 610.738281 866.335938 608.601562 869.054688 608.601562 C 871.777344 608.601562 873.914062 610.738281 873.914062 613.464844 L 873.914062 687.386719 C 873.914062 690.113281 871.777344 692.25 869.054688 692.25 Z M 869.054688 692.25 " fill-opacity="1" fill-rule="nonzero"/><path fill="#000000" d="M 836.890625 692.25 C 834.171875 692.25 832.035156 690.113281 832.035156 687.386719 L 832.035156 613.464844 C 832.035156 610.738281 834.171875 608.601562 836.890625 608.601562 C 839.613281 608.601562 841.75 610.738281 841.75 613.464844 L 841.75 687.386719 C 841.75 690.113281 839.613281 692.25 836.890625 692.25 Z M 836.890625 692.25 " fill-opacity="1" fill-rule="nonzero"/><path fill="#000000" d="M 804.726562 692.25 C 802.007812 692.25 799.871094 690.113281 799.871094 687.386719 L 799.871094 613.464844 C 799.871094 610.738281 802.007812 608.601562 804.726562 608.601562 C 807.449219 608.601562 809.585938 610.738281 809.585938 613.464844 L 809.585938 687.386719 C 809.585938 690.113281 807.449219 692.25 804.726562 692.25 Z M 804.726562 692.25 " fill-opacity="1" fill-rule="nonzero"/><path fill="#000000" d="M 772.5625 692.25 C 769.84375 692.25 767.703125 690.113281 767.703125 687.386719 L 767.703125 613.464844 C 767.703125 610.738281 769.84375 608.601562 772.5625 608.601562 C 775.285156 608.601562 777.421875 610.738281 777.421875 613.464844 L 777.421875 687.386719 C 777.421875 690.113281 775.1875 692.25 772.5625 692.25 Z M 772.5625 692.25 " fill-opacity="1" fill-rule="nonzero"/><path fill="#000000" d="M 740.398438 692.25 C 737.679688 692.25 735.539062 690.113281 735.539062 687.386719 L 735.539062 613.464844 C 735.539062 610.738281 737.679688 608.601562 740.398438 608.601562 C 743.121094 608.601562 745.257812 610.738281 745.257812 613.464844 L 745.257812 687.386719 C 745.257812 690.113281 743.023438 692.25 740.398438 692.25 Z M 740.398438 692.25 " fill-opacity="1" fill-rule="nonzero"/><path fill="#115876" d="M 535.851562 650.425781 C 535.851562 662.390625 526.230469 672.019531 514.472656 672.019531 C 502.519531 672.019531 493.09375 662.390625 493.09375 650.425781 C 493.09375 638.65625 502.519531 629.027344 514.472656 629.027344 C 526.230469 629.027344 535.851562 638.65625 535.851562 650.425781 Z M 535.851562 650.425781 " fill-opacity="1" fill-rule="nonzero"/><path fill="#000000" d="M 514.472656 676.785156 C 499.992188 676.785156 488.234375 664.917969 488.234375 650.328125 C 488.234375 635.835938 499.992188 624.066406 514.472656 624.066406 C 528.953125 624.066406 540.710938 635.835938 540.710938 650.328125 C 540.710938 664.917969 528.953125 676.785156 514.472656 676.785156 Z M 514.472656 633.792969 C 505.339844 633.792969 497.953125 641.183594 497.953125 650.328125 C 497.953125 659.570312 505.339844 667.058594 514.472656 667.058594 C 523.605469 667.058594 530.992188 659.570312 530.992188 650.328125 C 530.992188 641.28125 523.605469 633.792969 514.472656 633.792969 Z M 514.472656 633.792969 " fill-opacity="1" fill-rule="nonzero"/><path fill="#fdd9b7" d="M 612.519531 650.425781 C 612.519531 662.390625 622.140625 672.019531 633.898438 672.019531 C 645.851562 672.019531 655.277344 662.390625 655.277344 650.425781 C 655.277344 638.65625 645.851562 629.027344 633.898438 629.027344 C 622.140625 629.027344 612.519531 638.65625 612.519531 650.425781 Z M 612.519531 650.425781 " fill-opacity="1" fill-rule="nonzero"/><path fill="#000000" d="M 633.898438 676.785156 C 619.417969 676.785156 607.660156 664.917969 607.660156 650.328125 C 607.660156 635.835938 619.417969 624.066406 633.898438 624.066406 C 648.375 624.066406 660.132812 635.835938 660.132812 650.328125 C 660.132812 664.917969 648.375 676.785156 633.898438 676.785156 Z M 633.898438 633.792969 C 624.761719 633.792969 617.378906 641.183594 617.378906 650.328125 C 617.378906 659.570312 624.761719 667.058594 633.898438 667.058594 C 643.03125 667.058594 650.417969 659.570312 650.417969 650.328125 C 650.417969 641.28125 643.03125 633.792969 633.898438 633.792969 Z M 633.898438 633.792969 " fill-opacity="1" fill-rule="nonzero"/><path fill="#f15853" d="M 552.855469 650.425781 C 552.855469 662.390625 562.476562 672.019531 574.234375 672.019531 C 586.1875 672.019531 595.613281 662.390625 595.613281 650.425781 C 595.613281 638.65625 586.1875 629.027344 574.234375 629.027344 C 562.476562 629.027344 552.855469 638.65625 552.855469 650.425781 Z M 552.855469 650.425781 " fill-opacity="1" fill-rule="nonzero"/><path fill="#000000" d="M 574.234375 676.785156 C 559.753906 676.785156 547.996094 664.917969 547.996094 650.328125 C 547.996094 635.835938 559.753906 624.066406 574.234375 624.066406 C 588.710938 624.066406 600.46875 635.835938 600.46875 650.328125 C 600.46875 664.917969 588.710938 676.785156 574.234375 676.785156 Z M 574.234375 633.792969 C 565.097656 633.792969 557.714844 641.183594 557.714844 650.328125 C 557.714844 659.570312 565.097656 667.058594 574.234375 667.058594 C 583.367188 667.058594 590.753906 659.570312 590.753906 650.328125 C 590.753906 641.28125 583.269531 633.792969 574.234375 633.792969 Z M 574.234375 633.792969 " fill-opacity="1" fill-rule="nonzero"/><path fill="#ffffff" d="M 907.632812 586.132812 L 478.421875 586.132812 C 466.664062 586.132812 457.140625 595.664062 457.140625 607.433594 L 457.140625 689.429688 L 829.019531 689.429688 C 872.457031 689.429688 907.632812 654.21875 907.632812 610.738281 Z M 907.632812 586.132812 " fill-opacity="0.15" fill-rule="nonzero"/><path fill="#ffffff" d="M 836.210938 586.132812 L 478.421875 586.132812 C 466.664062 586.132812 457.140625 595.664062 457.140625 607.433594 L 457.140625 658.597656 L 763.816406 658.597656 C 803.757812 658.597656 836.210938 626.109375 836.210938 586.132812 Z M 836.210938 586.132812 " fill-opacity="0.15" fill-rule="nonzero"/><path fill="#54b8ea" d="M 970.992188 438.085938 L 970.992188 526.699219 C 970.992188 538.46875 961.46875 548 949.710938 548 L 478.421875 548 C 466.664062 548 457.140625 538.46875 457.140625 526.699219 L 457.140625 438.085938 C 457.140625 426.316406 466.664062 416.785156 478.421875 416.785156 L 949.710938 416.785156 C 961.46875 416.6875 970.992188 426.316406 970.992188 438.085938 Z M 970.992188 438.085938 " fill-opacity="1" fill-rule="nonzero"/><path fill="#000000" d="M 949.710938 552.863281 L 478.421875 552.863281 C 463.941406 552.863281 452.28125 541.09375 452.28125 526.699219 L 452.28125 438.085938 C 452.28125 423.59375 464.039062 411.921875 478.421875 411.921875 L 949.710938 411.921875 C 964.1875 411.921875 975.847656 423.691406 975.847656 438.085938 L 975.847656 526.699219 C 975.847656 541.09375 964.089844 552.863281 949.710938 552.863281 Z M 478.421875 421.550781 C 469.382812 421.550781 462 428.945312 462 437.988281 L 462 526.601562 C 462 535.648438 469.382812 543.039062 478.421875 543.039062 L 949.710938 543.039062 C 958.746094 543.039062 966.132812 535.648438 966.132812 526.601562 L 966.132812 437.988281 C 966.132812 428.945312 958.746094 421.550781 949.710938 421.550781 Z M 478.421875 421.550781 " fill-opacity="1" fill-rule="nonzero"/><path fill="#115876" d="M 535.851562 482.246094 C 535.851562 494.210938 526.230469 503.839844 514.472656 503.839844 C 502.519531 503.839844 493.09375 494.210938 493.09375 482.246094 C 493.09375 470.476562 502.519531 460.847656 514.472656 460.847656 C 526.230469 460.847656 535.851562 470.476562 535.851562 482.246094 Z M 535.851562 482.246094 " fill-opacity="1" fill-rule="nonzero"/><path fill="#fdd9b7" d="M 612.519531 482.246094 C 612.519531 494.210938 622.140625 503.839844 633.898438 503.839844 C 645.851562 503.839844 655.277344 494.210938 655.277344 482.246094 C 655.277344 470.476562 645.851562 460.847656 633.898438 460.847656 C 622.140625 460.847656 612.519531 470.476562 612.519531 482.246094 Z M 612.519531 482.246094 " fill-opacity="1" fill-rule="nonzero"/><path fill="#f15853" d="M 552.855469 482.246094 C 552.855469 494.210938 562.476562 503.839844 574.234375 503.839844 C 586.1875 503.839844 595.613281 494.210938 595.613281 482.246094 C 595.613281 470.476562 586.1875 460.847656 574.234375 460.847656 C 562.476562 460.847656 552.855469 470.476562 552.855469 482.246094 Z M 552.855469 482.246094 " fill-opacity="1" fill-rule="nonzero"/><path fill="#000000" d="M 933.480469 524.171875 C 930.761719 524.171875 928.625 522.03125 928.625 519.308594 L 928.625 445.382812 C 928.625 442.660156 930.761719 440.519531 933.480469 440.519531 C 936.203125 440.519531 938.339844 442.660156 938.339844 445.382812 L 938.339844 519.308594 C 938.339844 522.03125 936.203125 524.171875 933.480469 524.171875 Z M 933.480469 524.171875 " fill-opacity="1" fill-rule="nonzero"/><path fill="#000000" d="M 901.316406 524.171875 C 898.597656 524.171875 896.460938 522.03125 896.460938 519.308594 L 896.460938 445.382812 C 896.460938 442.660156 898.597656 440.519531 901.316406 440.519531 C 904.039062 440.519531 906.175781 442.660156 906.175781 445.382812 L 906.175781 519.308594 C 906.175781 522.03125 903.941406 524.171875 901.316406 524.171875 Z M 901.316406 524.171875 " fill-opacity="1" fill-rule="nonzero"/><path fill="#000000" d="M 869.054688 524.171875 C 866.335938 524.171875 864.199219 522.03125 864.199219 519.308594 L 864.199219 445.382812 C 864.199219 442.660156 866.335938 440.519531 869.054688 440.519531 C 871.777344 440.519531 873.914062 442.660156 873.914062 445.382812 L 873.914062 519.308594 C 873.914062 522.03125 871.777344 524.171875 869.054688 524.171875 Z M 869.054688 524.171875 " fill-opacity="1" fill-rule="nonzero"/><path fill="#000000" d="M 836.890625 524.171875 C 834.171875 524.171875 832.035156 522.03125 832.035156 519.308594 L 832.035156 445.382812 C 832.035156 442.660156 834.171875 440.519531 836.890625 440.519531 C 839.613281 440.519531 841.75 442.660156 841.75 445.382812 L 841.75 519.308594 C 841.75 522.03125 839.613281 524.171875 836.890625 524.171875 Z M 836.890625 524.171875 " fill-opacity="1" fill-rule="nonzero"/><path fill="#000000" d="M 804.726562 524.171875 C 802.007812 524.171875 799.871094 522.03125 799.871094 519.308594 L 799.871094 445.382812 C 799.871094 442.660156 802.007812 440.519531 804.726562 440.519531 C 807.449219 440.519531 809.585938 442.660156 809.585938 445.382812 L 809.585938 519.308594 C 809.585938 522.03125 807.449219 524.171875 804.726562 524.171875 Z M 804.726562 524.171875 " fill-opacity="1" fill-rule="nonzero"/><path fill="#000000" d="M 772.5625 524.171875 C 769.84375 524.171875 767.703125 522.03125 767.703125 519.308594 L 767.703125 445.382812 C 767.703125 442.660156 769.84375 440.519531 772.5625 440.519531 C 775.285156 440.519531 777.421875 442.660156 777.421875 445.382812 L 777.421875 519.308594 C 777.421875 522.03125 775.1875 524.171875 772.5625 524.171875 Z M 772.5625 524.171875 " fill-opacity="1" fill-rule="nonzero"/><path fill="#000000" d="M 740.398438 524.171875 C 737.679688 524.171875 735.539062 522.03125 735.539062 519.308594 L 735.539062 445.382812 C 735.539062 442.660156 737.679688 440.519531 740.398438 440.519531 C 743.121094 440.519531 745.257812 442.660156 745.257812 445.382812 L 745.257812 519.308594 C 745.257812 522.03125 743.023438 524.171875 740.398438 524.171875 Z M 740.398438 524.171875 " fill-opacity="1" fill-rule="nonzero"/><path fill="#115876" d="M 535.851562 482.246094 C 535.851562 494.210938 526.230469 503.839844 514.472656 503.839844 C 502.519531 503.839844 493.09375 494.210938 493.09375 482.246094 C 493.09375 470.476562 502.519531 460.847656 514.472656 460.847656 C 526.230469 460.847656 535.851562 470.476562 535.851562 482.246094 Z M 535.851562 482.246094 " fill-opacity="1" fill-rule="nonzero"/><path fill="#000000" d="M 514.472656 508.703125 C 499.992188 508.703125 488.234375 496.835938 488.234375 482.246094 C 488.234375 467.753906 499.992188 455.984375 514.472656 455.984375 C 528.953125 455.984375 540.710938 467.753906 540.710938 482.246094 C 540.710938 496.835938 528.953125 508.703125 514.472656 508.703125 Z M 514.472656 465.710938 C 505.339844 465.710938 497.953125 473.105469 497.953125 482.246094 C 497.953125 491.488281 505.339844 498.976562 514.472656 498.976562 C 523.605469 498.976562 530.992188 491.488281 530.992188 482.246094 C 530.992188 473.203125 523.605469 465.710938 514.472656 465.710938 Z M 514.472656 465.710938 " fill-opacity="1" fill-rule="nonzero"/><path fill="#fdd9b7" d="M 612.519531 482.246094 C 612.519531 494.210938 622.140625 503.839844 633.898438 503.839844 C 645.851562 503.839844 655.277344 494.210938 655.277344 482.246094 C 655.277344 470.476562 645.851562 460.847656 633.898438 460.847656 C 622.140625 460.847656 612.519531 470.476562 612.519531 482.246094 Z M 612.519531 482.246094 " fill-opacity="1" fill-rule="nonzero"/><path fill="#000000" d="M 633.898438 508.703125 C 619.417969 508.703125 607.660156 496.835938 607.660156 482.246094 C 607.660156 467.753906 619.417969 455.984375 633.898438 455.984375 C 648.375 455.984375 660.132812 467.753906 660.132812 482.246094 C 660.132812 496.835938 648.375 508.703125 633.898438 508.703125 Z M 633.898438 465.710938 C 624.761719 465.710938 617.378906 473.105469 617.378906 482.246094 C 617.378906 491.488281 624.761719 498.976562 633.898438 498.976562 C 643.03125 498.976562 650.417969 491.488281 650.417969 482.246094 C 650.417969 473.203125 643.03125 465.710938 633.898438 465.710938 Z M 633.898438 465.710938 " fill-opacity="1" fill-rule="nonzero"/><path fill="#f15853" d="M 552.855469 482.246094 C 552.855469 494.210938 562.476562 503.839844 574.234375 503.839844 C 586.1875 503.839844 595.613281 494.210938 595.613281 482.246094 C 595.613281 470.476562 586.1875 460.847656 574.234375 460.847656 C 562.476562 460.847656 552.855469 470.476562 552.855469 482.246094 Z M 552.855469 482.246094 " fill-opacity="1" fill-rule="nonzero"/><path fill="#000000" d="M 574.234375 508.703125 C 559.753906 508.703125 547.996094 496.835938 547.996094 482.246094 C 547.996094 467.753906 559.753906 455.984375 574.234375 455.984375 C 588.710938 455.984375 600.46875 467.753906 600.46875 482.246094 C 600.46875 496.835938 588.710938 508.703125 574.234375 508.703125 Z M 574.234375 465.710938 C 565.097656 465.710938 557.714844 473.105469 557.714844 482.246094 C 557.714844 491.488281 565.097656 498.976562 574.234375 498.976562 C 583.367188 498.976562 590.753906 491.488281 590.753906 482.246094 C 590.753906 473.203125 583.269531 465.710938 574.234375 465.710938 Z M 574.234375 465.710938 " fill-opacity="1" fill-rule="nonzero"/><path fill="#ffffff" d="M 907.632812 416.6875 L 478.421875 416.6875 C 466.664062 416.6875 457.140625 426.21875 457.140625 437.988281 L 457.140625 519.988281 L 829.019531 519.988281 C 872.457031 519.988281 907.632812 484.777344 907.632812 441.296875 Z M 907.632812 416.6875 " fill-opacity="0.15" fill-rule="nonzero"/><path fill="#ffffff" d="M 836.210938 416.6875 L 478.421875 416.6875 C 466.664062 416.6875 457.140625 426.21875 457.140625 437.988281 L 457.140625 489.152344 L 763.816406 489.152344 C 803.757812 489.25 836.210938 456.761719 836.210938 416.6875 Z M 836.210938 416.6875 " fill-opacity="0.15" fill-rule="nonzero"/></svg>