<svg xmlns="http://www.w3.org/2000/svg" xmlns:xlink="http://www.w3.org/1999/xlink" width="1920" zoomAndPan="magnify" viewBox="0 0 1440 809.999993" height="1080" preserveAspectRatio="xMidYMid meet" version="1.0"><path fill="#caddff" d="M 1026.65625 208.519531 C 1005.476562 165.761719 963.15625 142.65625 936.914062 128.328125 C 823.464844 66.394531 668.914062 82.878906 566.191406 140.632812 C 464.796875 197.636719 376.429688 332.601562 413.472656 479.242188 C 450.65625 626.445312 595.378906 702.140625 704.84375 718.183594 C 878.65625 743.667969 1024.699219 627.734375 1032.691406 587.503906 C 1035.160156 575.09375 1034.515625 564.097656 1034.515625 564.097656 C 1031.433594 535.054688 1007.550781 517.796875 1001.992188 451.597656 C 991.746094 329.796875 1063.804688 283.507812 1026.65625 208.519531 " fill-opacity="1" fill-rule="nonzero"/><path fill="#000000" d="M 628.203125 565.484375 C 629.210938 564.929688 630.226562 564.390625 631.257812 563.875 C 640.324219 559.339844 650.109375 555.957031 659.625 552.5 C 694.878906 539.699219 731.214844 530.277344 767.132812 519.589844 C 779.847656 515.804688 792.558594 512.082031 805.347656 508.601562 C 854.589844 405.316406 943.140625 217.167969 934.878906 217.167969 L 455.816406 198.667969 C 444.421875 198.667969 435.152344 207.941406 435.152344 219.335938 L 435.152344 553.945312 C 435.152344 565.347656 444.421875 574.617188 455.816406 574.617188 L 628.917969 562.886719 L 628.203125 565.484375 " fill-opacity="1" fill-rule="nonzero"/><path fill="#ffffff" d="M 770.621094 531.84375 L 648.457031 531.84375 L 613.800781 658.402344 L 805.273438 658.402344 L 770.621094 531.84375 " fill-opacity="1" fill-rule="nonzero"/><path fill="#000000" d="M 615.296875 657.261719 L 803.777344 657.261719 L 769.746094 532.984375 L 649.328125 532.984375 Z M 805.273438 659.546875 L 613.800781 659.546875 C 613.441406 659.546875 613.105469 659.378906 612.890625 659.097656 C 612.675781 658.8125 612.605469 658.445312 612.695312 658.101562 L 647.351562 531.539062 C 647.492188 531.042969 647.941406 530.699219 648.457031 530.699219 L 770.621094 530.699219 C 771.132812 530.699219 771.585938 531.042969 771.722656 531.539062 L 806.378906 658.101562 C 806.472656 658.445312 806.402344 658.8125 806.183594 659.097656 C 805.96875 659.378906 805.632812 659.546875 805.273438 659.546875 " fill-opacity="1" fill-rule="nonzero"/><path fill="#ffffff" d="M 953.429688 199.835938 L 465.644531 199.835938 C 454.878906 199.835938 446.152344 208.570312 446.152344 219.339844 L 446.152344 553.945312 C 446.152344 564.71875 454.878906 573.449219 465.644531 573.449219 L 953.429688 573.449219 C 964.195312 573.449219 972.925781 564.71875 972.925781 553.945312 L 972.925781 219.339844 C 972.925781 208.570312 964.195312 199.835938 953.429688 199.835938 " fill-opacity="1" fill-rule="nonzero"/><path fill="#000000" d="M 465.644531 200.980469 C 455.527344 200.980469 447.292969 209.21875 447.292969 219.339844 L 447.292969 553.945312 C 447.292969 564.070312 455.527344 572.308594 465.644531 572.308594 L 953.429688 572.308594 C 963.550781 572.308594 971.78125 564.070312 971.78125 553.945312 L 971.78125 219.339844 C 971.78125 209.21875 963.550781 200.980469 953.429688 200.980469 Z M 953.429688 574.59375 L 465.644531 574.59375 C 454.265625 574.59375 445.007812 565.332031 445.007812 553.945312 L 445.007812 219.339844 C 445.007812 207.953125 454.265625 198.691406 465.644531 198.691406 L 953.429688 198.691406 C 964.8125 198.691406 974.070312 207.953125 974.070312 219.339844 L 974.070312 553.945312 C 974.070312 565.332031 964.8125 574.59375 953.429688 574.59375 " fill-opacity="1" fill-rule="nonzero"/><path fill="#ffffff" d="M 826.070312 645.402344 L 593.007812 645.402344 C 586.308594 645.402344 580.878906 650.832031 580.878906 657.535156 C 580.878906 664.238281 586.308594 669.671875 593.007812 669.671875 L 826.070312 669.671875 C 832.769531 669.671875 838.199219 664.238281 838.199219 657.535156 C 838.199219 650.832031 832.769531 645.402344 826.070312 645.402344 " fill-opacity="1" fill-rule="nonzero"/><path fill="#000000" d="M 593.007812 646.542969 C 586.949219 646.542969 582.019531 651.476562 582.019531 657.535156 C 582.019531 663.59375 586.949219 668.527344 593.007812 668.527344 L 826.070312 668.527344 C 832.128906 668.527344 837.054688 663.59375 837.054688 657.535156 C 837.054688 651.476562 832.128906 646.542969 826.070312 646.542969 Z M 826.070312 670.816406 L 593.007812 670.816406 C 585.6875 670.816406 579.734375 664.855469 579.734375 657.535156 C 579.734375 650.214844 585.6875 644.253906 593.007812 644.253906 L 826.070312 644.253906 C 833.386719 644.253906 839.34375 650.214844 839.34375 657.535156 C 839.34375 664.855469 833.386719 670.816406 826.070312 670.816406 " fill-opacity="1" fill-rule="nonzero"/><path fill="#ffffff" d="M 945.902344 217.175781 L 473.171875 217.175781 C 467.816406 217.175781 463.480469 221.519531 463.480469 226.875 L 463.480469 546.417969 C 463.480469 551.773438 467.816406 556.113281 473.171875 556.113281 L 945.902344 556.113281 C 951.253906 556.113281 955.597656 551.773438 955.597656 546.417969 L 955.597656 226.875 C 955.597656 221.519531 951.253906 217.175781 945.902344 217.175781 " fill-opacity="1" fill-rule="nonzero"/><path fill="#000000" d="M 473.171875 218.3125 C 468.457031 218.3125 464.625 222.152344 464.625 226.871094 L 464.625 546.414062 C 464.625 551.132812 468.457031 554.96875 473.171875 554.96875 L 945.90625 554.96875 C 950.621094 554.96875 954.460938 551.132812 954.460938 546.414062 L 954.460938 226.871094 C 954.460938 222.152344 950.621094 218.3125 945.90625 218.3125 Z M 945.90625 557.257812 L 473.171875 557.257812 C 467.199219 557.257812 462.335938 552.394531 462.335938 546.414062 L 462.335938 226.871094 C 462.335938 220.890625 467.199219 216.027344 473.171875 216.027344 L 945.90625 216.027344 C 951.882812 216.027344 956.742188 220.890625 956.742188 226.871094 L 956.742188 546.414062 C 956.742188 552.394531 951.882812 557.257812 945.90625 557.257812 " fill-opacity="1" fill-rule="nonzero"/><path fill="#ffffff" d="M 887.71875 554.84375 L 522.960938 554.84375 L 522.960938 109.542969 L 887.71875 109.542969 L 887.71875 554.84375 " fill-opacity="1" fill-rule="nonzero"/><path fill="#000000" d="M 524.105469 553.699219 L 886.574219 553.699219 L 886.574219 110.683594 L 524.105469 110.683594 Z M 887.722656 555.988281 L 522.960938 555.988281 C 522.328125 555.988281 521.820312 555.472656 521.820312 554.84375 L 521.820312 109.542969 C 521.820312 108.910156 522.328125 108.398438 522.960938 108.398438 L 887.722656 108.398438 C 888.351562 108.398438 888.859375 108.910156 888.859375 109.542969 L 888.859375 554.84375 C 888.859375 555.472656 888.351562 555.988281 887.722656 555.988281 " fill-opacity="1" fill-rule="nonzero"/><path fill="#99b9ff" d="M 725.976562 147.269531 L 549.894531 147.269531 L 549.894531 136.152344 L 725.976562 136.152344 L 725.976562 147.269531 " fill-opacity="1" fill-rule="nonzero"/><path fill="#caddff" d="M 814.945312 166.578125 L 609.125 166.578125 L 609.125 155.007812 L 814.945312 155.007812 L 814.945312 166.578125 " fill-opacity="1" fill-rule="nonzero"/><path fill="#caddff" d="M 860.78125 185.652344 L 654.960938 185.652344 L 654.960938 174.082031 L 860.78125 174.082031 L 860.78125 185.652344 " fill-opacity="1" fill-rule="nonzero"/><path fill="#caddff" d="M 835.964844 204.734375 L 729.582031 204.734375 L 729.582031 193.160156 L 835.964844 193.160156 L 835.964844 204.734375 " fill-opacity="1" fill-rule="nonzero"/><path fill="#99b9ff" d="M 725.976562 299.886719 L 549.894531 299.886719 L 549.894531 288.769531 L 725.976562 288.769531 L 725.976562 299.886719 " fill-opacity="1" fill-rule="nonzero"/><path fill="#caddff" d="M 814.945312 319.191406 L 609.125 319.191406 L 609.125 307.621094 L 814.945312 307.621094 L 814.945312 319.191406 " fill-opacity="1" fill-rule="nonzero"/><path fill="#caddff" d="M 860.78125 338.269531 L 654.960938 338.269531 L 654.960938 326.699219 L 860.78125 326.699219 L 860.78125 338.269531 " fill-opacity="1" fill-rule="nonzero"/><path fill="#caddff" d="M 860.78125 357.347656 L 729.582031 357.347656 L 729.582031 345.773438 L 860.78125 345.773438 L 860.78125 357.347656 " fill-opacity="1" fill-rule="nonzero"/><path fill="#caddff" d="M 814.945312 223.804688 L 609.125 223.804688 L 609.125 212.234375 L 814.945312 212.234375 L 814.945312 223.804688 " fill-opacity="1" fill-rule="nonzero"/><path fill="#caddff" d="M 860.78125 242.886719 L 654.960938 242.886719 L 654.960938 231.316406 L 860.78125 231.316406 L 860.78125 242.886719 " fill-opacity="1" fill-rule="nonzero"/><path fill="#caddff" d="M 811.144531 281.039062 L 729.582031 281.039062 L 729.582031 269.46875 L 811.144531 269.46875 L 811.144531 281.039062 " fill-opacity="1" fill-rule="nonzero"/><path fill="#caddff" d="M 860.785156 261.957031 L 729.582031 261.957031 L 729.582031 250.386719 L 860.785156 250.386719 L 860.785156 261.957031 " fill-opacity="1" fill-rule="nonzero"/><path fill="#99b9ff" d="M 725.976562 376.195312 L 549.894531 376.195312 L 549.894531 365.078125 L 725.976562 365.078125 L 725.976562 376.195312 " fill-opacity="1" fill-rule="nonzero"/><path fill="#caddff" d="M 814.945312 395.5 L 609.125 395.5 L 609.125 383.929688 L 814.945312 383.929688 L 814.945312 395.5 " fill-opacity="1" fill-rule="nonzero"/><path fill="#caddff" d="M 854.167969 414.574219 L 654.964844 414.574219 L 654.964844 403.003906 L 854.167969 403.003906 L 854.167969 414.574219 " fill-opacity="1" fill-rule="nonzero"/><path fill="#99b9ff" d="M 860.78125 433.652344 L 729.582031 433.652344 L 729.582031 422.082031 L 860.78125 422.082031 L 860.78125 433.652344 " fill-opacity="1" fill-rule="nonzero"/><path fill="#99b9ff" d="M 766.175781 529.035156 L 654.960938 529.035156 L 654.960938 517.46875 L 766.175781 517.46875 L 766.175781 529.035156 " fill-opacity="1" fill-rule="nonzero"/><path fill="#caddff" d="M 814.945312 452.730469 L 609.125 452.730469 L 609.125 441.160156 L 814.945312 441.160156 L 814.945312 452.730469 " fill-opacity="1" fill-rule="nonzero"/><path fill="#caddff" d="M 860.78125 471.804688 L 654.960938 471.804688 L 654.960938 460.238281 L 860.78125 460.238281 L 860.78125 471.804688 " fill-opacity="1" fill-rule="nonzero"/><path fill="#caddff" d="M 860.78125 509.957031 L 729.582031 509.957031 L 729.582031 498.386719 L 860.78125 498.386719 L 860.78125 509.957031 " fill-opacity="1" fill-rule="nonzero"/><path fill="#caddff" d="M 804.695312 490.882812 L 729.582031 490.882812 L 729.582031 479.3125 L 804.695312 479.3125 L 804.695312 490.882812 " fill-opacity="1" fill-rule="nonzero"/><path fill="#5479f7" d="M 829.507812 199.152344 C 812.023438 209.28125 789.644531 203.308594 779.523438 185.8125 C 769.402344 168.316406 775.375 145.925781 792.859375 135.800781 C 810.34375 125.675781 832.722656 131.652344 842.84375 149.148438 C 852.964844 166.640625 846.996094 189.03125 829.507812 199.152344 Z M 878.363281 136.789062 L 871.25 124.484375 L 856.4375 129.117188 C 854.277344 126.5625 851.9375 124.214844 849.441406 122.105469 L 854.03125 107.289062 L 841.714844 100.199219 L 831.195312 111.617188 C 828.085938 110.507812 824.890625 109.652344 821.640625 109.070312 L 818.207031 93.921875 L 804 93.933594 L 800.605469 109.070312 C 797.390625 109.652344 794.195312 110.519531 791.046875 111.660156 L 780.511719 100.261719 L 768.207031 107.386719 L 772.839844 122.203125 C 770.289062 124.367188 767.941406 126.703125 765.832031 129.207031 L 751.027344 124.613281 L 743.9375 136.933594 L 755.355469 147.453125 C 754.242188 150.566406 753.390625 153.761719 752.804688 157.015625 L 737.667969 160.449219 L 737.679688 174.664062 L 752.804688 178.0625 C 753.390625 181.285156 754.253906 184.480469 755.394531 187.625 L 744 198.167969 L 751.117188 210.476562 L 765.933594 205.847656 C 768.09375 208.398438 770.429688 210.742188 772.933594 212.851562 L 768.339844 227.664062 L 780.652344 234.761719 L 791.171875 223.335938 C 794.28125 224.449219 797.476562 225.304688 800.726562 225.890625 L 804.15625 241.039062 L 818.367188 241.019531 L 821.765625 225.886719 C 824.984375 225.308594 828.175781 224.4375 831.320312 223.300781 L 841.859375 234.699219 L 854.15625 227.574219 L 849.53125 212.75 C 852.085938 210.59375 854.425781 208.253906 856.539062 205.753906 L 871.339844 210.347656 L 878.433594 198.027344 L 867.019531 187.5 C 868.132812 184.390625 868.984375 181.191406 869.566406 177.945312 L 884.707031 174.511719 L 884.6875 160.289062 L 869.566406 156.894531 C 868.984375 153.675781 868.113281 150.476562 866.972656 147.332031 L 878.363281 136.789062 " fill-opacity="1" fill-rule="nonzero"/><path fill="#000000" d="M 804.367188 130.226562 C 798.34375 130.226562 792.25 131.761719 786.675781 134.992188 C 769.765625 144.785156 763.96875 166.515625 773.757812 183.4375 C 778.5 191.632812 786.148438 197.496094 795.292969 199.9375 C 804.441406 202.375 813.988281 201.109375 822.179688 196.363281 C 830.375 191.621094 836.226562 183.96875 838.671875 174.8125 C 841.109375 165.664062 839.84375 156.113281 835.101562 147.917969 C 828.539062 136.574219 816.613281 130.226562 804.367188 130.226562 Z M 804.488281 203.4375 C 801.230469 203.4375 797.941406 203.007812 794.703125 202.144531 C 784.96875 199.546875 776.828125 193.308594 771.777344 184.582031 C 761.359375 166.574219 767.53125 143.433594 785.53125 133.011719 C 803.535156 122.585938 826.664062 128.757812 837.078125 146.765625 C 842.125 155.496094 843.476562 165.664062 840.878906 175.40625 C 838.28125 185.144531 832.042969 193.292969 823.324219 198.34375 C 817.503906 201.710938 811.042969 203.4375 804.488281 203.4375 Z M 784.417969 220.390625 C 784.546875 220.390625 784.675781 220.414062 784.804688 220.460938 C 787.84375 221.550781 790.996094 222.386719 794.171875 222.960938 C 794.625 223.042969 794.980469 223.386719 795.085938 223.835938 L 798.320312 238.089844 L 810.699219 238.074219 L 813.894531 223.835938 C 813.996094 223.386719 814.355469 223.042969 814.804688 222.960938 C 817.933594 222.394531 821.085938 221.539062 824.171875 220.417969 C 824.609375 220.261719 825.09375 220.382812 825.402344 220.71875 L 835.324219 231.445312 L 846.039062 225.238281 L 841.683594 211.292969 C 841.546875 210.851562 841.6875 210.371094 842.035156 210.078125 C 844.542969 207.957031 846.855469 205.644531 848.90625 203.214844 C 849.203125 202.863281 849.679688 202.71875 850.117188 202.855469 L 864.050781 207.179688 L 870.234375 196.445312 L 859.484375 186.542969 C 859.148438 186.230469 859.027344 185.746094 859.183594 185.3125 C 860.269531 182.273438 861.113281 179.121094 861.683594 175.9375 C 861.765625 175.488281 862.109375 175.125 862.558594 175.023438 L 876.804688 171.792969 L 876.792969 159.40625 L 862.558594 156.210938 C 862.109375 156.109375 861.765625 155.746094 861.683594 155.292969 C 861.117188 152.160156 860.261719 149.007812 859.144531 145.921875 C 858.988281 145.492188 859.105469 145.003906 859.445312 144.695312 L 870.164062 134.765625 L 863.964844 124.046875 L 850.023438 128.40625 C 849.582031 128.539062 849.101562 128.402344 848.804688 128.046875 C 846.691406 125.542969 844.378906 123.230469 841.945312 121.175781 C 841.597656 120.882812 841.453125 120.402344 841.59375 119.964844 L 845.914062 106.023438 L 835.183594 99.839844 L 825.285156 110.59375 C 824.972656 110.929688 824.488281 111.050781 824.058594 110.894531 C 821.015625 109.804688 817.859375 108.964844 814.683594 108.394531 C 814.230469 108.3125 813.875 107.96875 813.773438 107.519531 L 810.542969 93.265625 L 798.164062 93.277344 L 794.96875 107.519531 C 794.867188 107.964844 794.503906 108.3125 794.054688 108.394531 C 790.917969 108.964844 787.769531 109.816406 784.683594 110.929688 C 784.25 111.09375 783.769531 110.972656 783.457031 110.632812 L 773.535156 99.90625 L 762.816406 106.113281 L 767.171875 120.0625 C 767.3125 120.503906 767.171875 120.976562 766.820312 121.277344 C 764.316406 123.394531 762.007812 125.703125 759.953125 128.140625 C 759.652344 128.492188 759.175781 128.628906 758.738281 128.496094 L 744.804688 124.175781 L 738.628906 134.90625 L 749.371094 144.8125 C 749.707031 145.125 749.832031 145.609375 749.675781 146.039062 C 748.585938 149.085938 747.746094 152.238281 747.171875 155.414062 C 747.089844 155.867188 746.75 156.226562 746.300781 156.328125 L 732.054688 159.5625 L 732.066406 171.949219 L 746.300781 175.144531 C 746.75 175.246094 747.089844 175.605469 747.171875 176.054688 C 747.742188 179.191406 748.597656 182.347656 749.714844 185.433594 C 749.867188 185.863281 749.75 186.351562 749.414062 186.660156 L 738.695312 196.582031 L 744.894531 207.308594 L 758.839844 202.949219 C 759.277344 202.8125 759.753906 202.953125 760.050781 203.300781 C 762.171875 205.8125 764.476562 208.125 766.914062 210.175781 C 767.265625 210.472656 767.402344 210.949219 767.269531 211.390625 L 762.945312 225.328125 L 773.675781 231.511719 L 783.578125 220.761719 C 783.796875 220.523438 784.101562 220.390625 784.417969 220.390625 Z M 797.402344 240.378906 C 796.867188 240.378906 796.40625 240.007812 796.289062 239.484375 L 793.023438 225.074219 C 790.222656 224.535156 787.445312 223.792969 784.75 222.863281 L 774.738281 233.734375 C 774.378906 234.128906 773.792969 234.21875 773.328125 233.949219 L 761.019531 226.855469 C 760.550781 226.585938 760.335938 226.039062 760.496094 225.523438 L 764.863281 211.429688 C 762.730469 209.585938 760.691406 207.546875 758.800781 205.355469 L 744.707031 209.761719 C 744.199219 209.921875 743.644531 209.707031 743.375 209.246094 L 736.257812 196.941406 C 735.992188 196.480469 736.078125 195.894531 736.472656 195.527344 L 747.3125 185.492188 C 746.359375 182.765625 745.605469 179.984375 745.0625 177.214844 L 730.675781 173.980469 C 730.152344 173.863281 729.785156 173.398438 729.785156 172.863281 L 729.765625 158.644531 C 729.765625 158.117188 730.136719 157.652344 730.65625 157.535156 L 745.0625 154.265625 C 745.605469 151.464844 746.34375 148.6875 747.273438 145.984375 L 736.410156 135.96875 C 736.015625 135.609375 735.925781 135.023438 736.191406 134.558594 L 743.28125 122.238281 C 743.550781 121.777344 744.101562 121.558594 744.613281 121.71875 L 758.695312 126.089844 C 760.550781 123.953125 762.582031 121.917969 764.765625 120.027344 L 760.367188 105.921875 C 760.207031 105.414062 760.421875 104.859375 760.886719 104.589844 L 773.183594 97.46875 C 773.644531 97.203125 774.230469 97.289062 774.59375 97.683594 L 784.621094 108.527344 C 787.347656 107.574219 790.132812 106.824219 792.898438 106.285156 L 796.132812 91.882812 C 796.25 91.363281 796.710938 90.988281 797.246094 90.988281 L 811.457031 90.976562 C 811.988281 90.976562 812.453125 91.347656 812.570312 91.867188 L 815.839844 106.277344 C 818.632812 106.820312 821.414062 107.5625 824.113281 108.492188 L 834.117188 97.621094 C 834.480469 97.226562 835.070312 97.132812 835.53125 97.40625 L 847.84375 104.496094 C 848.308594 104.761719 848.527344 105.316406 848.367188 105.824219 L 844 119.925781 C 846.128906 121.769531 848.164062 123.808594 850.058594 125.996094 L 864.152344 121.585938 C 864.664062 121.429688 865.214844 121.648438 865.480469 122.109375 L 872.601562 134.414062 C 872.871094 134.875 872.78125 135.460938 872.390625 135.824219 L 861.546875 145.863281 C 862.503906 148.589844 863.253906 151.371094 863.792969 154.140625 L 878.183594 157.371094 C 878.707031 157.492188 879.074219 157.953125 879.074219 158.484375 L 879.089844 172.703125 C 879.089844 173.242188 878.722656 173.703125 878.199219 173.820312 L 863.792969 177.089844 C 863.253906 179.894531 862.515625 182.671875 861.585938 185.371094 L 872.453125 195.378906 C 872.847656 195.746094 872.9375 196.332031 872.667969 196.792969 L 865.574219 209.113281 C 865.308594 209.578125 864.753906 209.792969 864.25 209.632812 L 850.160156 205.265625 C 848.308594 207.398438 846.277344 209.433594 844.089844 211.328125 L 848.492188 225.433594 C 848.652344 225.941406 848.4375 226.496094 847.976562 226.761719 L 835.679688 233.886719 C 835.210938 234.152344 834.628906 234.0625 834.265625 233.671875 L 824.238281 222.828125 C 821.507812 223.777344 818.726562 224.53125 815.960938 225.070312 L 812.726562 239.46875 C 812.609375 239.988281 812.148438 240.359375 811.613281 240.359375 L 797.402344 240.378906 " fill-opacity="1" fill-rule="nonzero"/><path fill="#ffffff" d="M 908.894531 515.808594 L 908.355469 535.03125 L 899.269531 535.03125 L 896.214844 514.050781 L 908.894531 515.808594 " fill-opacity="1" fill-rule="nonzero"/><path fill="#000000" d="M 900.265625 533.886719 L 907.246094 533.886719 L 907.726562 516.800781 L 897.570312 515.386719 Z M 908.359375 536.171875 L 899.273438 536.171875 C 898.707031 536.171875 898.226562 535.757812 898.144531 535.195312 L 895.085938 514.210938 C 895.039062 513.855469 895.15625 513.496094 895.410156 513.242188 C 895.664062 512.984375 896.023438 512.863281 896.375 512.914062 L 909.058594 514.675781 C 909.632812 514.753906 910.058594 515.253906 910.039062 515.839844 L 909.503906 535.0625 C 909.484375 535.679688 908.976562 536.171875 908.359375 536.171875 " fill-opacity="1" fill-rule="nonzero"/><path fill="#000000" d="M 862.007812 551.070312 L 909.136719 551.070312 C 911.597656 551.070312 913.476562 548.898438 913.121094 546.46875 C 912.308594 540.957031 910.878906 532.007812 909.640625 528.359375 C 907.800781 522.910156 901.832031 531.59375 901.832031 531.59375 L 898.34375 528.652344 C 898.34375 528.652344 867.277344 537.757812 860.148438 547.339844 C 858.996094 548.878906 860.082031 551.070312 862.007812 551.070312 " fill-opacity="1" fill-rule="nonzero"/><path fill="#ffffff" d="M 908.894531 548.628906 L 864.867188 548.628906 C 864.234375 548.628906 863.722656 548.117188 863.722656 547.484375 C 863.722656 546.855469 864.234375 546.339844 864.867188 546.339844 L 908.894531 546.339844 C 909.527344 546.339844 910.035156 546.855469 910.035156 547.484375 C 910.035156 548.117188 909.527344 548.628906 908.894531 548.628906 " fill-opacity="1" fill-rule="nonzero"/><path fill="#ffffff" d="M 976.242188 495.371094 L 993.515625 517.261719 L 1002.660156 510.40625 L 987.867188 486.253906 L 976.242188 495.371094 " fill-opacity="1" fill-rule="nonzero"/><path fill="#000000" d="M 977.855469 495.5625 L 993.726562 515.679688 L 1001.144531 510.113281 L 987.570312 487.945312 Z M 993.523438 518.40625 C 993.1875 518.40625 992.847656 518.253906 992.625 517.96875 L 975.347656 496.078125 C 975.164062 495.839844 975.074219 495.535156 975.109375 495.234375 C 975.148438 494.933594 975.304688 494.65625 975.539062 494.46875 L 987.171875 485.355469 C 987.429688 485.152344 987.757812 485.070312 988.078125 485.128906 C 988.398438 485.1875 988.679688 485.378906 988.851562 485.65625 L 1003.636719 509.804688 C 1003.949219 510.3125 1003.820312 510.964844 1003.351562 511.320312 L 994.207031 518.175781 C 994.003906 518.328125 993.761719 518.40625 993.523438 518.40625 " fill-opacity="1" fill-rule="nonzero"/><path fill="#000000" d="M 975.261719 549.234375 C 983.179688 545.535156 1003.546875 535.179688 1015.058594 521.648438 C 1016.097656 520.433594 1016.121094 518.652344 1015.160156 517.375 C 1012.707031 514.109375 1007.734375 508.066406 1002.664062 505.257812 C 1002.664062 505.257812 992.34375 508.847656 995.113281 513.714844 L 991.347656 513.109375 C 991.347656 513.109375 974.722656 531.800781 972.28125 547.003906 C 972.015625 548.671875 973.738281 549.945312 975.261719 549.234375 " fill-opacity="1" fill-rule="nonzero"/><path fill="#ffffff" d="M 975.640625 546.445312 C 975.242188 546.445312 974.851562 546.234375 974.644531 545.859375 C 974.339844 545.308594 974.535156 544.613281 975.085938 544.304688 C 975.324219 544.171875 999.304688 530.746094 1011.894531 517.335938 C 1012.324219 516.878906 1013.050781 516.855469 1013.507812 517.285156 C 1013.96875 517.71875 1013.992188 518.445312 1013.5625 518.902344 C 1000.722656 532.570312 976.441406 546.167969 976.195312 546.300781 C 976.023438 546.402344 975.832031 546.445312 975.640625 546.445312 " fill-opacity="1" fill-rule="nonzero"/><path fill="#5479f7" d="M 867.542969 353.539062 C 867.542969 353.539062 876 410.8125 880.835938 440.929688 C 885.675781 471.050781 896.078125 519.570312 896.078125 519.570312 L 911.027344 519.570312 C 911.027344 519.570312 915.953125 486.621094 917.136719 468.355469 C 918.316406 450.089844 912.292969 444.933594 911.101562 430.234375 C 909.902344 415.53125 917.371094 368.015625 917.371094 368.015625 L 895.21875 346.355469 L 867.542969 353.539062 " fill-opacity="1" fill-rule="nonzero"/><path fill="#5479f7" d="M 905.074219 366.210938 C 905.074219 366.210938 931.585938 442.535156 977.726562 501.640625 L 993.375 489.277344 C 993.375 489.277344 980.949219 449.007812 977.871094 443.828125 C 974.796875 438.648438 966.558594 425.257812 964.085938 418.21875 C 956.070312 395.394531 947.570312 351.847656 947.570312 351.847656 L 905.074219 366.210938 " fill-opacity="1" fill-rule="nonzero"/><path fill="#ffffff" d="M 871.738281 252.398438 C 869.347656 250.003906 869.847656 248.496094 870.289062 248.390625 C 870.6875 248.289062 873.128906 247.089844 873.886719 246.421875 C 875.699219 244.832031 876.289062 242.535156 875.195312 241.296875 C 874.613281 240.632812 873.667969 240.40625 872.640625 240.582031 C 872.921875 237.261719 871.964844 235.671875 871.167969 233.390625 C 868.425781 225.523438 861.5625 227.164062 859.078125 229.988281 C 856.910156 232.457031 857.066406 234.574219 852.371094 236.953125 C 851.921875 237.183594 851.925781 237.863281 852.175781 238.300781 L 853.40625 240.800781 C 853.683594 241.296875 853.578125 242.503906 853.40625 243.050781 C 852.859375 244.726562 851.582031 248.246094 851.945312 248.925781 C 852.648438 250.253906 858.15625 252.234375 858.15625 252.234375 L 867.921875 266.976562 C 867.515625 270.082031 865.742188 271.824219 864.417969 272.71875 C 863.59375 273.265625 863.589844 274.476562 864.425781 275 C 866.007812 275.988281 869.183594 277.527344 875.570312 279.78125 C 884.027344 282.765625 893.191406 271.679688 893.191406 271.679688 C 893.191406 271.679688 890.617188 271.304688 871.738281 252.398438 " fill-opacity="1" fill-rule="nonzero"/><path fill="#000000" d="M 853.023438 248.59375 Z M 870.566406 249.496094 C 870.566406 249.496094 870.5625 249.496094 870.5625 249.496094 C 870.5625 249.496094 870.566406 249.496094 870.566406 249.496094 Z M 870.5625 249.496094 C 870.558594 249.496094 870.558594 249.496094 870.558594 249.496094 C 870.558594 249.496094 870.558594 249.496094 870.5625 249.496094 Z M 893.355469 270.546875 C 893.359375 270.546875 893.359375 270.546875 893.359375 270.546875 C 893.359375 270.546875 893.359375 270.546875 893.355469 270.546875 Z M 893.359375 270.546875 C 893.359375 270.546875 893.359375 270.546875 893.363281 270.546875 C 893.359375 270.546875 893.359375 270.546875 893.359375 270.546875 Z M 893.363281 270.546875 Z M 893.519531 270.582031 Z M 853.023438 248.472656 C 853.570312 249.042969 856.050781 250.261719 858.546875 251.160156 C 858.773438 251.242188 858.976562 251.398438 859.109375 251.601562 L 868.878906 266.34375 C 869.027344 266.574219 869.09375 266.851562 869.054688 267.125 C 868.601562 270.617188 866.632812 272.609375 865.054688 273.664062 C 864.957031 273.734375 864.945312 273.820312 864.945312 273.867188 C 864.945312 273.972656 865.007812 274.015625 865.035156 274.03125 C 866.402344 274.882812 869.40625 276.386719 875.953125 278.703125 C 882.121094 280.882812 888.972656 274.511719 891.398438 271.957031 C 889.023438 270.351562 883.53125 265.820312 870.933594 253.207031 C 868.546875 250.820312 868.695312 249.113281 868.863281 248.496094 C 869.042969 247.867188 869.46875 247.414062 870.011719 247.277344 C 870.417969 247.148438 872.5625 246.066406 873.136719 245.5625 C 874.558594 244.3125 874.914062 242.707031 874.339844 242.050781 C 874.050781 241.71875 873.5 241.597656 872.832031 241.710938 C 872.480469 241.769531 872.128906 241.664062 871.867188 241.425781 C 871.605469 241.1875 871.46875 240.835938 871.5 240.484375 C 871.707031 238.035156 871.199219 236.695312 870.546875 235.003906 C 870.394531 234.609375 870.242188 234.199219 870.089844 233.765625 C 869.121094 230.984375 867.511719 229.296875 865.433594 228.894531 C 863.265625 228.464844 861.027344 229.503906 859.9375 230.746094 C 859.328125 231.433594 858.921875 232.097656 858.492188 232.800781 C 857.503906 234.414062 856.480469 236.078125 853.207031 237.804688 L 854.433594 240.296875 C 854.929688 241.179688 854.679688 242.796875 854.492188 243.398438 C 854.40625 243.660156 854.304688 243.964844 854.191406 244.300781 C 853.84375 245.339844 853.0625 247.699219 853.023438 248.472656 Z M 878.609375 281.441406 C 877.476562 281.441406 876.332031 281.265625 875.191406 280.859375 C 869.777344 278.945312 865.953125 277.300781 863.820312 275.96875 C 863.109375 275.519531 862.671875 274.75 862.660156 273.90625 C 862.644531 273.046875 863.066406 272.25 863.777344 271.769531 C 864.898438 271.015625 866.285156 269.625 866.726562 267.238281 L 857.414062 253.179688 C 855.476562 252.464844 851.703125 250.914062 850.9375 249.460938 C 850.476562 248.597656 850.804688 247.234375 852.027344 243.574219 C 852.132812 243.253906 852.234375 242.953125 852.316406 242.699219 C 852.4375 242.3125 852.46875 241.535156 852.390625 241.320312 L 851.148438 238.804688 C 850.859375 238.292969 850.777344 237.605469 850.953125 237.019531 C 851.105469 236.535156 851.421875 236.148438 851.855469 235.929688 C 854.808594 234.4375 855.609375 233.121094 856.542969 231.601562 C 857.003906 230.851562 857.484375 230.074219 858.21875 229.234375 C 859.691406 227.554688 862.722656 226.03125 865.875 226.648438 C 867.910156 227.046875 870.667969 228.476562 872.25 233.019531 C 872.394531 233.421875 872.539062 233.808594 872.683594 234.1875 C 873.242188 235.660156 873.824219 237.167969 873.832031 239.414062 C 874.726562 239.519531 875.503906 239.90625 876.054688 240.539062 C 877.585938 242.28125 876.960938 245.246094 874.636719 247.28125 C 873.929688 247.90625 872.058594 248.890625 871.070312 249.308594 C 871.125 249.691406 871.449219 250.488281 872.550781 251.589844 C 889.601562 268.667969 893.203125 270.449219 893.5 270.574219 C 893.847656 270.671875 894.128906 270.925781 894.253906 271.265625 C 894.40625 271.652344 894.332031 272.085938 894.070312 272.40625 C 893.726562 272.820312 886.507812 281.4375 878.609375 281.441406 " fill-opacity="1" fill-rule="nonzero"/><path fill="#000000" d="M 861.824219 232.183594 C 861.824219 232.183594 853.1875 225.304688 855.601562 219.773438 C 855.8125 219.289062 856.460938 217.761719 857.945312 217.089844 C 860.996094 215.710938 864.941406 219.039062 865.824219 219.777344 C 873.484375 226.15625 878.589844 226.78125 881.839844 230.128906 C 883.019531 231.34375 884.332031 233.589844 884.175781 238.074219 C 883.550781 241.269531 882.226562 242.964844 881.140625 243.917969 C 878.90625 245.875 876.972656 245.304688 875.386719 247.371094 C 873.609375 249.679688 874.722656 252.117188 873.484375 252.84375 C 872.527344 253.402344 870.425781 252.78125 865.488281 247.886719 C 868.445312 244.589844 869.898438 241.335938 868.859375 239.703125 C 868.5625 239.238281 867.726562 238.453125 866.851562 238.460938 C 865.695312 238.46875 864.929688 239.703125 864.929688 239.703125 L 861.824219 232.183594 " fill-opacity="1" fill-rule="nonzero"/><path fill="#ffffff" d="M 768.070312 256.367188 L 757.3125 249.964844 C 756.308594 249.367188 755.488281 248.5 754.953125 247.464844 L 752.265625 242.308594 C 751.867188 241.546875 752.796875 240.789062 753.464844 241.332031 L 759.449219 246.191406 C 760.289062 246.875 761.277344 247.363281 762.332031 247.605469 L 770.972656 249.734375 L 772.953125 245.707031 C 773.539062 244.519531 774.769531 243.789062 776.09375 243.851562 L 773.847656 253.585938 L 776.488281 262.710938 L 769.8125 264.855469 L 768.070312 256.367188 " fill-opacity="1" fill-rule="nonzero"/><path fill="#000000" d="M 754.066406 243.292969 L 755.964844 246.9375 C 756.402344 247.785156 757.074219 248.492188 757.894531 248.984375 L 768.652344 255.382812 C 768.929688 255.546875 769.121094 255.820312 769.183594 256.136719 L 770.671875 263.378906 L 775.078125 261.964844 L 772.75 253.90625 C 772.695312 253.71875 772.6875 253.519531 772.738281 253.332031 L 774.539062 245.5 C 774.308594 245.691406 774.117188 245.933594 773.976562 246.210938 L 772 250.242188 C 771.761719 250.722656 771.222656 250.972656 770.699219 250.847656 L 762.058594 248.71875 C 760.855469 248.4375 759.699219 247.875 758.726562 247.082031 Z M 769.808594 266.003906 C 769.605469 266.003906 769.410156 265.949219 769.234375 265.847656 C 768.953125 265.679688 768.757812 265.40625 768.691406 265.085938 L 767.050781 257.09375 L 756.722656 250.949219 C 755.539062 250.242188 754.574219 249.222656 753.933594 247.992188 L 751.25 242.835938 C 750.824219 242.015625 751.023438 241.03125 751.738281 240.445312 C 752.464844 239.859375 753.464844 239.859375 754.183594 240.441406 L 760.164062 245.308594 C 760.867188 245.878906 761.707031 246.289062 762.59375 246.496094 L 770.355469 248.40625 L 771.925781 245.203125 C 772.710938 243.605469 774.382812 242.625 776.144531 242.710938 C 776.484375 242.726562 776.796875 242.890625 777 243.164062 C 777.210938 243.433594 777.28125 243.777344 777.207031 244.113281 L 775.03125 253.558594 L 777.578125 262.394531 C 777.75 262.988281 777.421875 263.613281 776.835938 263.800781 L 770.160156 265.949219 C 770.042969 265.984375 769.925781 266.003906 769.808594 266.003906 " fill-opacity="1" fill-rule="nonzero"/><path fill="#ffffff" d="M 900.902344 157.148438 C 900.902344 157.148438 897.75 153.386719 894.339844 153.722656 C 890.933594 154.058594 888.09375 153.886719 888.09375 153.886719 C 888.09375 153.886719 888.269531 151.121094 890.144531 151.222656 C 892.019531 151.328125 892.019531 151.328125 892.019531 151.328125 L 893.84375 150.65625 L 886.703125 136.152344 L 891.390625 136.949219 C 892.335938 137.109375 893.183594 137.621094 893.769531 138.378906 L 905.617188 153.761719 L 900.902344 157.148438 " fill-opacity="1" fill-rule="nonzero"/><path fill="#000000" d="M 894.773438 152.5625 C 897.484375 152.5625 899.878906 154.515625 901.042969 155.640625 L 903.984375 153.523438 L 892.859375 139.082031 C 892.449219 138.550781 891.859375 138.191406 891.195312 138.078125 L 888.714844 137.660156 L 894.867188 150.160156 C 895.007812 150.449219 895.023438 150.789062 894.898438 151.089844 C 894.78125 151.390625 894.539062 151.625 894.234375 151.734375 L 892.402344 152.402344 C 892.261719 152.457031 892.101562 152.480469 891.949219 152.472656 L 890.078125 152.367188 C 889.851562 152.359375 889.671875 152.542969 889.542969 152.785156 C 890.671875 152.796875 892.367188 152.773438 894.226562 152.589844 C 894.410156 152.570312 894.589844 152.5625 894.773438 152.5625 Z M 900.902344 158.292969 C 900.574219 158.292969 900.246094 158.152344 900.023438 157.882812 C 899.25 156.964844 896.730469 154.636719 894.453125 154.867188 C 890.988281 155.207031 888.140625 155.039062 888.023438 155.03125 C 887.71875 155.015625 887.433594 154.875 887.234375 154.648438 C 887.027344 154.421875 886.929688 154.121094 886.945312 153.816406 C 887.066406 151.941406 888.136719 149.96875 890.203125 150.085938 L 891.839844 150.175781 L 892.25 150.023438 L 885.675781 136.660156 C 885.484375 136.277344 885.523438 135.816406 885.789062 135.476562 C 886.042969 135.132812 886.46875 134.960938 886.890625 135.03125 L 891.574219 135.824219 C 892.808594 136.03125 893.90625 136.695312 894.667969 137.6875 L 906.515625 153.066406 C 906.707031 153.3125 906.789062 153.621094 906.742188 153.929688 C 906.699219 154.238281 906.53125 154.515625 906.28125 154.695312 L 901.5625 158.078125 C 901.367188 158.226562 901.132812 158.292969 900.902344 158.292969 " fill-opacity="1" fill-rule="nonzero"/><path fill="#ffffff" d="M 849.277344 309.320312 L 855.914062 359.644531 C 855.914062 359.644531 873.222656 362.320312 890.875 360.847656 C 890.875 360.847656 868.472656 307.828125 849.277344 309.320312 " fill-opacity="1" fill-rule="nonzero"/><path fill="#000000" d="M 856.9375 358.640625 C 860.480469 359.121094 874.609375 360.84375 889.179688 359.828125 C 885.507812 351.574219 866.738281 311.230469 850.578125 310.445312 Z M 879.714844 362.429688 C 866.617188 362.429688 855.875 360.796875 855.742188 360.777344 C 855.238281 360.699219 854.847656 360.300781 854.78125 359.796875 L 848.144531 309.46875 C 848.101562 309.15625 848.191406 308.84375 848.386719 308.597656 C 848.589844 308.359375 848.875 308.203125 849.1875 308.179688 C 868.996094 306.660156 891 358.203125 891.929688 360.402344 C 892.070312 360.738281 892.042969 361.125 891.851562 361.4375 C 891.664062 361.753906 891.335938 361.957031 890.96875 361.984375 C 887.152344 362.304688 883.34375 362.429688 879.714844 362.429688 " fill-opacity="1" fill-rule="nonzero"/><path fill="#000000" d="M 777.042969 256.101562 C 773.339844 258.714844 769.636719 261.332031 765.933594 263.949219 C 779.878906 296.292969 796.445312 307.464844 808.789062 311.777344 C 830.023438 319.195312 843.1875 307.839844 858.390625 318.425781 C 875.519531 330.363281 865.816406 349.695312 885.089844 368.433594 C 902.371094 385.242188 925.949219 385.015625 930.679688 384.96875 C 935.507812 384.925781 962.917969 384.660156 970.425781 368.433594 C 973.066406 362.722656 972.300781 357.0625 971.757812 353.007812 C 970.738281 345.453125 967.214844 339.882812 954.144531 323.628906 C 944.609375 311.777344 943.300781 310.855469 940.382812 306.988281 C 934.054688 298.59375 926.828125 285.160156 924.253906 263.628906 C 928.550781 255.5 937.09375 236.617188 935.332031 211.761719 C 932.925781 177.808594 912.941406 156.175781 907.152344 150.320312 C 904.054688 152.597656 900.957031 154.871094 897.863281 157.148438 C 901.3125 163.023438 911.230469 181.621094 908.21875 206.445312 C 905.28125 230.597656 891.917969 245.71875 887.660156 250.402344 C 881.824219 256.816406 859.257812 279.5625 825.261719 277.5625 C 799.363281 276.042969 782.265625 261.070312 777.042969 256.101562 " fill-opacity="1" fill-rule="nonzero"/><path fill="#ffffff" d="M 851.632812 273.984375 C 851.632812 273.984375 849.117188 268.804688 851.632812 267.773438 C 854.148438 266.746094 882.03125 252.777344 886.523438 246.628906 C 891.015625 240.476562 912.082031 242.9375 916.4375 246.628906 C 920.789062 250.320312 914.703125 265.566406 904.984375 271.640625 C 895.265625 277.714844 874.617188 266.4375 851.632812 273.984375 " fill-opacity="1" fill-rule="nonzero"/><path fill="#000000" d="M 899.261719 244.027344 C 897.796875 244.027344 896.351562 244.101562 894.984375 244.261719 C 891.226562 244.710938 888.550781 245.789062 887.445312 247.304688 C 882.5625 253.988281 853.5625 268.222656 852.066406 268.839844 C 851.933594 268.890625 851.832031 268.96875 851.753906 269.164062 C 851.472656 269.90625 851.820312 271.386719 852.273438 272.585938 C 864.660156 268.789062 876.382812 270.25 885.851562 271.429688 C 893.917969 272.433594 900.296875 273.226562 904.375 270.671875 C 911.21875 266.394531 916.265625 257.246094 916.691406 251.386719 C 916.828125 249.542969 916.472656 248.164062 915.695312 247.503906 C 913.550781 245.6875 906.179688 244.027344 899.261719 244.027344 Z M 851.628906 275.132812 C 851.199219 275.132812 850.796875 274.894531 850.601562 274.492188 C 850.40625 274.09375 848.761719 270.585938 849.617188 268.351562 C 849.90625 267.589844 850.453125 267.027344 851.195312 266.71875 C 853.597656 265.734375 881.316406 251.816406 885.597656 245.957031 C 887.128906 243.863281 890.191406 242.53125 894.710938 241.992188 C 902.6875 241.046875 913.8125 242.910156 917.171875 245.757812 C 918.539062 246.921875 919.164062 248.921875 918.972656 251.550781 C 918.511719 257.945312 913.265625 267.816406 905.585938 272.613281 C 900.816406 275.597656 894.089844 274.761719 885.570312 273.695312 C 876.074219 272.519531 864.253906 271.042969 851.984375 275.078125 C 851.867188 275.117188 851.742188 275.132812 851.628906 275.132812 " fill-opacity="1" fill-rule="nonzero"/><path fill="#000000" d="M 743.449219 683.199219 L 633.078125 683.199219 C 632.445312 683.199219 631.933594 682.6875 631.933594 682.058594 C 631.933594 681.425781 632.445312 680.914062 633.078125 680.914062 L 742.304688 680.914062 L 742.304688 605.699219 C 742.304688 605.066406 742.816406 604.554688 743.449219 604.554688 L 834.824219 604.554688 L 834.824219 549.628906 C 834.824219 548.996094 835.332031 548.484375 835.96875 548.484375 L 1015.855469 548.484375 C 1016.488281 548.484375 1017 548.996094 1017 549.628906 C 1017 550.261719 1016.488281 550.773438 1015.855469 550.773438 L 837.109375 550.773438 L 837.109375 605.699219 C 837.109375 606.328125 836.597656 606.84375 835.96875 606.84375 L 744.59375 606.84375 L 744.59375 682.058594 C 744.59375 682.6875 744.085938 683.199219 743.449219 683.199219 " fill-opacity="1" fill-rule="nonzero"/><path fill="#000000" d="M 712.035156 208.523438 C 707.394531 208.523438 703.617188 204.746094 703.617188 200.113281 C 703.617188 195.472656 707.394531 191.703125 712.035156 191.703125 C 712.664062 191.703125 713.179688 192.210938 713.179688 192.847656 C 713.179688 193.476562 712.664062 193.988281 712.035156 193.988281 C 708.652344 193.988281 705.90625 196.738281 705.90625 200.113281 C 705.90625 203.484375 708.652344 206.230469 712.035156 206.230469 C 715.417969 206.230469 718.164062 203.484375 718.164062 200.113281 C 718.164062 199.476562 718.675781 198.964844 719.308594 198.964844 C 719.941406 198.964844 720.453125 199.476562 720.453125 200.113281 C 720.453125 204.746094 716.675781 208.523438 712.035156 208.523438 " fill-opacity="1" fill-rule="nonzero"/><path fill="#000000" d="M 507.945312 656.726562 C 507.71875 656.726562 507.488281 656.660156 507.285156 656.515625 C 469.800781 629.957031 438.1875 594.78125 415.859375 554.789062 C 415.550781 554.238281 415.746094 553.542969 416.300781 553.234375 C 416.851562 552.925781 417.546875 553.125 417.851562 553.675781 C 440.015625 593.367188 471.398438 628.28125 508.609375 654.648438 C 509.125 655.015625 509.246094 655.726562 508.878906 656.246094 C 508.65625 656.558594 508.304688 656.726562 507.945312 656.726562 " fill-opacity="1" fill-rule="nonzero"/><path fill="#000000" d="M 470.109375 658.160156 C 469.851562 658.160156 469.59375 658.074219 469.378906 657.898438 C 454.964844 645.984375 441.558594 632.695312 429.535156 618.402344 C 429.128906 617.917969 429.191406 617.195312 429.671875 616.792969 C 430.15625 616.382812 430.878906 616.445312 431.28125 616.929688 C 443.21875 631.121094 456.527344 644.308594 470.835938 656.132812 C 471.324219 656.535156 471.390625 657.257812 470.992188 657.746094 C 470.761719 658.015625 470.4375 658.160156 470.109375 658.160156 " fill-opacity="1" fill-rule="nonzero"/><path fill="#ffffff" d="M 510.058594 144.421875 L 462.402344 191.367188 L 510.058594 144.421875 " fill-opacity="1" fill-rule="nonzero"/><path fill="#000000" d="M 462.402344 192.515625 C 462.105469 192.515625 461.808594 192.398438 461.585938 192.167969 C 461.144531 191.722656 461.148438 191 461.601562 190.554688 L 509.257812 143.609375 C 509.707031 143.167969 510.429688 143.171875 510.875 143.621094 C 511.316406 144.074219 511.308594 144.796875 510.859375 145.242188 L 463.203125 192.183594 C 462.980469 192.40625 462.691406 192.515625 462.402344 192.515625 " fill-opacity="1" fill-rule="nonzero"/><path fill="#ffffff" d="M 509.738281 118.640625 L 484.652344 143.347656 L 509.738281 118.640625 " fill-opacity="1" fill-rule="nonzero"/><path fill="#000000" d="M 484.652344 144.492188 C 484.359375 144.492188 484.0625 144.378906 483.839844 144.152344 C 483.394531 143.703125 483.402344 142.976562 483.851562 142.535156 L 508.933594 117.824219 C 509.382812 117.382812 510.109375 117.386719 510.550781 117.839844 C 510.992188 118.289062 510.988281 119.011719 510.539062 119.453125 L 485.457031 144.164062 C 485.230469 144.386719 484.941406 144.492188 484.652344 144.492188 " fill-opacity="1" fill-rule="nonzero"/><path fill="#000000" d="M 955.90625 623.15625 C 955.617188 623.15625 955.335938 623.050781 955.117188 622.835938 C 954.65625 622.402344 954.640625 621.675781 955.074219 621.21875 L 958.675781 617.460938 C 959.113281 617.003906 959.835938 616.988281 960.292969 617.421875 C 960.75 617.859375 960.765625 618.582031 960.328125 619.039062 L 956.730469 622.800781 C 956.503906 623.035156 956.203125 623.15625 955.90625 623.15625 " fill-opacity="1" fill-rule="nonzero"/><path fill="#000000" d="M 943.308594 636.320312 C 943.027344 636.320312 942.742188 636.21875 942.515625 636.003906 C 942.0625 635.570312 942.046875 634.84375 942.484375 634.386719 L 946.082031 630.625 C 946.519531 630.171875 947.242188 630.152344 947.703125 630.589844 C 948.15625 631.027344 948.167969 631.75 947.734375 632.207031 L 944.136719 635.96875 C 943.914062 636.203125 943.609375 636.320312 943.308594 636.320312 " fill-opacity="1" fill-rule="nonzero"/><path fill="#000000" d="M 946.84375 623.355469 C 946.554688 623.355469 946.261719 623.246094 946.042969 623.023438 L 942.394531 619.425781 C 941.941406 618.980469 941.9375 618.257812 942.378906 617.808594 C 942.824219 617.359375 943.546875 617.351562 943.996094 617.796875 L 947.644531 621.398438 C 948.097656 621.839844 948.101562 622.566406 947.660156 623.015625 C 947.433594 623.242188 947.140625 623.355469 946.84375 623.355469 " fill-opacity="1" fill-rule="nonzero"/><path fill="#000000" d="M 959.625 635.957031 C 959.335938 635.957031 959.042969 635.847656 958.820312 635.632812 L 955.171875 632.027344 C 954.722656 631.585938 954.714844 630.863281 955.160156 630.410156 C 955.605469 629.960938 956.328125 629.957031 956.773438 630.402344 L 960.425781 634 C 960.875 634.445312 960.882812 635.167969 960.4375 635.617188 C 960.214844 635.84375 959.917969 635.957031 959.625 635.957031 " fill-opacity="1" fill-rule="nonzero"/><path fill="#000000" d="M 985.503906 584.449219 C 982.535156 585.785156 981.183594 589.34375 982.492188 592.382812 C 983.128906 593.867188 984.296875 595 985.78125 595.574219 C 987.21875 596.132812 988.789062 596.089844 990.203125 595.460938 C 993.167969 594.121094 994.519531 590.5625 993.207031 587.523438 C 992.570312 586.039062 991.40625 584.910156 989.929688 584.332031 C 988.484375 583.773438 986.914062 583.8125 985.503906 584.449219 Z M 987.855469 598.253906 C 986.875 598.253906 985.890625 598.070312 984.949219 597.707031 C 982.894531 596.90625 981.273438 595.339844 980.398438 593.289062 C 978.59375 589.109375 980.46875 584.207031 984.5625 582.359375 C 986.539062 581.472656 988.738281 581.414062 990.757812 582.199219 C 992.808594 582.996094 994.421875 584.570312 995.308594 586.617188 C 997.105469 590.800781 995.238281 595.703125 991.140625 597.542969 C 990.089844 598.015625 988.972656 598.253906 987.855469 598.253906 " fill-opacity="1" fill-rule="nonzero"/><path fill="#000000" d="M 904.75 110.339844 C 904.453125 110.339844 904.160156 110.226562 903.933594 110.003906 L 900.613281 106.675781 C 900.171875 106.230469 900.171875 105.507812 900.621094 105.058594 C 901.0625 104.613281 901.785156 104.613281 902.234375 105.058594 L 905.554688 108.386719 C 906.003906 108.835938 906.003906 109.558594 905.554688 110.003906 C 905.328125 110.226562 905.035156 110.339844 904.75 110.339844 " fill-opacity="1" fill-rule="nonzero"/><path fill="#000000" d="M 916.367188 121.976562 C 916.074219 121.976562 915.785156 121.867188 915.558594 121.640625 L 912.242188 118.316406 C 911.796875 117.867188 911.796875 117.144531 912.242188 116.699219 C 912.6875 116.25 913.414062 116.25 913.855469 116.699219 L 917.175781 120.027344 C 917.628906 120.472656 917.625 121.199219 917.175781 121.644531 C 916.953125 121.867188 916.664062 121.976562 916.367188 121.976562 " fill-opacity="1" fill-rule="nonzero"/><path fill="#000000" d="M 901.425781 121.976562 C 901.132812 121.976562 900.84375 121.867188 900.621094 121.644531 C 900.171875 121.199219 900.171875 120.472656 900.617188 120.027344 L 903.9375 116.699219 C 904.382812 116.25 905.109375 116.25 905.558594 116.699219 C 906.003906 117.144531 906.003906 117.867188 905.558594 118.316406 L 902.242188 121.640625 C 902.015625 121.867188 901.71875 121.976562 901.425781 121.976562 " fill-opacity="1" fill-rule="nonzero"/><path fill="#000000" d="M 913.046875 110.339844 C 912.753906 110.339844 912.464844 110.226562 912.238281 110.003906 C 911.792969 109.558594 911.792969 108.835938 912.238281 108.386719 L 915.558594 105.058594 C 916.003906 104.613281 916.726562 104.613281 917.175781 105.058594 C 917.621094 105.507812 917.621094 106.230469 917.175781 106.675781 L 913.855469 110.003906 C 913.628906 110.226562 913.339844 110.339844 913.046875 110.339844 " fill-opacity="1" fill-rule="nonzero"/><path fill="#000000" d="M 992.050781 202.820312 L 992.054688 202.820312 Z M 994.054688 203.535156 C 993.53125 203.535156 993.007812 203.644531 992.515625 203.867188 C 990.5625 204.746094 989.679688 207.085938 990.542969 209.089844 C 990.957031 210.066406 991.726562 210.808594 992.699219 211.1875 C 993.640625 211.554688 994.671875 211.53125 995.601562 211.109375 C 997.550781 210.230469 998.4375 207.890625 997.570312 205.890625 C 997.152344 204.910156 996.386719 204.167969 995.417969 203.792969 C 994.972656 203.617188 994.515625 203.535156 994.054688 203.535156 Z M 994.0625 213.734375 C 993.324219 213.734375 992.578125 213.597656 991.867188 213.316406 C 990.320312 212.71875 989.109375 211.539062 988.445312 209.996094 C 987.089844 206.851562 988.496094 203.167969 991.578125 201.78125 C 993.070312 201.109375 994.722656 201.066406 996.242188 201.660156 C 997.789062 202.257812 999.007812 203.441406 999.671875 204.984375 C 1001.027344 208.125 999.621094 211.808594 996.535156 213.199219 C 995.742188 213.554688 994.902344 213.734375 994.0625 213.734375 " fill-opacity="1" fill-rule="nonzero"/><path fill="#ffffff" d="M 549.953125 664.648438 L 553.414062 688.976562 L 560.914062 688.976562 L 561.328125 665.050781 L 549.953125 664.648438 " fill-opacity="1" fill-rule="nonzero"/><path fill="#000000" d="M 554.40625 687.832031 L 559.789062 687.832031 L 560.167969 666.152344 L 551.277344 665.84375 Z M 560.914062 690.121094 L 553.414062 690.121094 C 552.847656 690.121094 552.363281 689.699219 552.285156 689.136719 L 548.820312 664.808594 C 548.773438 664.476562 548.875 664.132812 549.101562 663.886719 C 549.328125 663.632812 549.65625 663.5 549.992188 663.503906 L 561.371094 663.90625 C 561.992188 663.929688 562.484375 664.445312 562.472656 665.070312 L 562.054688 688.996094 C 562.042969 689.621094 561.535156 690.121094 560.914062 690.121094 " fill-opacity="1" fill-rule="nonzero"/><path fill="#ffffff" d="M 553.117188 712.234375 C 556.703125 712.621094 562.570312 712.871094 569.414062 711.691406 C 571.65625 711.304688 573.078125 709.066406 572.460938 706.875 C 570.746094 700.769531 567.046875 689.207031 562.390625 683.949219 L 561.375 686.917969 L 559.75 684.203125 C 559.527344 683.832031 559.140625 683.589844 558.710938 683.550781 L 555.332031 683.234375 C 554.628906 683.171875 553.988281 683.65625 553.867188 684.355469 L 553.414062 686.917969 L 552.132812 683.617188 L 549.726562 708.050781 C 549.523438 710.140625 551.03125 712.011719 553.117188 712.234375 " fill-opacity="1" fill-rule="nonzero"/><path fill="#000000" d="M 553.238281 711.097656 C 556.859375 711.488281 562.570312 711.707031 569.21875 710.566406 C 569.984375 710.429688 570.632812 709.996094 571.046875 709.34375 C 571.457031 708.691406 571.570312 707.929688 571.359375 707.1875 C 569.777344 701.554688 566.675781 691.851562 562.792969 686.3125 L 562.457031 687.285156 C 562.3125 687.707031 561.9375 688.007812 561.496094 688.058594 C 561.058594 688.101562 560.625 687.886719 560.398438 687.507812 L 558.769531 684.792969 C 558.734375 684.734375 558.671875 684.695312 558.605469 684.691406 L 555.226562 684.371094 C 555.117188 684.363281 555.011719 684.441406 554.992188 684.550781 L 554.539062 687.117188 C 554.453125 687.621094 554.039062 688.003906 553.527344 688.058594 C 553.292969 688.082031 553.058594 688.027344 552.859375 687.914062 L 550.867188 708.164062 C 550.722656 709.625 551.785156 710.941406 553.238281 711.097656 Z M 559.238281 713.699219 C 556.792969 713.699219 554.675781 713.554688 552.996094 713.375 C 552.996094 713.371094 552.992188 713.371094 552.992188 713.371094 C 550.300781 713.082031 548.324219 710.648438 548.589844 707.941406 L 550.996094 683.503906 C 551.046875 682.976562 551.453125 682.550781 551.976562 682.480469 C 552.476562 682.414062 552.960938 682.683594 553.171875 683.136719 C 553.675781 682.433594 554.527344 682.011719 555.441406 682.09375 L 558.816406 682.410156 C 559.605469 682.484375 560.320312 682.933594 560.730469 683.617188 L 561.089844 684.214844 L 561.308594 683.578125 C 561.441406 683.191406 561.769531 682.902344 562.167969 682.824219 C 562.566406 682.746094 562.976562 682.882812 563.246094 683.1875 C 568.019531 688.582031 571.757812 700.152344 573.558594 706.566406 C 573.941406 707.921875 573.730469 709.375 572.980469 710.566406 C 572.226562 711.757812 570.996094 712.578125 569.605469 712.816406 C 565.785156 713.472656 562.261719 713.699219 559.238281 713.699219 " fill-opacity="1" fill-rule="nonzero"/><path fill="#000000" d="M 561.636719 709.546875 C 556.4375 709.546875 552.449219 708.570312 552.199219 708.503906 C 551.585938 708.355469 551.214844 707.730469 551.367188 707.121094 C 551.519531 706.507812 552.140625 706.128906 552.753906 706.285156 C 552.839844 706.3125 561.5625 708.4375 569.71875 706.289062 C 570.332031 706.128906 570.953125 706.496094 571.113281 707.105469 C 571.273438 707.714844 570.910156 708.34375 570.300781 708.503906 C 567.324219 709.285156 564.320312 709.546875 561.636719 709.546875 " fill-opacity="1" fill-rule="nonzero"/><path fill="#000000" d="M 564.65625 700.035156 L 556.617188 700.035156 C 555.988281 700.035156 555.476562 699.519531 555.476562 698.890625 C 555.476562 698.257812 555.988281 697.746094 556.617188 697.746094 L 564.65625 697.746094 C 565.289062 697.746094 565.800781 698.257812 565.800781 698.890625 C 565.800781 699.519531 565.289062 700.035156 564.65625 700.035156 " fill-opacity="1" fill-rule="nonzero"/><path fill="#ffffff" d="M 486.347656 666.820312 L 483.230469 695.175781 L 471.308594 697.675781 L 472.035156 664.425781 L 486.347656 666.820312 " fill-opacity="1" fill-rule="nonzero"/><path fill="#000000" d="M 473.152344 665.773438 L 472.484375 696.257812 L 482.183594 694.226562 L 485.09375 667.769531 Z M 471.308594 698.816406 C 471.046875 698.816406 470.785156 698.722656 470.582031 698.550781 C 470.3125 698.332031 470.160156 697.996094 470.167969 697.648438 L 470.894531 664.398438 C 470.898438 664.070312 471.050781 663.757812 471.308594 663.542969 C 471.5625 663.332031 471.894531 663.242188 472.226562 663.296875 L 486.539062 665.691406 C 487.136719 665.792969 487.550781 666.34375 487.484375 666.949219 L 484.367188 695.300781 C 484.3125 695.789062 483.949219 696.191406 483.464844 696.296875 L 471.542969 698.792969 C 471.464844 698.808594 471.386719 698.816406 471.308594 698.816406 " fill-opacity="1" fill-rule="nonzero"/><path fill="#ffffff" d="M 488.261719 710.039062 C 488.261719 710.039062 489.789062 696.394531 485.515625 690.167969 L 475.980469 693.566406 L 475.980469 691.527344 C 475.980469 690.867188 475.511719 690.328125 474.914062 690.292969 L 469.597656 689.988281 C 467.613281 689.875 465.632812 690.285156 463.820312 691.175781 C 457.453125 694.3125 442.789062 702.386719 443.253906 710.132812 C 443.253906 710.132812 454.796875 712.996094 488.261719 710.039062 " fill-opacity="1" fill-rule="nonzero"/><path fill="#000000" d="M 488.261719 710.039062 L 488.269531 710.039062 Z M 444.421875 709.191406 C 447.664062 709.75 460.082031 711.320312 487.210938 708.984375 C 487.4375 706.015625 487.890625 696.671875 485.03125 691.554688 L 476.363281 694.640625 C 476.011719 694.765625 475.625 694.710938 475.320312 694.496094 C 475.019531 694.285156 474.835938 693.933594 474.835938 693.566406 L 474.835938 691.527344 C 474.835938 691.464844 474.8125 691.429688 474.804688 691.421875 L 469.53125 691.132812 C 467.761719 691.027344 465.960938 691.402344 464.324219 692.203125 C 452.292969 698.125 444.980469 704.394531 444.421875 709.191406 Z M 461.214844 712.53125 C 448.386719 712.53125 443.292969 711.320312 442.976562 711.242188 C 442.492188 711.121094 442.144531 710.699219 442.113281 710.203125 C 441.625 702.074219 455.1875 694.148438 463.316406 690.152344 C 465.304688 689.171875 467.496094 688.722656 469.660156 688.847656 L 474.980469 689.152344 C 476.183594 689.21875 477.121094 690.265625 477.121094 691.527344 L 477.121094 691.945312 L 485.132812 689.089844 C 485.625 688.917969 486.167969 689.09375 486.460938 689.523438 C 490.921875 696.027344 489.464844 709.59375 489.398438 710.167969 C 489.339844 710.710938 488.90625 711.132812 488.363281 711.179688 C 476.882812 712.191406 467.972656 712.53125 461.214844 712.53125 " fill-opacity="1" fill-rule="nonzero"/><path fill="#000000" d="M 472.023438 708.324219 C 457.773438 708.324219 446.851562 706.160156 446.707031 706.128906 C 446.089844 706.003906 445.691406 705.398438 445.816406 704.777344 C 445.941406 704.160156 446.546875 703.757812 447.164062 703.882812 C 447.347656 703.921875 465.902344 707.605469 486.097656 705.257812 C 486.722656 705.195312 487.292969 705.636719 487.367188 706.265625 C 487.4375 706.890625 486.988281 707.460938 486.363281 707.535156 C 481.40625 708.109375 476.546875 708.324219 472.023438 708.324219 " fill-opacity="1" fill-rule="nonzero"/><path fill="#000000" d="M 460.6875 701.128906 C 460.332031 701.128906 459.980469 700.960938 459.757812 700.648438 C 459.390625 700.136719 459.503906 699.421875 460.019531 699.054688 L 469.199219 692.449219 C 469.710938 692.078125 470.425781 692.195312 470.792969 692.707031 C 471.164062 693.21875 471.046875 693.933594 470.535156 694.304688 L 461.355469 700.910156 C 461.152344 701.054688 460.917969 701.128906 460.6875 701.128906 " fill-opacity="1" fill-rule="nonzero"/><path fill="#5479f7" d="M 482.628906 482.84375 C 482.628906 482.84375 465.527344 591.609375 469.167969 669.890625 L 488.183594 670.378906 C 488.183594 670.378906 508.578125 559.988281 518.75 540.238281 C 518.75 540.238281 546.390625 640.886719 547.457031 669.53125 C 547.457031 669.53125 559.757812 670.769531 564.65625 669.007812 C 567.292969 641.359375 568.082031 617.839844 568.214844 599.875 C 568.59375 548.453125 563.679688 525.09375 560.988281 514.015625 C 558.515625 503.839844 555.863281 495.574219 553.925781 489.980469 L 547.457031 471.515625 L 482.628906 482.84375 " fill-opacity="1" fill-rule="nonzero"/><path fill="#000000" d="M 470.261719 668.773438 L 487.238281 669.210938 C 489.394531 657.613281 507.988281 558.628906 517.734375 539.714844 C 517.949219 539.296875 518.398438 539.050781 518.867188 539.101562 C 519.335938 539.152344 519.730469 539.484375 519.851562 539.9375 C 520.96875 544.003906 546.933594 638.824219 548.550781 668.480469 C 551.359375 668.710938 559.476562 669.242188 563.59375 668.140625 C 565.734375 645.390625 566.90625 622.421875 567.070312 599.863281 C 567.429688 551.167969 563.136719 527.703125 559.878906 514.285156 C 557.917969 506.214844 555.550781 498.164062 552.847656 490.355469 L 546.699219 472.8125 L 483.632812 483.828125 C 482.097656 493.898438 467.027344 595.121094 470.261719 668.773438 Z M 488.183594 671.523438 C 488.171875 671.523438 488.164062 671.523438 488.15625 671.523438 L 469.140625 671.03125 C 468.539062 671.015625 468.054688 670.539062 468.027344 669.941406 C 464.421875 592.441406 481.328125 483.757812 481.5 482.667969 C 481.578125 482.183594 481.953125 481.800781 482.433594 481.71875 L 547.257812 470.390625 C 547.8125 470.296875 548.347656 470.609375 548.535156 471.140625 L 555.003906 489.605469 C 557.734375 497.484375 560.121094 505.609375 562.097656 513.746094 C 565.386719 527.28125 569.71875 550.933594 569.359375 599.882812 C 569.191406 622.757812 567.992188 646.050781 565.796875 669.113281 C 565.753906 669.558594 565.460938 669.933594 565.046875 670.082031 C 559.957031 671.914062 547.855469 670.726562 547.339844 670.671875 C 546.773438 670.613281 546.335938 670.148438 546.3125 669.578125 C 545.367188 644.191406 523.101562 560.695312 518.480469 543.605469 C 508.144531 568.976562 489.503906 669.527344 489.304688 670.585938 C 489.207031 671.128906 488.734375 671.523438 488.183594 671.523438 " fill-opacity="1" fill-rule="nonzero"/><path fill="#000000" d="M 517.742188 539.105469 C 517.234375 539.105469 516.769531 538.765625 516.636719 538.25 L 513.886719 527.605469 L 507.316406 526.246094 C 506.699219 526.117188 506.300781 525.515625 506.425781 524.894531 C 506.554688 524.277344 507.15625 523.875 507.777344 524.007812 L 515.042969 525.507812 C 515.46875 525.597656 515.808594 525.917969 515.917969 526.339844 L 518.851562 537.675781 C 519.007812 538.289062 518.640625 538.910156 518.03125 539.066406 C 517.933594 539.097656 517.839844 539.105469 517.742188 539.105469 " fill-opacity="1" fill-rule="nonzero"/><path fill="#000000" d="M 484.300781 386.378906 C 495.425781 385.125 518.96875 382.890625 535.527344 384.265625 C 540.621094 384.691406 545.449219 386.675781 549.351562 389.976562 C 561.113281 399.914062 586.597656 424.816406 586.929688 454.289062 L 560.824219 450.496094 C 560.824219 450.496094 570.042969 483.542969 569.414062 488.855469 C 568.785156 494.164062 552.625 503.199219 532.417969 495.785156 C 512.210938 488.375 483.128906 489.28125 473.710938 495.785156 L 472.800781 455.015625 L 433.089844 455.015625 C 433.089844 455.015625 446.222656 412.257812 471.703125 391.613281 C 475.304688 388.691406 479.691406 386.898438 484.300781 386.378906 " fill-opacity="1" fill-rule="nonzero"/><path fill="#ffffff" d="M 433.089844 455.015625 C 433.089844 455.015625 429.980469 469.234375 444.109375 473.503906 C 458.234375 477.769531 471.648438 452.042969 471.648438 452.042969 L 461.8125 446.34375 L 433.089844 455.015625 " fill-opacity="1" fill-rule="nonzero"/><path fill="#000000" d="M 434.09375 455.910156 C 433.703125 458.636719 433.019531 468.957031 444.4375 472.40625 C 456.015625 475.902344 467.539062 457.003906 470.109375 452.472656 L 461.667969 447.582031 Z M 447.355469 475.128906 C 446.175781 475.128906 444.980469 474.960938 443.777344 474.597656 C 428.8125 470.074219 431.941406 454.925781 431.972656 454.773438 C 432.0625 454.367188 432.363281 454.042969 432.757812 453.921875 L 461.484375 445.246094 C 461.789062 445.152344 462.113281 445.191406 462.386719 445.351562 L 472.222656 451.050781 C 472.75 451.359375 472.945312 452.03125 472.660156 452.574219 C 472.140625 453.570312 460.730469 475.128906 447.355469 475.128906 " fill-opacity="1" fill-rule="nonzero"/><path fill="#99b9ff" d="M 524.710938 487.417969 L 455.28125 487.417969 C 453.523438 487.417969 451.988281 486.214844 451.566406 484.507812 L 437.550781 427.96875 C 436.953125 425.550781 438.777344 423.214844 441.265625 423.214844 L 510.695312 423.214844 C 512.453125 423.214844 513.988281 424.414062 514.410156 426.121094 L 528.425781 482.664062 C 529.023438 485.078125 527.199219 487.417969 524.710938 487.417969 " fill-opacity="1" fill-rule="nonzero"/><path fill="#000000" d="M 441.265625 424.359375 C 440.433594 424.359375 439.664062 424.738281 439.152344 425.390625 C 438.640625 426.046875 438.460938 426.886719 438.660156 427.691406 L 452.675781 484.234375 C 452.972656 485.433594 454.042969 486.273438 455.28125 486.273438 L 524.710938 486.273438 C 525.542969 486.273438 526.3125 485.894531 526.824219 485.242188 C 527.339844 484.585938 527.515625 483.746094 527.316406 482.9375 L 513.300781 426.398438 C 513.003906 425.195312 511.933594 424.359375 510.695312 424.359375 Z M 524.710938 488.558594 L 455.28125 488.558594 C 452.992188 488.558594 451.007812 487.003906 450.457031 484.78125 L 436.441406 428.242188 C 436.070312 426.746094 436.402344 425.191406 437.351562 423.980469 C 438.300781 422.765625 439.726562 422.070312 441.265625 422.070312 L 510.695312 422.070312 C 512.984375 422.070312 514.96875 423.625 515.519531 425.847656 L 529.535156 482.386719 C 529.90625 483.882812 529.574219 485.4375 528.625 486.648438 C 527.679688 487.863281 526.25 488.558594 524.710938 488.558594 " fill-opacity="1" fill-rule="nonzero"/><path fill="#ffffff" d="M 442.703125 451.324219 L 444.742188 456.980469 L 461.4375 449.023438 C 461.4375 449.023438 470.617188 456.980469 448.363281 467.167969 C 439.09375 471.414062 442.703125 451.324219 442.703125 451.324219 " fill-opacity="1" fill-rule="nonzero"/><path fill="#000000" d="M 443.253906 456.222656 C 442.960938 460.414062 443.21875 464.933594 444.917969 466.25 C 445.167969 466.441406 445.925781 467.03125 447.890625 466.128906 C 458.949219 461.066406 461.730469 456.777344 462.117188 454.078125 C 462.363281 452.363281 461.667969 451.09375 461.164062 450.421875 L 445.234375 458.011719 C 444.941406 458.148438 444.605469 458.160156 444.308594 458.039062 C 444.007812 457.914062 443.777344 457.671875 443.667969 457.367188 Z M 446.046875 468.898438 C 444.910156 468.898438 444.082031 468.496094 443.515625 468.058594 C 439.265625 464.757812 441.328125 452.503906 441.578125 451.117188 C 441.667969 450.609375 442.089844 450.226562 442.605469 450.183594 C 443.121094 450.140625 443.601562 450.449219 443.777344 450.933594 L 445.390625 455.402344 L 460.945312 447.992188 C 461.355469 447.796875 461.839844 447.863281 462.183594 448.160156 C 462.296875 448.257812 464.929688 450.585938 464.382812 454.402344 C 463.703125 459.148438 458.472656 463.800781 448.839844 468.207031 C 447.753906 468.707031 446.828125 468.898438 446.046875 468.898438 " fill-opacity="1" fill-rule="nonzero"/><path fill="#ffffff" d="M 540.898438 422.539062 C 540.898438 422.539062 572.109375 440.066406 578.546875 445.570312 C 584.984375 451.074219 591.964844 455.253906 582.890625 467.285156 C 573.816406 479.320312 535.125 431.117188 535.125 431.117188 C 535.125 431.117188 527.691406 432.351562 525.097656 422.21875 C 525.097656 422.21875 512.550781 422.667969 512.09375 418.730469 L 529.792969 415.5625 C 532.082031 415.148438 534.421875 415.902344 536.046875 417.566406 L 540.898438 422.539062 " fill-opacity="1" fill-rule="nonzero"/><path fill="#000000" d="M 535.117188 429.976562 C 535.464844 429.976562 535.796875 430.128906 536.015625 430.402344 C 544.445312 440.898438 568.523438 468.070312 578.867188 468.070312 C 578.894531 468.070312 578.921875 468.070312 578.953125 468.070312 C 580.257812 468.046875 581.246094 467.570312 581.976562 466.597656 C 589.695312 456.363281 585.339844 452.734375 579.3125 447.703125 C 578.808594 447.289062 578.304688 446.867188 577.804688 446.441406 C 571.523438 441.070312 540.652344 423.710938 540.339844 423.535156 C 540.246094 423.480469 540.15625 423.414062 540.082031 423.335938 L 535.230469 418.363281 C 533.867188 416.972656 531.910156 416.34375 529.992188 416.6875 L 514.039062 419.542969 C 515.914062 420.648438 520.726562 421.230469 525.058594 421.078125 C 525.582031 421.0625 526.074219 421.414062 526.207031 421.9375 C 528.492188 430.863281 534.683594 430.027344 534.945312 429.988281 C 535.003906 429.980469 535.058594 429.976562 535.117188 429.976562 Z M 578.875 470.359375 C 565.960938 470.359375 538.316406 436.863281 534.605469 432.292969 C 532.582031 432.355469 526.738281 431.679688 524.238281 423.386719 C 520.332031 423.453125 511.449219 423.121094 510.957031 418.863281 C 510.890625 418.261719 511.296875 417.710938 511.890625 417.601562 L 529.589844 414.433594 C 532.253906 413.957031 534.972656 414.828125 536.867188 416.765625 L 541.601562 421.621094 C 544.1875 423.074219 572.996094 439.320312 579.289062 444.699219 C 579.78125 445.121094 580.28125 445.539062 580.773438 445.949219 C 586.703125 450.890625 592.832031 456 583.804688 467.972656 C 582.632812 469.527344 581.011719 470.328125 578.988281 470.359375 C 578.953125 470.359375 578.914062 470.359375 578.875 470.359375 " fill-opacity="1" fill-rule="nonzero"/><path fill="#000000" d="M 496.863281 365.992188 C 496.296875 366.972656 497.464844 368.871094 497.476562 368.867188 C 497.492188 368.859375 496.914062 363.308594 493.820312 361.90625 C 492.027344 361.09375 491.101562 362.449219 488.429688 362.078125 C 485.589844 361.691406 482.46875 359.585938 481.296875 356.507812 C 479.882812 352.792969 481.921875 349.253906 483.207031 347.023438 C 484.484375 344.800781 486.113281 342.332031 488.9375 341.261719 C 492.617188 339.871094 494.15625 342.003906 498.371094 340.695312 C 501.800781 339.628906 501.546875 337.976562 504.597656 337.109375 C 507.140625 336.382812 514.46875 336.796875 516.109375 340.695312 C 517.148438 343.164062 514.90625 344.671875 516.023438 348.335938 C 516.695312 350.539062 517.753906 350.808594 518.523438 352.507812 C 520.433594 356.722656 518.039062 364.121094 513.480469 366.605469 C 507.289062 369.972656 498.203125 363.675781 496.863281 365.992188 " fill-opacity="1" fill-rule="nonzero"/><path fill="#ffffff" d="M 499.511719 368.976562 L 498.074219 380.796875 C 497.800781 383.050781 496.175781 384.90625 493.984375 385.476562 L 487.90625 387.0625 L 506.640625 401.335938 L 527.691406 385.355469 L 520.144531 383.671875 C 517.972656 383.1875 516.304688 381.445312 515.910156 379.257812 L 512.773438 361.839844 L 499.511719 368.976562 " fill-opacity="1" fill-rule="nonzero"/><path fill="#000000" d="M 490.46875 387.574219 L 506.640625 399.898438 L 525.039062 385.9375 L 519.894531 384.785156 C 517.269531 384.199219 515.265625 382.105469 514.789062 379.460938 L 511.929688 363.59375 L 500.574219 369.699219 L 499.207031 380.9375 C 498.875 383.671875 496.9375 385.886719 494.273438 386.582031 Z M 506.640625 402.480469 C 506.394531 402.480469 506.152344 402.402344 505.949219 402.246094 L 487.210938 387.972656 C 486.863281 387.707031 486.699219 387.265625 486.785156 386.839844 C 486.871094 386.40625 487.195312 386.066406 487.617188 385.953125 L 493.695312 384.371094 C 495.445312 383.914062 496.71875 382.457031 496.9375 380.660156 L 498.378906 368.835938 C 498.421875 368.46875 498.644531 368.144531 498.972656 367.96875 L 512.230469 360.832031 C 512.554688 360.660156 512.941406 360.648438 513.269531 360.808594 C 513.601562 360.96875 513.832031 361.277344 513.898438 361.640625 L 517.035156 379.054688 C 517.351562 380.796875 518.667969 382.167969 520.390625 382.554688 L 527.941406 384.238281 C 528.375 384.339844 528.714844 384.679688 528.808594 385.113281 C 528.902344 385.550781 528.738281 386 528.382812 386.269531 L 507.332031 402.246094 C 507.128906 402.402344 506.882812 402.480469 506.640625 402.480469 " fill-opacity="1" fill-rule="nonzero"/><path fill="#ffffff" d="M 511.265625 364.242188 C 511.265625 364.242188 515.929688 362.480469 514.175781 358.625 C 512.425781 354.769531 509.574219 357.617188 509.574219 357.617188 C 509.574219 357.617188 506.925781 348.113281 501.355469 351.859375 C 495.785156 355.613281 490.511719 356.972656 490.511719 356.972656 C 490.511719 356.972656 492.472656 366.53125 495.992188 372.894531 C 498.117188 376.734375 500.808594 379.40625 503.984375 378.117188 C 512.667969 374.585938 511.265625 364.242188 511.265625 364.242188 " fill-opacity="1" fill-rule="nonzero"/><path fill="#000000" d="M 491.859375 357.761719 C 492.464844 360.371094 494.261719 367.40625 496.992188 372.339844 C 499.207031 376.339844 501.414062 377.925781 503.550781 377.054688 C 511.324219 373.898438 510.144531 364.488281 510.132812 364.394531 C 510.058594 363.867188 510.359375 363.363281 510.855469 363.171875 C 511.371094 362.972656 512.8125 362.210938 513.273438 361.078125 C 513.515625 360.484375 513.472656 359.839844 513.136719 359.097656 C 512.882812 358.542969 512.46875 357.859375 511.929688 357.761719 C 511.316406 357.648438 510.539062 358.265625 510.378906 358.425781 C 510.09375 358.710938 509.675781 358.824219 509.285156 358.722656 C 508.890625 358.617188 508.582031 358.3125 508.472656 357.925781 C 508.101562 356.605469 506.691406 353.027344 504.636719 352.269531 C 503.839844 351.976562 502.972656 352.152344 501.992188 352.8125 C 497.753906 355.664062 493.71875 357.164062 491.859375 357.761719 Z M 502.382812 379.589844 C 500.257812 379.589844 497.636719 378.226562 494.992188 373.449219 C 491.425781 367.007812 489.472656 357.597656 489.390625 357.199219 C 489.265625 356.605469 489.636719 356.015625 490.222656 355.863281 C 490.273438 355.851562 495.390625 354.496094 500.71875 350.914062 C 502.722656 349.5625 504.386719 349.738281 505.433594 350.125 C 507.933594 351.046875 509.449219 354 510.171875 355.839844 C 510.773438 355.554688 511.523438 355.359375 512.339844 355.511719 C 513.554688 355.730469 514.523438 356.621094 515.21875 358.152344 C 515.8125 359.464844 515.871094 360.78125 515.382812 361.960938 C 514.746094 363.507812 513.355469 364.460938 512.460938 364.941406 C 512.582031 367.640625 512.277344 375.976562 504.414062 379.175781 C 503.808594 379.417969 503.128906 379.589844 502.382812 379.589844 " fill-opacity="1" fill-rule="nonzero"/><path fill="#ffffff" d="M 627.886719 639.707031 C 627.476562 640.351562 611.703125 662.917969 611.703125 662.917969 C 611.703125 662.917969 612.101562 668.667969 616.1875 669.789062 L 634.945312 649.476562 L 627.886719 639.707031 " fill-opacity="1" fill-rule="nonzero"/><path fill="#000000" d="M 612.886719 663.21875 C 613.039062 664.296875 613.664062 667.378906 615.867188 668.453125 L 633.472656 649.386719 L 627.910156 641.6875 C 624.796875 646.175781 614.984375 660.210938 612.886719 663.21875 Z M 616.1875 670.933594 C 616.085938 670.933594 615.984375 670.917969 615.886719 670.890625 C 611.070312 669.570312 610.578125 663.261719 610.5625 662.996094 C 610.542969 662.734375 610.613281 662.476562 610.765625 662.261719 C 615.132812 656.011719 626.550781 639.671875 626.925781 639.089844 C 627.132812 638.769531 627.480469 638.574219 627.859375 638.5625 C 628.234375 638.566406 628.59375 638.730469 628.816406 639.039062 L 635.871094 648.808594 C 636.191406 649.25 636.152344 649.855469 635.785156 650.253906 L 617.027344 670.5625 C 616.808594 670.800781 616.503906 670.933594 616.1875 670.933594 " fill-opacity="1" fill-rule="nonzero"/><path fill="#ffffff" d="M 603.105469 666.886719 C 603.105469 666.886719 604.449219 684.699219 612.316406 694.082031 C 620.179688 703.457031 632.800781 700.460938 632.800781 700.460938 C 632.800781 700.460938 633.757812 692.527344 632.121094 690.464844 C 630.484375 688.402344 621.433594 677.382812 621.457031 667.472656 L 616.648438 660.921875 L 613.8125 664.597656 L 612.597656 658.589844 L 603.105469 666.886719 " fill-opacity="1" fill-rule="nonzero"/><path fill="#000000" d="M 604.300781 667.363281 C 604.609375 670.433594 606.425781 685.277344 613.191406 693.34375 C 619.425781 700.78125 628.976562 699.925781 631.753906 699.492188 C 632.039062 696.46875 632.058594 692.222656 631.226562 691.175781 L 631.050781 690.960938 C 622.398438 680.113281 620.410156 672.460938 620.316406 667.847656 L 616.625 662.820312 L 614.714844 665.296875 C 614.441406 665.648438 613.984375 665.8125 613.550781 665.710938 C 613.117188 665.609375 612.78125 665.261719 612.691406 664.824219 L 611.867188 660.75 Z M 628.007812 702.078125 C 623.386719 702.078125 616.523438 700.882812 611.4375 694.8125 C 603.433594 685.265625 602.023438 667.710938 601.96875 666.972656 C 601.9375 666.613281 602.082031 666.261719 602.355469 666.019531 L 611.84375 657.730469 C 612.152344 657.460938 612.578125 657.378906 612.964844 657.511719 C 613.351562 657.640625 613.636719 657.964844 613.71875 658.367188 L 614.4375 661.917969 L 615.746094 660.222656 C 615.964844 659.9375 616.316406 659.78125 616.664062 659.777344 C 617.023438 659.78125 617.359375 659.953125 617.570312 660.242188 L 622.378906 666.796875 C 622.523438 666.992188 622.601562 667.230469 622.597656 667.472656 C 622.589844 671.671875 624.359375 678.902344 632.839844 689.53125 L 633.015625 689.753906 C 634.855469 692.070312 634.105469 699.191406 633.933594 700.597656 C 633.878906 701.070312 633.53125 701.460938 633.0625 701.574219 C 632.855469 701.621094 630.855469 702.078125 628.007812 702.078125 " fill-opacity="1" fill-rule="nonzero"/><path fill="#ffffff" d="M 606.28125 667.570312 C 606.28125 667.570312 608.320312 697.167969 630.277344 696.535156 L 606.28125 667.570312 " fill-opacity="1" fill-rule="nonzero"/><path fill="#000000" d="M 629.582031 697.6875 C 607.464844 697.6875 605.160156 667.949219 605.136719 667.644531 C 605.09375 667.015625 605.570312 666.472656 606.199219 666.429688 C 606.835938 666.382812 607.375 666.859375 607.421875 667.488281 C 607.5 668.640625 609.601562 695.402344 629.582031 695.402344 C 629.800781 695.402344 630.019531 695.398438 630.246094 695.390625 C 630.867188 695.367188 631.402344 695.867188 631.417969 696.5 C 631.4375 697.132812 630.941406 697.65625 630.308594 697.679688 C 630.066406 697.683594 629.820312 697.6875 629.582031 697.6875 " fill-opacity="1" fill-rule="nonzero"/><path fill="#000000" d="M 663.203125 482.179688 C 663.203125 482.179688 681.765625 536.824219 681.859375 572.8125 C 681.949219 608.800781 631.066406 656.519531 631.066406 656.519531 L 620.554688 647.398438 C 620.554688 647.398438 639.277344 627.542969 642.859375 600.675781 C 646.441406 573.8125 635.558594 523.089844 635.558594 523.089844 L 631.5 487.261719 L 663.203125 482.179688 " fill-opacity="1" fill-rule="nonzero"/><path fill="#ffffff" d="M 635.84375 659.070312 C 635.75 660.039062 636.75 673.5625 640.941406 682.054688 C 640.941406 682.054688 639.003906 688.289062 633.078125 687.167969 C 633.078125 687.167969 623.972656 669.824219 622.0625 658.589844 L 635.84375 659.070312 " fill-opacity="1" fill-rule="nonzero"/><path fill="#000000" d="M 633.824219 686.125 C 637.574219 686.519531 639.230469 683.285156 639.703125 682.121094 C 636.214844 674.726562 634.945312 663.898438 634.730469 660.175781 L 623.453125 659.78125 C 625.535156 669.597656 632.390625 683.316406 633.824219 686.125 Z M 634.453125 688.445312 C 633.949219 688.445312 633.421875 688.398438 632.867188 688.292969 C 632.523438 688.230469 632.230469 688.007812 632.066406 687.699219 C 631.691406 686.984375 622.851562 670.0625 620.933594 658.785156 C 620.875 658.445312 620.972656 658.097656 621.199219 657.835938 C 621.425781 657.578125 621.757812 657.433594 622.101562 657.449219 L 635.882812 657.929688 C 636.195312 657.941406 636.492188 658.078125 636.699219 658.320312 C 636.90625 658.554688 637.007812 658.859375 636.980469 659.175781 C 636.929688 660.046875 637.835938 673.179688 641.96875 681.546875 C 642.09375 681.8125 642.121094 682.117188 642.03125 682.394531 C 641.335938 684.632812 638.914062 688.445312 634.453125 688.445312 " fill-opacity="1" fill-rule="nonzero"/><path fill="#ffffff" d="M 629.773438 680.683594 C 629.773438 680.683594 628.261719 698.421875 630.492188 703.445312 C 630.492188 703.445312 647.367188 712.128906 666.957031 712.105469 C 668.34375 712.101562 669.484375 710.976562 669.472656 709.585938 C 669.441406 706.230469 668.5625 700.105469 663.203125 695.253906 C 655.410156 688.199219 638.6875 676.617188 638.6875 676.617188 L 635.316406 680.707031 L 636.730469 687.167969 L 629.773438 680.683594 " fill-opacity="1" fill-rule="nonzero"/><path fill="#000000" d="M 631.390625 702.613281 C 633.972656 703.859375 649.425781 710.960938 666.875 710.960938 C 667.273438 710.960938 667.65625 710.835938 667.9375 710.550781 C 668.195312 710.292969 668.332031 709.953125 668.328125 709.59375 C 668.300781 706.523438 667.5 700.6875 662.4375 696.101562 C 655.792969 690.089844 642.417969 680.621094 638.898438 678.160156 L 636.550781 681.003906 L 637.847656 686.921875 C 637.953125 687.414062 637.730469 687.914062 637.292969 688.160156 C 636.863281 688.410156 636.316406 688.347656 635.949219 688.003906 L 630.738281 683.140625 C 630.371094 688.859375 630.058594 698.894531 631.390625 702.613281 Z M 666.871094 713.25 C 647.265625 713.25 630.667969 704.820312 629.96875 704.460938 C 629.738281 704.34375 629.550781 704.148438 629.445312 703.90625 C 627.125 698.675781 628.574219 681.320312 628.636719 680.585938 C 628.671875 680.144531 628.957031 679.769531 629.363281 679.613281 C 629.773438 679.453125 630.234375 679.542969 630.554688 679.84375 L 634.832031 683.832031 L 634.199219 680.949219 C 634.125 680.605469 634.210938 680.246094 634.433594 679.976562 L 637.808594 675.886719 C 638.183594 675.433594 638.851562 675.339844 639.339844 675.675781 C 639.507812 675.796875 656.210938 687.382812 663.96875 694.40625 C 669.683594 699.578125 670.585938 706.128906 670.617188 709.578125 C 670.621094 710.546875 670.25 711.464844 669.5625 712.160156 C 668.867188 712.859375 667.941406 713.246094 666.957031 713.25 C 666.925781 713.25 666.898438 713.25 666.871094 713.25 " fill-opacity="1" fill-rule="nonzero"/><path fill="#ffffff" d="M 631.800781 698.199219 C 631.800781 698.199219 647.847656 708.339844 667.046875 707.179688 L 631.800781 698.199219 " fill-opacity="1" fill-rule="nonzero"/><path fill="#000000" d="M 663.921875 708.414062 C 646.046875 708.414062 631.824219 699.5625 631.191406 699.167969 C 630.660156 698.828125 630.5 698.125 630.835938 697.585938 C 631.171875 697.054688 631.875 696.894531 632.414062 697.230469 C 632.570312 697.332031 648.386719 707.15625 666.980469 706.035156 C 667.605469 705.992188 668.152344 706.480469 668.191406 707.109375 C 668.230469 707.742188 667.75 708.285156 667.117188 708.320312 C 666.039062 708.382812 664.976562 708.414062 663.921875 708.414062 " fill-opacity="1" fill-rule="nonzero"/><path fill="#000000" d="M 606.246094 482.179688 C 606.246094 482.179688 594.492188 561.046875 622.0625 665.304688 L 638.6875 662.917969 C 638.6875 662.917969 629.71875 571.777344 651.207031 523.597656 L 655.992188 480.042969 L 606.246094 482.179688 " fill-opacity="1" fill-rule="nonzero"/><path fill="#000000" d="M 611.582031 361.167969 C 609.355469 365.644531 612.519531 367.222656 610.976562 375.910156 C 609.839844 382.292969 607.546875 384.738281 609.070312 387.914062 C 610.441406 390.773438 613.742188 391.804688 615.925781 392.484375 C 625.824219 395.570312 635.367188 390.550781 641.222656 387.46875 C 645.964844 384.972656 652.460938 381.550781 652.023438 378.085938 C 651.589844 374.660156 644.894531 375.136719 641.742188 369.398438 C 639.207031 364.78125 642.121094 361.882812 639.453125 357.976562 C 636.003906 352.921875 627.953125 353.132812 626.660156 353.167969 C 621.484375 353.304688 614.324219 355.660156 611.582031 361.167969 " fill-opacity="1" fill-rule="nonzero"/><path fill="#ffffff" d="M 666.90625 387.621094 L 640.871094 394.144531 C 640.394531 394.25 639.914062 393.980469 639.757812 393.523438 C 637.984375 388.53125 640.746094 382.945312 641.539062 381.496094 C 641.667969 381.265625 641.882812 381.105469 642.132812 381.039062 C 643.421875 380.691406 644.589844 380.230469 645.636719 379.675781 C 646.929688 378.988281 647.457031 377.40625 646.867188 376.070312 C 645.917969 373.910156 644.878906 371.003906 644.296875 369.8125 C 644.152344 369.523438 644.15625 369.175781 644.335938 368.910156 C 644.78125 368.25 645.472656 367.75 645.386719 366.761719 C 645.355469 366.386719 645.097656 366.058594 644.738281 365.949219 C 641.46875 364.984375 638.9375 360.074219 636.753906 358.578125 C 635.714844 357.867188 635.007812 357.679688 633.839844 357.039062 C 633.644531 356.929688 633.410156 356.886719 633.191406 356.929688 C 627.636719 358.136719 636.152344 365.039062 628.871094 369.089844 C 628.507812 369.289062 628.289062 369.699219 628.375 370.109375 C 628.5 370.710938 628.472656 371.519531 628.398438 372.265625 C 628.398438 372.273438 628.398438 372.28125 628.394531 372.289062 C 628.320312 373.039062 627.433594 373.40625 626.851562 372.929688 C 625.75 372.03125 624.621094 371.769531 623.957031 372.160156 C 623.015625 372.710938 623.074219 374.53125 623.410156 375.628906 C 624.074219 377.800781 626.34375 378.808594 627.636719 379.210938 C 628.128906 379.363281 628.40625 379.882812 628.261719 380.378906 C 627.402344 383.371094 624.796875 392.726562 624.597656 396.976562 C 624.578125 397.414062 624.273438 397.78125 623.847656 397.875 L 618.878906 398.960938 C 611.398438 400.605469 602.515625 405.128906 596.792969 410.222656 L 589.40625 416.421875 C 588.832031 416.933594 586.242188 418.464844 586.78125 419.015625 C 602.253906 434.753906 632.636719 424.910156 643.882812 419.914062 C 654.792969 415.078125 665.664062 392.484375 669.679688 396.996094 C 672.320312 399.960938 667.640625 387.460938 666.90625 387.621094 " fill-opacity="1" fill-rule="nonzero"/><path fill="#000000" d="M 633.4375 358.050781 C 633.4375 358.050781 633.433594 358.050781 633.433594 358.050781 C 633.433594 358.050781 633.4375 358.050781 633.4375 358.050781 Z M 588.167969 418.773438 C 605.289062 435.089844 639.53125 420.597656 643.421875 418.871094 C 648.503906 416.613281 653.867188 409.957031 658.179688 404.605469 C 662.949219 398.683594 665.773438 395.324219 668.363281 395.261719 C 668.574219 395.257812 668.78125 395.273438 668.980469 395.316406 C 668.382812 393.253906 667.160156 390.109375 666.5 388.902344 L 641.144531 395.253906 C 640.082031 395.488281 639.03125 394.90625 638.679688 393.90625 C 636.761719 388.507812 639.617188 382.621094 640.539062 380.945312 C 640.808594 380.453125 641.285156 380.082031 641.832031 379.933594 C 643.011719 379.617188 644.109375 379.191406 645.101562 378.667969 C 645.855469 378.265625 646.171875 377.328125 645.824219 376.53125 C 645.355469 375.476562 644.867188 374.234375 644.4375 373.140625 C 643.980469 371.984375 643.554688 370.898438 643.269531 370.320312 C 642.941406 369.652344 642.988281 368.867188 643.386719 368.269531 C 643.515625 368.078125 643.65625 367.902344 643.800781 367.726562 C 644.105469 367.351562 644.226562 367.183594 644.246094 366.996094 C 641.976562 366.246094 640.160156 364.050781 638.554688 362.113281 C 637.660156 361.027344 636.8125 360.003906 636.109375 359.523438 C 635.550781 359.140625 635.109375 358.933594 634.550781 358.667969 C 634.183594 358.5 633.796875 358.316406 633.34375 358.074219 C 633 358.15625 632.59375 358.300781 632.441406 358.539062 C 632.167969 358.96875 632.414062 360.042969 632.65625 361.085938 C 633.238281 363.609375 634.117188 367.417969 629.523438 370.03125 C 629.628906 370.648438 629.628906 371.417969 629.535156 372.375 C 629.457031 373.167969 628.96875 373.828125 628.253906 374.125 C 627.542969 374.417969 626.726562 374.304688 626.128906 373.816406 C 625.28125 373.125 624.65625 373.082031 624.535156 373.144531 C 624.34375 373.292969 624.199219 374.300781 624.5 375.292969 C 625.011719 376.964844 626.898438 377.78125 627.976562 378.121094 C 629.070312 378.460938 629.679688 379.59375 629.363281 380.699219 C 628.5625 383.484375 625.933594 392.886719 625.738281 397.03125 C 625.695312 397.980469 625.015625 398.789062 624.089844 398.988281 L 619.121094 400.082031 C 611.8125 401.683594 603.144531 406.101562 597.554688 411.078125 L 590.140625 417.296875 C 589.976562 417.445312 589.699219 417.640625 589.34375 417.894531 C 589.066406 418.089844 588.542969 418.464844 588.167969 418.773438 Z M 610.589844 428.703125 C 601.578125 428.703125 592.550781 426.511719 585.964844 419.816406 C 585.675781 419.515625 585.53125 419.125 585.570312 418.707031 C 585.652344 417.777344 586.550781 417.074219 588.019531 416.03125 C 588.289062 415.835938 588.523438 415.675781 588.648438 415.566406 L 596.058594 409.347656 C 601.894531 404.15625 610.976562 399.527344 618.632812 397.847656 L 623.460938 396.789062 C 623.703125 392.535156 626.050781 383.957031 627.113281 380.246094 C 625.582031 379.734375 623.101562 378.535156 622.316406 375.964844 C 621.882812 374.542969 621.808594 372.09375 623.378906 371.171875 C 624.429688 370.558594 625.90625 370.8125 627.289062 371.824219 C 627.347656 371.027344 627.304688 370.582031 627.253906 370.339844 C 627.074219 369.460938 627.507812 368.535156 628.316406 368.085938 C 631.515625 366.3125 631.011719 364.125 630.429688 361.601562 C 630.066406 360.03125 629.726562 358.550781 630.511719 357.316406 C 630.988281 356.558594 631.789062 356.066406 632.949219 355.816406 C 633.421875 355.710938 633.9375 355.785156 634.386719 356.035156 C 634.816406 356.265625 635.179688 356.441406 635.523438 356.597656 C 636.121094 356.878906 636.6875 357.144531 637.402344 357.632812 C 638.367188 358.296875 639.316406 359.441406 640.316406 360.652344 C 641.753906 362.386719 643.378906 364.355469 645.0625 364.855469 C 645.867188 365.089844 646.453125 365.820312 646.527344 366.667969 C 646.632812 367.875 645.996094 368.652344 645.578125 369.167969 C 645.507812 369.25 645.4375 369.335938 645.375 369.421875 C 645.691406 370.089844 646.097656 371.117188 646.566406 372.300781 C 646.984375 373.375 647.464844 374.59375 647.910156 375.605469 C 648.742188 377.496094 647.976562 379.730469 646.171875 380.6875 C 645.046875 381.28125 643.816406 381.765625 642.5 382.121094 C 641.859375 383.316406 639.292969 388.503906 640.78125 392.988281 L 666.628906 386.511719 C 666.640625 386.507812 666.648438 386.507812 666.660156 386.503906 C 667.707031 386.277344 668.320312 387.058594 669.640625 390.320312 C 672.53125 397.425781 671.550781 398.035156 670.96875 398.402344 C 670.503906 398.6875 669.761719 398.808594 668.828125 397.757812 C 668.652344 397.558594 668.527344 397.546875 668.417969 397.546875 C 666.761719 397.589844 663.148438 402.078125 659.957031 406.039062 C 655.257812 411.875 649.9375 418.484375 644.347656 420.960938 C 641.761719 422.109375 626.207031 428.703125 610.589844 428.703125 " fill-opacity="1" fill-rule="nonzero"/><path fill="#ffffff" d="M 633.992188 381.3125 C 633.992188 381.3125 637.460938 382.722656 641.453125 381.222656 L 633.992188 381.3125 " fill-opacity="1" fill-rule="nonzero"/><path fill="#000000" d="M 637.605469 383.058594 C 635.289062 383.058594 633.667969 382.414062 633.5625 382.375 C 632.976562 382.136719 632.695312 381.46875 632.933594 380.882812 C 633.171875 380.300781 633.835938 380.015625 634.417969 380.253906 C 634.453125 380.265625 637.558594 381.464844 641.050781 380.152344 C 641.640625 379.929688 642.296875 380.226562 642.519531 380.820312 C 642.746094 381.410156 642.445312 382.070312 641.851562 382.292969 C 640.324219 382.867188 638.863281 383.058594 637.605469 383.058594 " fill-opacity="1" fill-rule="nonzero"/><path fill="#000000" d="M 615.417969 358.859375 C 615.417969 358.859375 613.746094 348.703125 605.695312 351.449219 C 597.644531 354.199219 605.453125 362.554688 611.535156 363.195312 C 617.621094 363.835938 615.417969 358.859375 615.417969 358.859375 " fill-opacity="1" fill-rule="nonzero"/><path fill="#ffffff" d="M 769.214844 320.449219 L 779.160156 310.8125 C 779.851562 310.144531 780.917969 310.066406 781.699219 310.625 C 782.585938 311.265625 782.792969 312.496094 782.164062 313.386719 L 779.011719 317.855469 L 781.546875 324.132812 C 782.328125 326.066406 781.824219 328.28125 780.277344 329.679688 L 776.195312 333.386719 C 774.148438 335.242188 771.175781 335.648438 768.707031 334.417969 L 767.046875 333.59375 C 764.484375 332.316406 763.015625 329.558594 763.390625 326.71875 L 763.828125 323.378906 C 764.101562 321.28125 766.085938 319.847656 768.160156 320.246094 L 769.214844 320.449219 " fill-opacity="1" fill-rule="nonzero"/><path fill="#000000" d="M 767.460938 321.320312 C 766.933594 321.320312 766.421875 321.488281 765.988281 321.804688 C 765.417969 322.21875 765.050781 322.828125 764.960938 323.527344 L 764.523438 326.867188 C 764.214844 329.222656 765.433594 331.507812 767.554688 332.566406 L 769.21875 333.394531 C 771.277344 334.421875 773.71875 334.085938 775.425781 332.539062 L 779.511719 328.835938 C 780.695312 327.761719 781.085938 326.046875 780.488281 324.5625 L 777.949219 318.285156 C 777.804688 317.925781 777.851562 317.511719 778.078125 317.195312 L 781.226562 312.726562 C 781.492188 312.351562 781.40625 311.824219 781.03125 311.554688 C 780.699219 311.316406 780.246094 311.351562 779.957031 311.636719 L 770.007812 321.269531 C 769.738281 321.527344 769.367188 321.640625 769 321.570312 L 767.941406 321.371094 C 767.785156 321.339844 767.621094 321.320312 767.460938 321.320312 Z M 771.707031 336.277344 C 770.519531 336.277344 769.316406 336 768.199219 335.441406 L 766.539062 334.617188 C 763.542969 333.125 761.820312 329.890625 762.257812 326.570312 L 762.691406 323.230469 C 762.863281 321.917969 763.578125 320.722656 764.648438 319.949219 C 765.71875 319.175781 767.078125 318.875 768.375 319.125 L 768.84375 319.214844 L 778.363281 309.988281 C 779.453125 308.9375 781.132812 308.816406 782.367188 309.699219 C 783.753906 310.699219 784.082031 312.648438 783.097656 314.046875 L 780.300781 318.003906 L 782.605469 323.707031 C 783.566406 326.074219 782.9375 328.816406 781.046875 330.527344 L 776.960938 334.234375 C 775.476562 335.578125 773.605469 336.277344 771.707031 336.277344 " fill-opacity="1" fill-rule="nonzero"/><path fill="#ffffff" d="M 769.214844 320.449219 L 772.929688 323.199219 C 772.929688 323.199219 771.699219 326.789062 769.214844 325.316406 L 769.214844 320.449219 " fill-opacity="1" fill-rule="nonzero"/><path fill="#000000" d="M 770.371094 326.8125 C 769.871094 326.8125 769.28125 326.6875 768.628906 326.300781 C 768.089844 325.976562 767.910156 325.273438 768.230469 324.730469 C 768.550781 324.191406 769.253906 324.011719 769.796875 324.332031 C 770.261719 324.609375 770.5 324.523438 770.589844 324.488281 C 770.933594 324.359375 771.257812 323.957031 771.496094 323.558594 L 768.535156 321.367188 C 768.027344 320.988281 767.917969 320.273438 768.296875 319.765625 C 768.667969 319.257812 769.386719 319.152344 769.890625 319.527344 L 773.609375 322.28125 C 774.007812 322.578125 774.171875 323.097656 774.011719 323.570312 C 773.925781 323.8125 773.136719 325.988281 771.375 326.632812 C 771.105469 326.734375 770.769531 326.8125 770.371094 326.8125 " fill-opacity="1" fill-rule="nonzero"/><path fill="#ffffff" d="M 779.683594 319.546875 L 775.496094 324.738281 L 779.683594 319.546875 " fill-opacity="1" fill-rule="nonzero"/><path fill="#000000" d="M 775.496094 325.882812 C 775.246094 325.882812 774.988281 325.800781 774.777344 325.632812 C 774.289062 325.234375 774.207031 324.511719 774.605469 324.019531 L 778.796875 318.824219 C 779.191406 318.332031 779.910156 318.257812 780.402344 318.652344 C 780.894531 319.050781 780.96875 319.769531 780.574219 320.261719 L 776.382812 325.457031 C 776.160156 325.738281 775.828125 325.882812 775.496094 325.882812 " fill-opacity="1" fill-rule="nonzero"/><path fill="#ffffff" d="M 780.964844 323.621094 L 777.589844 327.722656 L 780.964844 323.621094 " fill-opacity="1" fill-rule="nonzero"/><path fill="#000000" d="M 777.589844 328.867188 C 777.335938 328.867188 777.074219 328.78125 776.863281 328.601562 C 776.378906 328.203125 776.304688 327.484375 776.707031 326.996094 L 780.082031 322.894531 C 780.480469 322.40625 781.203125 322.335938 781.691406 322.738281 C 782.175781 323.140625 782.246094 323.859375 781.84375 324.347656 L 778.472656 328.449219 C 778.246094 328.722656 777.917969 328.867188 777.589844 328.867188 " fill-opacity="1" fill-rule="nonzero"/><path fill="#ffffff" d="M 602.160156 504.25 C 602.160156 504.25 611.03125 497.589844 616.125 496.476562 C 621.21875 495.367188 626.238281 498.773438 626.238281 498.773438 C 626.238281 498.773438 620.765625 501.820312 618.109375 502.167969 C 615.449219 502.519531 608.542969 515.261719 600.285156 511.179688 L 602.160156 504.25 " fill-opacity="1" fill-rule="nonzero"/><path fill="#000000" d="M 601.652344 510.511719 C 606.316406 512.074219 610.59375 507.617188 613.761719 504.3125 C 615.5625 502.433594 616.753906 501.195312 617.960938 501.035156 C 619.378906 500.847656 621.925781 499.703125 623.816406 498.753906 C 622.042969 497.933594 619.1875 496.980469 616.371094 497.59375 C 612.097656 498.53125 604.757812 503.765625 603.160156 504.933594 Z M 603.648438 513.144531 C 602.40625 513.144531 601.113281 512.867188 599.78125 512.207031 C 599.289062 511.964844 599.039062 511.40625 599.183594 510.882812 L 601.058594 503.949219 C 601.125 503.703125 601.269531 503.488281 601.476562 503.335938 C 601.84375 503.058594 610.605469 496.511719 615.882812 495.359375 C 621.394531 494.15625 626.660156 497.679688 626.878906 497.828125 C 627.210938 498.054688 627.398438 498.429688 627.378906 498.828125 C 627.363281 499.222656 627.140625 499.582031 626.792969 499.773438 C 626.214844 500.09375 621.050781 502.9375 618.257812 503.304688 C 617.789062 503.421875 616.414062 504.851562 615.414062 505.894531 C 612.523438 508.90625 608.457031 513.144531 603.648438 513.144531 " fill-opacity="1" fill-rule="nonzero"/><path fill="#99b9ff" d="M 610 400.429688 L 614.304688 398.773438 C 614.304688 398.773438 640.34375 415.449219 651.644531 390.199219 L 657.617188 388.480469 L 669.679688 422.6875 L 609.03125 438.855469 L 610 400.429688 " fill-opacity="1" fill-rule="nonzero"/><path fill="#5479f7" d="M 769.667969 338.269531 C 765.460938 336.941406 761.25 335.617188 757.039062 334.296875 C 739.3125 354.941406 721.960938 365.550781 708.800781 371.453125 C 692.59375 378.722656 664.699219 386.957031 664.699219 386.957031 C 664.699219 386.957031 664.746094 400.183594 642.910156 415.28125 C 621.074219 430.375 587.636719 415.378906 587.636719 415.378906 C 587.636719 415.378906 550.589844 447.027344 548.445312 466.042969 C 544.878906 497.632812 599.847656 512.796875 599.847656 512.796875 L 602.160156 504.25 C 602.160156 504.25 580.039062 486.238281 584.839844 467.96875 C 589.640625 449.707031 601.996094 441.613281 601.996094 441.613281 C 605.679688 462.707031 604.09375 487.261719 604.09375 487.261719 C 640.417969 496.511719 671.753906 484.597656 685.59375 477.78125 C 690.304688 475.460938 692.9375 470.339844 692.128906 465.148438 C 689.078125 445.613281 681.425781 420.953125 681.425781 420.953125 C 689.816406 420.515625 698.863281 418.898438 708.054688 415.328125 C 752.933594 397.890625 767.324219 347.046875 769.667969 338.269531 " fill-opacity="1" fill-rule="nonzero"/><path fill="#99b9ff" d="M 645.296875 477.417969 C 644.847656 477.417969 644.417969 477.148438 644.242188 476.707031 C 644.003906 476.121094 644.28125 475.457031 644.867188 475.21875 C 671.398438 464.332031 675.292969 434.300781 675.332031 434 C 675.40625 433.371094 675.976562 432.925781 676.601562 433.003906 C 677.226562 433.074219 677.675781 433.644531 677.601562 434.269531 C 677.5625 434.589844 673.496094 465.945312 645.734375 477.332031 C 645.589844 477.390625 645.441406 477.417969 645.296875 477.417969 " fill-opacity="1" fill-rule="nonzero"/><path fill="#ffffff" d="M 640.78125 572.09375 C 640.152344 572.09375 639.644531 571.585938 639.636719 570.957031 C 639.566406 559.003906 642.882812 535.925781 648.03125 528.394531 C 648.390625 527.871094 649.101562 527.734375 649.621094 528.09375 C 650.144531 528.449219 650.277344 529.160156 649.917969 529.683594 C 645.183594 536.609375 641.859375 559.136719 641.921875 570.941406 C 641.925781 571.574219 641.417969 572.085938 640.785156 572.09375 C 640.785156 572.09375 640.785156 572.09375 640.78125 572.09375 " fill-opacity="1" fill-rule="nonzero"/><path fill="#ffffff" d="M 637.511719 640.847656 C 636.910156 640.847656 636.40625 640.378906 636.371094 639.769531 C 635.75 628.617188 637.535156 610.304688 637.554688 610.121094 C 637.617188 609.492188 638.171875 609.035156 638.804688 609.097656 C 639.433594 609.15625 639.890625 609.71875 639.828125 610.347656 C 639.8125 610.527344 638.042969 628.667969 638.65625 639.644531 C 638.6875 640.273438 638.207031 640.8125 637.578125 640.847656 C 637.558594 640.847656 637.53125 640.847656 637.511719 640.847656 " fill-opacity="1" fill-rule="nonzero"/></svg>