<svg xmlns="http://www.w3.org/2000/svg" xmlns:xlink="http://www.w3.org/1999/xlink" width="1920" zoomAndPan="magnify" viewBox="0 0 1440 809.999993" height="1080" preserveAspectRatio="xMidYMid meet" version="1.0"><defs><clipPath id="7c20b85990"><path d="M 468 621 L 492 621 L 492 644.734375 L 468 644.734375 Z M 468 621 " clip-rule="nonzero"/></clipPath><clipPath id="601b53daca"><path d="M 388.707031 165.484375 L 971 165.484375 L 971 644.734375 L 388.707031 644.734375 Z M 388.707031 165.484375 " clip-rule="nonzero"/></clipPath><clipPath id="3eeb6a86e5"><path d="M 503 165.484375 L 1050.957031 165.484375 L 1050.957031 644.734375 L 503 644.734375 Z M 503 165.484375 " clip-rule="nonzero"/></clipPath></defs><path fill="#d0e8f2" d="M 1039.363281 199.71875 C 1039.363281 187.109375 1029.152344 176.894531 1016.542969 176.894531 C 917.144531 176.894531 522.519531 176.894531 423.121094 176.894531 C 410.511719 176.894531 400.296875 187.109375 400.296875 199.71875 C 400.296875 277.628906 400.296875 532.589844 400.296875 610.503906 C 400.296875 623.113281 410.511719 633.324219 423.121094 633.324219 C 522.519531 633.324219 917.144531 633.324219 1016.542969 633.324219 C 1029.152344 633.324219 1039.363281 623.113281 1039.363281 610.503906 C 1039.363281 532.589844 1039.363281 277.628906 1039.363281 199.71875 Z M 1039.363281 199.71875 " fill-opacity="1" fill-rule="evenodd"/><path fill="#4a829d" d="M 400.296875 279.59375 L 1039.363281 279.59375 L 1039.363281 199.71875 C 1039.363281 187.109375 1029.152344 176.894531 1016.542969 176.894531 C 917.144531 176.894531 522.519531 176.894531 423.121094 176.894531 C 410.511719 176.894531 400.296875 187.109375 400.296875 199.71875 Z M 400.296875 279.59375 " fill-opacity="1" fill-rule="evenodd"/><path fill="#f9c74a" d="M 697.007812 433.636719 C 697.007812 429.09375 695.203125 424.746094 692 421.53125 C 688.78125 418.324219 684.433594 416.519531 679.890625 416.519531 C 635.773438 416.519531 518.59375 416.519531 474.476562 416.519531 C 469.933594 416.519531 465.585938 418.324219 462.367188 421.53125 C 459.160156 424.746094 457.359375 429.09375 457.359375 433.636719 C 457.359375 466.429688 457.359375 537.769531 457.359375 570.566406 C 457.359375 575.105469 459.160156 579.453125 462.367188 582.671875 C 465.585938 585.878906 469.933594 587.679688 474.476562 587.679688 C 518.59375 587.679688 635.773438 587.679688 679.890625 587.679688 C 684.433594 587.679688 688.78125 585.878906 692 582.671875 C 695.203125 579.453125 697.007812 575.105469 697.007812 570.566406 C 697.007812 537.769531 697.007812 466.429688 697.007812 433.636719 Z M 697.007812 433.636719 " fill-opacity="1" fill-rule="evenodd"/><path fill="#e35050" d="M 618.335938 497 C 620.261719 497.957031 621.484375 499.945312 621.484375 502.101562 C 621.484375 504.257812 620.261719 506.242188 618.335938 507.203125 C 602.324219 515.210938 571.625 530.558594 556.914062 537.90625 C 555.148438 538.796875 553.046875 538.695312 551.359375 537.65625 C 549.679688 536.617188 548.652344 534.78125 548.652344 532.808594 C 548.652344 517.4375 548.652344 486.765625 548.652344 471.394531 C 548.652344 469.421875 549.679688 467.582031 551.359375 466.546875 C 553.046875 465.507812 555.148438 465.402344 556.914062 466.292969 C 571.625 473.644531 602.324219 488.988281 618.335938 497 Z M 618.335938 497 " fill-opacity="1" fill-rule="evenodd"/><path fill="#e35050" d="M 474.476562 370.878906 C 461.878906 370.878906 451.652344 360.652344 451.652344 348.054688 C 451.652344 335.457031 461.878906 325.234375 474.476562 325.234375 L 965.1875 325.234375 C 977.785156 325.234375 988.011719 335.457031 988.011719 348.054688 C 988.011719 360.652344 977.785156 370.878906 965.1875 370.878906 Z M 474.476562 370.878906 " fill-opacity="1" fill-rule="evenodd"/><g clip-path="url(#7c20b85990)"><path fill="#000000" d="M 491.59375 633.324219 C 491.59375 634.074219 491.519531 634.816406 491.375 635.550781 C 491.226562 636.285156 491.011719 637 490.726562 637.691406 C 490.4375 638.382812 490.085938 639.039062 489.671875 639.664062 C 489.253906 640.285156 488.78125 640.863281 488.25 641.394531 C 487.722656 641.921875 487.144531 642.394531 486.523438 642.8125 C 485.898438 643.226562 485.242188 643.578125 484.550781 643.867188 C 483.855469 644.152344 483.144531 644.371094 482.40625 644.515625 C 481.671875 644.660156 480.929688 644.734375 480.183594 644.734375 C 479.433594 644.734375 478.691406 644.660156 477.957031 644.515625 C 477.21875 644.371094 476.507812 644.152344 475.816406 643.867188 C 475.121094 643.578125 474.464844 643.226562 473.839844 642.8125 C 473.21875 642.394531 472.640625 641.921875 472.113281 641.394531 C 471.582031 640.863281 471.109375 640.285156 470.691406 639.664062 C 470.277344 639.039062 469.925781 638.382812 469.636719 637.691406 C 469.351562 637 469.136719 636.285156 468.988281 635.550781 C 468.84375 634.816406 468.769531 634.074219 468.769531 633.324219 C 468.769531 632.574219 468.84375 631.832031 468.988281 631.097656 C 469.136719 630.363281 469.351562 629.648438 469.636719 628.957031 C 469.925781 628.265625 470.277344 627.609375 470.691406 626.984375 C 471.109375 626.363281 471.582031 625.785156 472.113281 625.253906 C 472.640625 624.726562 473.21875 624.253906 473.839844 623.835938 C 474.464844 623.421875 475.121094 623.070312 475.816406 622.78125 C 476.507812 622.496094 477.21875 622.277344 477.957031 622.132812 C 478.691406 621.988281 479.433594 621.914062 480.183594 621.914062 C 480.929688 621.914062 481.671875 621.988281 482.40625 622.132812 C 483.144531 622.277344 483.855469 622.496094 484.550781 622.78125 C 485.242188 623.070312 485.898438 623.421875 486.523438 623.835938 C 487.144531 624.253906 487.722656 624.726562 488.25 625.253906 C 488.78125 625.785156 489.253906 626.363281 489.671875 626.984375 C 490.085938 627.609375 490.4375 628.265625 490.726562 628.957031 C 491.011719 629.648438 491.226562 630.363281 491.375 631.097656 C 491.519531 631.832031 491.59375 632.574219 491.59375 633.324219 Z M 491.59375 633.324219 " fill-opacity="1" fill-rule="nonzero"/></g><g clip-path="url(#601b53daca)"><path fill="#000000" d="M 411.710938 291.003906 L 617.125 291.003906 C 623.425781 291.003906 628.535156 285.890625 628.535156 279.59375 C 628.535156 273.292969 623.425781 268.179688 617.125 268.179688 L 411.710938 268.179688 L 411.710938 199.71875 C 411.710938 193.417969 416.824219 188.304688 423.121094 188.304688 C 423.121094 188.304688 959.480469 188.304688 959.480469 188.304688 C 965.78125 188.304688 970.894531 183.195312 970.894531 176.894531 C 970.894531 170.597656 965.78125 165.484375 959.480469 165.484375 C 959.480469 165.484375 516.09375 165.484375 423.121094 165.484375 C 404.210938 165.484375 388.886719 180.808594 388.886719 199.71875 L 388.886719 610.503906 C 388.886719 629.410156 404.210938 644.734375 423.121094 644.734375 L 445.945312 644.734375 C 452.246094 644.734375 457.359375 639.621094 457.359375 633.324219 C 457.359375 627.027344 452.246094 621.914062 445.945312 621.914062 L 423.121094 621.914062 C 416.824219 621.914062 411.710938 616.800781 411.710938 610.503906 Z M 411.710938 291.003906 " fill-opacity="1" fill-rule="evenodd"/></g><g clip-path="url(#3eeb6a86e5)"><path fill="#000000" d="M 1027.953125 268.179688 L 651.359375 268.179688 C 645.0625 268.179688 639.949219 273.292969 639.949219 279.59375 C 639.949219 285.890625 645.0625 291.003906 651.359375 291.003906 L 1027.953125 291.003906 L 1027.953125 610.503906 C 1027.953125 616.800781 1022.839844 621.914062 1016.542969 621.914062 C 1016.542969 621.914062 514.417969 621.914062 514.417969 621.914062 C 508.117188 621.914062 503.003906 627.027344 503.003906 633.324219 C 503.003906 639.621094 508.117188 644.734375 514.417969 644.734375 C 514.417969 644.734375 928.679688 644.734375 1016.542969 644.734375 C 1035.449219 644.734375 1050.777344 629.410156 1050.777344 610.503906 L 1050.777344 199.71875 C 1050.777344 180.808594 1035.449219 165.484375 1016.542969 165.484375 L 993.71875 165.484375 C 987.417969 165.484375 982.304688 170.597656 982.304688 176.894531 C 982.304688 183.195312 987.417969 188.304688 993.71875 188.304688 L 1016.542969 188.304688 C 1022.839844 188.304688 1027.953125 193.417969 1027.953125 199.71875 Z M 1027.953125 268.179688 " fill-opacity="1" fill-rule="evenodd"/></g><path fill="#000000" d="M 468.769531 228.242188 C 468.769531 228.804688 468.742188 229.363281 468.6875 229.921875 C 468.632812 230.480469 468.550781 231.035156 468.441406 231.582031 C 468.332031 232.132812 468.195312 232.675781 468.03125 233.210938 C 467.871094 233.75 467.679688 234.277344 467.464844 234.792969 C 467.253906 235.3125 467.011719 235.816406 466.75 236.3125 C 466.484375 236.804688 466.195312 237.285156 465.886719 237.753906 C 465.574219 238.21875 465.238281 238.667969 464.882812 239.101562 C 464.527344 239.535156 464.152344 239.949219 463.757812 240.347656 C 463.359375 240.742188 462.945312 241.117188 462.511719 241.476562 C 462.078125 241.832031 461.628906 242.164062 461.160156 242.476562 C 460.695312 242.785156 460.214844 243.074219 459.722656 243.339844 C 459.226562 243.601562 458.71875 243.84375 458.203125 244.058594 C 457.683594 244.273438 457.15625 244.460938 456.621094 244.621094 C 456.085938 244.785156 455.542969 244.921875 454.992188 245.03125 C 454.441406 245.140625 453.886719 245.222656 453.328125 245.277344 C 452.773438 245.332031 452.210938 245.359375 451.652344 245.359375 C 451.089844 245.359375 450.53125 245.332031 449.972656 245.277344 C 449.417969 245.222656 448.863281 245.140625 448.3125 245.03125 C 447.761719 244.921875 447.21875 244.785156 446.683594 244.621094 C 446.144531 244.460938 445.621094 244.273438 445.101562 244.058594 C 444.582031 243.84375 444.078125 243.601562 443.582031 243.339844 C 443.089844 243.074219 442.609375 242.785156 442.140625 242.476562 C 441.675781 242.164062 441.226562 241.832031 440.792969 241.476562 C 440.359375 241.117188 439.945312 240.742188 439.546875 240.347656 C 439.152344 239.949219 438.773438 239.535156 438.417969 239.101562 C 438.0625 238.667969 437.730469 238.21875 437.417969 237.753906 C 437.109375 237.285156 436.820312 236.804688 436.554688 236.3125 C 436.292969 235.816406 436.050781 235.3125 435.835938 234.792969 C 435.621094 234.277344 435.433594 233.75 435.269531 233.210938 C 435.109375 232.675781 434.972656 232.132812 434.863281 231.582031 C 434.753906 231.035156 434.671875 230.480469 434.617188 229.921875 C 434.5625 229.363281 434.535156 228.804688 434.535156 228.242188 C 434.535156 227.683594 434.5625 227.125 434.617188 226.566406 C 434.671875 226.007812 434.753906 225.453125 434.863281 224.90625 C 434.972656 224.355469 435.109375 223.8125 435.269531 223.273438 C 435.433594 222.738281 435.621094 222.210938 435.835938 221.695312 C 436.050781 221.175781 436.292969 220.667969 436.554688 220.175781 C 436.820312 219.679688 437.109375 219.199219 437.417969 218.734375 C 437.730469 218.269531 438.0625 217.820312 438.417969 217.386719 C 438.773438 216.953125 439.152344 216.539062 439.546875 216.140625 C 439.945312 215.746094 440.359375 215.367188 440.792969 215.011719 C 441.226562 214.65625 441.675781 214.324219 442.140625 214.011719 C 442.609375 213.699219 443.089844 213.414062 443.582031 213.148438 C 444.078125 212.882812 444.582031 212.644531 445.101562 212.429688 C 445.621094 212.214844 446.144531 212.027344 446.683594 211.863281 C 447.21875 211.703125 447.761719 211.566406 448.3125 211.457031 C 448.863281 211.347656 449.417969 211.265625 449.972656 211.210938 C 450.53125 211.15625 451.089844 211.128906 451.652344 211.128906 C 452.210938 211.128906 452.773438 211.15625 453.328125 211.210938 C 453.886719 211.265625 454.441406 211.347656 454.992188 211.457031 C 455.542969 211.566406 456.085938 211.703125 456.621094 211.863281 C 457.15625 212.027344 457.683594 212.214844 458.203125 212.429688 C 458.71875 212.644531 459.226562 212.882812 459.722656 213.148438 C 460.214844 213.414062 460.695312 213.699219 461.160156 214.011719 C 461.628906 214.324219 462.078125 214.65625 462.511719 215.011719 C 462.945312 215.367188 463.359375 215.746094 463.757812 216.140625 C 464.152344 216.539062 464.527344 216.953125 464.882812 217.386719 C 465.238281 217.820312 465.574219 218.269531 465.886719 218.734375 C 466.195312 219.199219 466.484375 219.679688 466.75 220.175781 C 467.011719 220.667969 467.253906 221.175781 467.464844 221.695312 C 467.679688 222.210938 467.871094 222.738281 468.03125 223.273438 C 468.195312 223.8125 468.332031 224.355469 468.441406 224.90625 C 468.550781 225.453125 468.632812 226.007812 468.6875 226.566406 C 468.742188 227.125 468.769531 227.683594 468.769531 228.242188 Z M 468.769531 228.242188 " fill-opacity="1" fill-rule="nonzero"/><path fill="#000000" d="M 525.828125 228.242188 C 525.828125 228.804688 525.800781 229.363281 525.746094 229.921875 C 525.691406 230.480469 525.609375 231.035156 525.5 231.582031 C 525.390625 232.132812 525.253906 232.675781 525.09375 233.210938 C 524.929688 233.75 524.742188 234.277344 524.527344 234.792969 C 524.3125 235.3125 524.074219 235.816406 523.808594 236.3125 C 523.542969 236.804688 523.257812 237.285156 522.945312 237.753906 C 522.632812 238.21875 522.300781 238.667969 521.945312 239.101562 C 521.589844 239.535156 521.210938 239.949219 520.816406 240.347656 C 520.417969 240.742188 520.003906 241.117188 519.570312 241.476562 C 519.136719 241.832031 518.6875 242.164062 518.222656 242.476562 C 517.753906 242.785156 517.273438 243.074219 516.78125 243.339844 C 516.285156 243.601562 515.78125 243.84375 515.261719 244.058594 C 514.746094 244.273438 514.21875 244.460938 513.679688 244.621094 C 513.144531 244.785156 512.601562 244.921875 512.050781 245.03125 C 511.5 245.140625 510.945312 245.222656 510.390625 245.277344 C 509.832031 245.332031 509.273438 245.359375 508.710938 245.359375 C 508.152344 245.359375 507.589844 245.332031 507.035156 245.277344 C 506.476562 245.222656 505.921875 245.140625 505.371094 245.03125 C 504.820312 244.921875 504.277344 244.785156 503.742188 244.621094 C 503.207031 244.460938 502.679688 244.273438 502.160156 244.058594 C 501.644531 243.84375 501.136719 243.601562 500.640625 243.339844 C 500.148438 243.074219 499.667969 242.785156 499.203125 242.476562 C 498.734375 242.164062 498.285156 241.832031 497.851562 241.476562 C 497.417969 241.117188 497.003906 240.742188 496.605469 240.347656 C 496.210938 239.949219 495.835938 239.535156 495.480469 239.101562 C 495.125 238.667969 494.789062 238.21875 494.476562 237.753906 C 494.167969 237.285156 493.878906 236.804688 493.613281 236.3125 C 493.351562 235.816406 493.109375 235.3125 492.898438 234.792969 C 492.683594 234.277344 492.492188 233.75 492.332031 233.210938 C 492.167969 232.675781 492.03125 232.132812 491.921875 231.582031 C 491.8125 231.035156 491.730469 230.480469 491.675781 229.921875 C 491.621094 229.363281 491.59375 228.804688 491.59375 228.242188 C 491.59375 227.683594 491.621094 227.125 491.675781 226.566406 C 491.730469 226.007812 491.8125 225.453125 491.921875 224.90625 C 492.03125 224.355469 492.167969 223.8125 492.332031 223.273438 C 492.492188 222.738281 492.683594 222.210938 492.898438 221.695312 C 493.109375 221.175781 493.351562 220.667969 493.613281 220.175781 C 493.878906 219.679688 494.167969 219.199219 494.476562 218.734375 C 494.789062 218.269531 495.125 217.820312 495.480469 217.386719 C 495.835938 216.953125 496.210938 216.539062 496.605469 216.140625 C 497.003906 215.746094 497.417969 215.367188 497.851562 215.011719 C 498.285156 214.65625 498.734375 214.324219 499.203125 214.011719 C 499.667969 213.699219 500.148438 213.414062 500.640625 213.148438 C 501.136719 212.882812 501.644531 212.644531 502.160156 212.429688 C 502.679688 212.214844 503.207031 212.027344 503.742188 211.863281 C 504.277344 211.703125 504.820312 211.566406 505.371094 211.457031 C 505.921875 211.347656 506.476562 211.265625 507.035156 211.210938 C 507.589844 211.15625 508.152344 211.128906 508.710938 211.128906 C 509.273438 211.128906 509.832031 211.15625 510.390625 211.210938 C 510.945312 211.265625 511.5 211.347656 512.050781 211.457031 C 512.601562 211.566406 513.144531 211.703125 513.679688 211.863281 C 514.21875 212.027344 514.746094 212.214844 515.261719 212.429688 C 515.78125 212.644531 516.285156 212.882812 516.78125 213.148438 C 517.273438 213.414062 517.753906 213.699219 518.222656 214.011719 C 518.6875 214.324219 519.136719 214.65625 519.570312 215.011719 C 520.003906 215.367188 520.417969 215.746094 520.816406 216.140625 C 521.210938 216.539062 521.589844 216.953125 521.945312 217.386719 C 522.300781 217.820312 522.632812 218.269531 522.945312 218.734375 C 523.257812 219.199219 523.542969 219.679688 523.808594 220.175781 C 524.074219 220.667969 524.3125 221.175781 524.527344 221.695312 C 524.742188 222.210938 524.929688 222.738281 525.09375 223.273438 C 525.253906 223.8125 525.390625 224.355469 525.5 224.90625 C 525.609375 225.453125 525.691406 226.007812 525.746094 226.566406 C 525.800781 227.125 525.828125 227.683594 525.828125 228.242188 Z M 525.828125 228.242188 " fill-opacity="1" fill-rule="nonzero"/><path fill="#000000" d="M 582.890625 228.242188 C 582.890625 228.804688 582.863281 229.363281 582.804688 229.921875 C 582.75 230.480469 582.667969 231.035156 582.558594 231.582031 C 582.449219 232.132812 582.316406 232.675781 582.152344 233.210938 C 581.988281 233.75 581.800781 234.277344 581.585938 234.792969 C 581.371094 235.3125 581.132812 235.816406 580.867188 236.3125 C 580.601562 236.804688 580.316406 237.285156 580.003906 237.753906 C 579.691406 238.21875 579.359375 238.667969 579.003906 239.101562 C 578.648438 239.535156 578.273438 239.949219 577.875 240.347656 C 577.480469 240.742188 577.0625 241.117188 576.628906 241.476562 C 576.195312 241.832031 575.746094 242.164062 575.28125 242.476562 C 574.816406 242.785156 574.335938 243.074219 573.839844 243.339844 C 573.347656 243.601562 572.839844 243.84375 572.320312 244.058594 C 571.804688 244.273438 571.277344 244.460938 570.738281 244.621094 C 570.203125 244.785156 569.660156 244.921875 569.109375 245.03125 C 568.5625 245.140625 568.007812 245.222656 567.449219 245.277344 C 566.890625 245.332031 566.332031 245.359375 565.769531 245.359375 C 565.210938 245.359375 564.652344 245.332031 564.09375 245.277344 C 563.535156 245.222656 562.980469 245.140625 562.429688 245.03125 C 561.882812 244.921875 561.339844 244.785156 560.800781 244.621094 C 560.265625 244.460938 559.738281 244.273438 559.21875 244.058594 C 558.703125 243.84375 558.195312 243.601562 557.703125 243.339844 C 557.207031 243.074219 556.726562 242.785156 556.261719 242.476562 C 555.792969 242.164062 555.34375 241.832031 554.910156 241.476562 C 554.476562 241.117188 554.0625 240.742188 553.667969 240.347656 C 553.269531 239.949219 552.894531 239.535156 552.539062 239.101562 C 552.183594 238.667969 551.847656 238.21875 551.539062 237.753906 C 551.226562 237.285156 550.9375 236.804688 550.675781 236.3125 C 550.410156 235.816406 550.171875 235.3125 549.957031 234.792969 C 549.742188 234.277344 549.554688 233.75 549.390625 233.210938 C 549.226562 232.675781 549.089844 232.132812 548.980469 231.582031 C 548.871094 231.035156 548.789062 230.480469 548.734375 229.921875 C 548.679688 229.363281 548.652344 228.804688 548.652344 228.242188 C 548.652344 227.683594 548.679688 227.125 548.734375 226.566406 C 548.789062 226.007812 548.871094 225.453125 548.980469 224.90625 C 549.089844 224.355469 549.226562 223.8125 549.390625 223.273438 C 549.554688 222.738281 549.742188 222.210938 549.957031 221.695312 C 550.171875 221.175781 550.410156 220.667969 550.675781 220.175781 C 550.9375 219.679688 551.226562 219.199219 551.539062 218.734375 C 551.847656 218.269531 552.183594 217.820312 552.539062 217.386719 C 552.894531 216.953125 553.269531 216.539062 553.667969 216.140625 C 554.0625 215.746094 554.476562 215.367188 554.910156 215.011719 C 555.34375 214.65625 555.792969 214.324219 556.261719 214.011719 C 556.726562 213.699219 557.207031 213.414062 557.703125 213.148438 C 558.195312 212.882812 558.703125 212.644531 559.21875 212.429688 C 559.738281 212.214844 560.265625 212.027344 560.800781 211.863281 C 561.339844 211.703125 561.882812 211.566406 562.429688 211.457031 C 562.980469 211.347656 563.535156 211.265625 564.09375 211.210938 C 564.652344 211.15625 565.210938 211.128906 565.769531 211.128906 C 566.332031 211.128906 566.890625 211.15625 567.449219 211.210938 C 568.007812 211.265625 568.5625 211.347656 569.109375 211.457031 C 569.660156 211.566406 570.203125 211.703125 570.738281 211.863281 C 571.277344 212.027344 571.804688 212.214844 572.320312 212.429688 C 572.839844 212.644531 573.347656 212.882812 573.839844 213.148438 C 574.335938 213.414062 574.816406 213.699219 575.28125 214.011719 C 575.746094 214.324219 576.195312 214.65625 576.628906 215.011719 C 577.0625 215.367188 577.480469 215.746094 577.875 216.140625 C 578.273438 216.539062 578.648438 216.953125 579.003906 217.386719 C 579.359375 217.820312 579.691406 218.269531 580.003906 218.734375 C 580.316406 219.199219 580.601562 219.679688 580.867188 220.175781 C 581.132812 220.667969 581.371094 221.175781 581.585938 221.695312 C 581.800781 222.210938 581.988281 222.738281 582.152344 223.273438 C 582.316406 223.8125 582.449219 224.355469 582.558594 224.90625 C 582.667969 225.453125 582.75 226.007812 582.804688 226.566406 C 582.863281 227.125 582.890625 227.683594 582.890625 228.242188 Z M 582.890625 228.242188 " fill-opacity="1" fill-rule="nonzero"/><path fill="#000000" d="M 708.417969 456.457031 L 708.417969 433.636719 C 708.417969 426.070312 705.417969 418.8125 700.066406 413.460938 C 694.714844 408.109375 687.457031 405.109375 679.890625 405.109375 C 635.773438 405.109375 518.59375 405.109375 474.476562 405.109375 C 466.910156 405.109375 459.652344 408.109375 454.300781 413.460938 C 448.949219 418.8125 445.945312 426.070312 445.945312 433.636719 C 445.945312 466.429688 445.945312 537.769531 445.945312 570.566406 C 445.945312 578.128906 448.949219 585.386719 454.300781 590.738281 C 459.652344 596.089844 466.910156 599.09375 474.476562 599.09375 C 518.59375 599.09375 635.773438 599.09375 679.890625 599.09375 C 687.457031 599.09375 694.714844 596.089844 700.066406 590.738281 C 705.417969 585.386719 708.417969 578.128906 708.417969 570.566406 C 708.417969 544.113281 708.417969 490.691406 708.417969 490.691406 C 708.417969 484.390625 703.308594 479.28125 697.007812 479.28125 C 690.707031 479.28125 685.597656 484.390625 685.597656 490.691406 L 685.597656 570.566406 C 685.597656 572.082031 684.992188 573.53125 683.929688 574.605469 C 682.855469 575.664062 681.40625 576.269531 679.890625 576.269531 L 474.476562 576.269531 C 472.957031 576.269531 471.507812 575.664062 470.4375 574.605469 C 469.375 573.53125 468.769531 572.082031 468.769531 570.566406 L 468.769531 433.636719 C 468.769531 432.117188 469.375 430.667969 470.4375 429.597656 C 471.507812 428.535156 472.957031 427.929688 474.476562 427.929688 L 679.890625 427.929688 C 681.40625 427.929688 682.855469 428.535156 683.929688 429.597656 C 684.992188 430.667969 685.597656 432.117188 685.597656 433.636719 L 685.597656 456.457031 C 685.597656 462.757812 690.707031 467.867188 697.007812 467.867188 C 703.308594 467.867188 708.417969 462.757812 708.417969 456.457031 Z M 708.417969 456.457031 " fill-opacity="1" fill-rule="evenodd"/><path fill="#000000" d="M 633.636719 512.300781 C 637.507812 510.375 639.949219 506.425781 639.949219 502.101562 C 639.949219 497.777344 637.507812 493.828125 633.636719 491.898438 L 553.753906 451.960938 C 550.214844 450.195312 546.015625 450.375 542.652344 452.453125 C 539.285156 454.542969 537.242188 458.203125 537.242188 462.164062 L 537.242188 542.039062 C 537.242188 545.996094 539.285156 549.660156 542.652344 551.75 C 546.015625 553.824219 550.214844 554.007812 553.753906 552.238281 Z M 603.019531 502.101562 L 560.066406 523.574219 C 560.066406 523.574219 560.066406 480.625 560.066406 480.625 Z M 603.019531 502.101562 " fill-opacity="1" fill-rule="evenodd"/><path fill="#000000" d="M 742.65625 427.929688 L 982.304688 427.929688 C 988.605469 427.929688 993.71875 422.820312 993.71875 416.519531 C 993.71875 410.222656 988.605469 405.109375 982.304688 405.109375 L 742.65625 405.109375 C 736.355469 405.109375 731.242188 410.222656 731.242188 416.519531 C 731.242188 422.820312 736.355469 427.929688 742.65625 427.929688 Z M 742.65625 427.929688 " fill-opacity="1" fill-rule="evenodd"/><path fill="#000000" d="M 742.65625 473.574219 L 948.070312 473.574219 C 954.371094 473.574219 959.480469 468.460938 959.480469 462.164062 C 959.480469 455.863281 954.371094 450.753906 948.070312 450.753906 L 742.65625 450.753906 C 736.355469 450.753906 731.242188 455.863281 731.242188 462.164062 C 731.242188 468.460938 736.355469 473.574219 742.65625 473.574219 Z M 742.65625 473.574219 " fill-opacity="1" fill-rule="evenodd"/><path fill="#000000" d="M 742.65625 519.21875 L 959.480469 519.21875 C 965.78125 519.21875 970.894531 514.105469 970.894531 507.804688 C 970.894531 501.507812 965.78125 496.394531 959.480469 496.394531 L 742.65625 496.394531 C 736.355469 496.394531 731.242188 501.507812 731.242188 507.804688 C 731.242188 514.105469 736.355469 519.21875 742.65625 519.21875 Z M 742.65625 519.21875 " fill-opacity="1" fill-rule="evenodd"/><path fill="#000000" d="M 742.65625 564.859375 L 873.890625 564.859375 C 880.191406 564.859375 885.304688 559.746094 885.304688 553.449219 C 885.304688 547.152344 880.191406 542.039062 873.890625 542.039062 L 742.65625 542.039062 C 736.355469 542.039062 731.242188 547.152344 731.242188 553.449219 C 731.242188 559.746094 736.355469 564.859375 742.65625 564.859375 Z M 742.65625 564.859375 " fill-opacity="1" fill-rule="evenodd"/><path fill="#000000" d="M 942.363281 336.644531 L 965.1875 336.644531 C 971.488281 336.644531 976.597656 341.757812 976.597656 348.054688 C 976.597656 354.355469 971.488281 359.46875 965.1875 359.46875 C 965.1875 359.46875 474.476562 359.46875 474.476562 359.46875 C 468.175781 359.46875 463.0625 354.355469 463.0625 348.054688 C 463.0625 341.757812 468.175781 336.644531 474.476562 336.644531 L 908.128906 336.644531 C 914.425781 336.644531 919.539062 331.535156 919.539062 325.234375 C 919.539062 318.9375 914.425781 313.824219 908.128906 313.824219 L 474.476562 313.824219 C 455.578125 313.824219 440.238281 329.160156 440.238281 348.054688 C 440.238281 366.953125 455.578125 382.289062 474.476562 382.289062 C 474.476562 382.289062 965.1875 382.289062 965.1875 382.289062 C 984.085938 382.289062 999.421875 366.953125 999.421875 348.054688 C 999.421875 329.160156 984.085938 313.824219 965.1875 313.824219 C 965.1875 313.824219 942.363281 313.824219 942.363281 313.824219 C 936.066406 313.824219 930.953125 318.9375 930.953125 325.234375 C 930.953125 331.535156 936.066406 336.644531 942.363281 336.644531 Z M 942.363281 336.644531 " fill-opacity="1" fill-rule="evenodd"/></svg>